<?xml version="1.0" standalone="no"?>
<!DOCTYPE svg PUBLIC "-//W3C//DTD SVG 1.1//EN" "http://www.w3.org/Graphics/SVG/1.1/DTD/svg11.dtd" >
<svg xmlns="http://www.w3.org/2000/svg" xmlns:xlink="http://www.w3.org/1999/xlink" version="1.1">
<metadata>
Created by FontForge 20201107 at Wed Oct 18 08:41:08 2006
 By Unknown

</metadata>
<defs>
<font id="ClanOT-NarrowBook" horiz-adv-x="366" >
  <font-face 
    font-family="ClanOT-NarrowBook"
    font-weight="400"
    font-stretch="semi-condensed"
    units-per-em="1000"
    panose-1="2 0 5 3 3 0 0 2 0 4"
    ascent="787"
    descent="-213"
    x-height="592"
    cap-height="750"
    bbox="-116 -226 943 962"
    underline-thickness="39"
    underline-position="-81"
    stemh="54"
    stemv="56"
    unicode-range="U+000D-FB02"
  />
<missing-glyph horiz-adv-x="554" 
d="M86 0v750h382v-750h-382zM126 40h302v670h-302v-670z" />
    <glyph glyph-name="fi" unicode="fi" horiz-adv-x="621" 
d="M175 0h-55v546h-86v46h86v32c0 104 51 171 171 171c25 0 52 -4 67 -9l-2 -42c-14 4 -34 8 -55 8c-88 0 -126 -47 -126 -129v-31h333v-592h-56v546h-277v-546zM524 754c0 -28 -15 -40 -44 -40c-27 0 -43 10 -43 40c0 26 16 41 43 41c29 0 44 -15 44 -41z" />
    <glyph glyph-name="fl" unicode="fl" horiz-adv-x="595" 
d="M489 0h-56v751c-33 4 -62 7 -97 7c-116 0 -161 -47 -161 -133v-33h127v-46h-127v-546h-55v546h-86v46h85v35c0 104 59 174 217 174c64 0 102 -9 153 -11v-790z" />
    <glyph glyph-name=".notdef" horiz-adv-x="554" 
d="M86 0v750h382v-750h-382zM126 40h302v670h-302v-670z" />
    <glyph glyph-name=".null" horiz-adv-x="0" 
 />
    <glyph glyph-name="CR" unicode="&#xd;" horiz-adv-x="291" 
 />
    <glyph glyph-name="space" unicode=" " horiz-adv-x="291" 
 />
    <glyph glyph-name="exclam" unicode="!" horiz-adv-x="273" 
d="M156 187h-41l-10 563h62zM181 31c0 -27 -14 -41 -44 -41c-28 0 -43 12 -43 41c0 27 15 42 43 42c30 0 44 -15 44 -42z" />
    <glyph glyph-name="quotedbl" unicode="&#x22;" horiz-adv-x="329" 
d="M212 773h60l-14 -218h-37zM61 773h60l-14 -218h-37z" />
    <glyph glyph-name="numbersign" unicode="#" horiz-adv-x="582" 
d="M57 288h117l27 183h-143v47h148l29 232h45l-29 -232h117l29 232h44l-30 -232h114v-47h-119l-25 -183h143v-48h-149l-30 -240h-44l30 240h-118l-30 -240h-44l30 240h-112v48zM245 471l-26 -183h117l26 183h-117z" />
    <glyph glyph-name="dollar" unicode="$" horiz-adv-x="546" 
d="M257 -86l-35 3l5 71c-64 5 -127 23 -168 50c2 22 4 38 7 60c46 -30 104 -51 165 -56l25 325c-97 40 -196 82 -196 205c0 120 82 187 225 189l5 64l38 -2l-5 -63c57 -5 107 -20 133 -34l-5 -56c-41 18 -85 29 -133 33l-22 -284c96 -39 194 -88 194 -224
c0 -145 -75 -206 -228 -208zM442 188c0 91 -71 130 -151 164l-25 -311c118 1 176 47 176 147zM112 574c0 -79 69 -110 149 -142l20 273c-116 -1 -169 -55 -169 -131z" />
    <glyph glyph-name="percent" unicode="%" horiz-adv-x="633" 
d="M299 592c0 -125 -41 -172 -123 -172c-85 0 -124 47 -124 172s36 173 124 173c81 0 123 -42 123 -173zM258 593c0 107 -27 132 -82 132c-56 0 -83 -25 -83 -132c0 -106 27 -133 83 -133c55 0 82 27 82 133zM469 743l36 -25l-355 -709l-36 25zM581 166
c0 -126 -41 -173 -123 -173c-85 0 -124 48 -124 173s36 174 124 174c81 0 123 -44 123 -174zM540 166c0 106 -26 132 -82 132s-82 -25 -82 -132c0 -106 27 -132 82 -132c56 0 82 26 82 132z" />
    <glyph glyph-name="ampersand" unicode="&#x26;" horiz-adv-x="624" 
d="M613 43l-21 -52c-47 31 -97 72 -146 118c-52 -68 -123 -120 -214 -120c-129 0 -180 85 -180 189c0 107 65 180 136 243c-40 68 -64 131 -64 182c0 93 49 159 156 159c92 0 142 -49 142 -123c0 -94 -85 -159 -166 -229c47 -72 112 -149 182 -218c34 57 57 122 66 177h48
c-7 -56 -31 -140 -75 -214c45 -42 91 -81 136 -112zM240 45c66 0 123 42 168 100c-72 72 -140 153 -192 230c-59 -54 -107 -114 -107 -194c0 -85 53 -136 131 -136zM176 603c0 -40 19 -92 52 -148c72 59 139 111 140 180c0 51 -33 79 -90 79c-58 0 -102 -40 -102 -111z" />
    <glyph glyph-name="quotesingle" unicode="'" horiz-adv-x="178" 
d="M59 773h60l-14 -218h-37z" />
    <glyph glyph-name="parenleft" unicode="(" horiz-adv-x="291" 
d="M235 802l51 -3c-86 -135 -137 -286 -137 -461c0 -181 55 -330 136 -461l-50 -3c-85 117 -139 283 -139 464c0 190 51 333 139 464z" />
    <glyph glyph-name="parenright" unicode=")" horiz-adv-x="291" 
d="M5 799l51 3c89 -131 139 -274 139 -464c0 -181 -54 -347 -139 -464l-50 3c82 131 136 280 136 461c0 175 -51 326 -137 461z" />
    <glyph glyph-name="asterisk" unicode="*" horiz-adv-x="329" 
d="M149 795h33l2 -112l106 31l11 -34l-106 -33l69 -94l-27 -21l-71 93l-74 -93l-27 21l70 94l-107 33l11 34l107 -31z" />
    <glyph glyph-name="plus" unicode="+" horiz-adv-x="537" 
d="M467 317h-176v-176h-50v176h-172v54h172v180h50v-180h176v-54z" />
    <glyph glyph-name="comma" unicode="," horiz-adv-x="222" 
d="M110 77c31 0 45 -19 45 -47c-1 -29 -34 -120 -60 -169l-21 5l26 124c-19 4 -33 22 -33 42c0 26 13 45 43 45z" />
    <glyph glyph-name="hyphen" unicode="-" horiz-adv-x="374" 
d="M72 366h230v-46h-230v46z" />
    <glyph glyph-name="period" unicode="." horiz-adv-x="223" 
d="M155 34c0 -28 -14 -44 -43 -44c-30 0 -45 13 -45 44c0 29 15 45 45 45c29 0 43 -16 43 -45z" />
    <glyph glyph-name="slash" unicode="/" horiz-adv-x="387" 
d="M331 801h48l-314 -929h-48z" />
    <glyph glyph-name="zero" unicode="0" horiz-adv-x="590" 
d="M530 376c0 -288 -70 -386 -235 -386c-167 0 -235 98 -235 386c0 292 68 383 236 383c165 0 234 -91 234 -383zM472 377c0 268 -56 326 -176 326c-122 0 -179 -59 -179 -326c0 -271 57 -332 179 -332c120 0 176 62 176 332z" />
    <glyph glyph-name="one" unicode="1" horiz-adv-x="590" 
d="M172 0v49h131v539l2 81l-2 1l-66 -48l-91 -63l-7 54l190 139h34v-703h127v-49h-318z" />
    <glyph glyph-name="two" unicode="2" horiz-adv-x="590" 
d="M506 565c0 -159 -148 -320 -343 -505l1 -3h350l-3 -57h-428v42c176 185 364 365 364 518c0 79 -47 141 -164 141c-67 0 -131 -31 -177 -74l-18 50c47 45 120 81 203 81c138 0 215 -69 215 -193z" />
    <glyph glyph-name="three" unicode="3" horiz-adv-x="590" 
d="M519 224c0 -140 -75 -232 -241 -232c-91 0 -152 25 -199 55l13 52c52 -34 110 -53 184 -53c129 0 186 74 186 180c0 109 -68 153 -236 153v47c155 0 218 53 218 149c0 89 -63 127 -160 127c-75 0 -132 -28 -181 -72l-18 48c44 44 115 80 202 80c131 0 211 -59 211 -179
c0 -99 -54 -151 -130 -174v-2c98 -20 151 -73 151 -179z" />
    <glyph glyph-name="four" unicode="4" horiz-adv-x="590" 
d="M538 177h-91v-177h-55v177h-320l-5 40l306 533h74v-519h93zM394 231l3 386l3 81l-2 1l-265 -468h261z" />
    <glyph glyph-name="five" unicode="5" horiz-adv-x="590" 
d="M510 256c0 -178 -75 -264 -229 -264c-79 0 -138 20 -188 55l12 54c51 -35 102 -55 171 -55c120 0 176 63 176 204c0 120 -55 166 -169 166c-65 0 -125 -18 -165 -43l-24 24l27 353h357l2 -57h-314l-19 -255c44 20 100 31 150 31c142 0 213 -67 213 -213z" />
    <glyph glyph-name="six" unicode="6" horiz-adv-x="590" 
d="M519 256c0 -179 -74 -264 -221 -264c-149 0 -230 81 -230 356c0 292 96 410 273 410c52 0 96 -8 142 -28l-6 -54c-42 17 -80 25 -130 25c-143 0 -219 -88 -225 -308l3 -2c48 51 117 80 186 80c143 0 208 -66 208 -215zM462 257c0 117 -51 165 -161 165
c-61 0 -136 -33 -175 -86c3 -220 54 -290 172 -290c108 0 164 66 164 211z" />
    <glyph glyph-name="seven" unicode="7" horiz-adv-x="590" 
d="M529 750v-52l-301 -698h-67l310 690h-400l3 60h455z" />
    <glyph glyph-name="eight" unicode="8" horiz-adv-x="590" 
d="M67 199c0 96 59 161 143 199v3c-67 29 -118 76 -118 173c0 116 60 184 204 184c138 0 203 -61 203 -184c0 -81 -43 -144 -122 -182v-2c79 -30 147 -76 147 -191c0 -141 -78 -207 -228 -207c-158 0 -229 65 -229 207zM468 196c0 119 -106 145 -206 181
c-79 -39 -140 -89 -140 -179c0 -106 49 -155 176 -155c104 0 170 45 170 153zM146 572c0 -104 88 -131 179 -162c86 40 122 89 122 160c0 93 -48 136 -151 136c-102 0 -150 -45 -150 -134z" />
    <glyph glyph-name="nine" unicode="9" horiz-adv-x="590" 
d="M518 416c0 -316 -89 -424 -260 -424c-58 0 -100 8 -148 31l8 52c44 -19 83 -28 134 -28c139 0 206 87 212 339l-2 1c-47 -48 -109 -70 -178 -70c-151 0 -219 82 -219 218c0 143 71 223 219 223c149 0 234 -103 234 -342zM461 443c-2 191 -70 261 -178 261
c-106 0 -162 -54 -162 -167c0 -106 53 -169 170 -169c66 0 127 19 170 75z" />
    <glyph glyph-name="colon" unicode=":" horiz-adv-x="223" 
d="M155 516c0 -28 -14 -44 -43 -44c-30 0 -45 13 -45 44c0 29 15 45 45 45c29 0 43 -16 43 -45zM155 34c0 -28 -14 -44 -43 -44c-30 0 -45 13 -45 44c0 29 15 45 45 45c29 0 43 -16 43 -45z" />
    <glyph glyph-name="semicolon" unicode=";" horiz-adv-x="227" 
d="M159 516c0 -28 -14 -44 -43 -44c-30 0 -45 13 -45 44c0 29 15 45 45 45c29 0 43 -16 43 -45zM111 77c31 0 45 -19 45 -47c-1 -29 -34 -120 -60 -169l-21 5l26 124c-19 4 -33 22 -33 42c0 26 13 45 43 45z" />
    <glyph glyph-name="less" unicode="&#x3c;" horiz-adv-x="537" 
d="M455 506l-229 -125l-71 -36v-3l72 -36l228 -120v-59l-373 201v29l373 210v-61z" />
    <glyph glyph-name="equal" unicode="=" horiz-adv-x="537" 
d="M466 398h-395v49h395v-49zM466 237h-395v49h395v-49z" />
    <glyph glyph-name="greater" unicode="&#x3e;" horiz-adv-x="537" 
d="M82 127v59l229 119l73 36v3l-72 36l-230 126l1 61l372 -210v-29z" />
    <glyph glyph-name="question" unicode="?" horiz-adv-x="460" 
d="M413 597c0 -115 -62 -187 -168 -258l-2 -152h-45l-4 174c102 78 162 136 162 229c0 84 -50 118 -128 118c-70 0 -124 -29 -168 -73l-22 46c43 47 112 82 195 82c121 0 180 -58 180 -166zM265 31c0 -27 -14 -41 -43 -41s-44 12 -44 41c0 27 15 42 44 42s43 -15 43 -42z
" />
    <glyph glyph-name="at" unicode="@" horiz-adv-x="782" 
d="M414 553c37 0 66 -15 81 -44h3l12 38l34 -3l-41 -256c-2 -12 -3 -24 -3 -35c0 -49 21 -81 69 -81c71 0 123 76 123 232c0 197 -98 337 -279 337c-216 0 -322 -191 -322 -405c0 -219 96 -398 322 -398c139 0 218 49 261 95l17 -35c-63 -58 -151 -98 -278 -98
c-242 0 -360 181 -360 436c0 236 120 444 360 444c198 0 316 -152 316 -375c0 -190 -72 -277 -167 -277c-50 0 -87 26 -97 82l-3 1c-27 -50 -70 -83 -124 -83c-69 0 -115 49 -115 157c0 140 85 268 191 268zM457 302l27 164c-14 30 -37 42 -69 42c-77 0 -143 -105 -143 -223
c0 -75 31 -108 78 -108c52 0 96 51 107 125z" />
    <glyph glyph-name="A" unicode="A" horiz-adv-x="623" 
d="M532 0l-63 200h-317l-63 -200h-65l251 750h74l251 -750h-68zM311 703l-23 -78l-118 -369h281l-115 369l-22 78h-3z" />
    <glyph glyph-name="B" unicode="B" horiz-adv-x="613" 
d="M549 210c0 -135 -58 -210 -209 -210h-240v750h228c128 0 193 -55 193 -183c0 -100 -44 -151 -105 -169v-2c82 -17 133 -71 133 -186zM489 214c0 107 -50 152 -153 152h-178v-311h183c93 0 148 40 148 159zM462 556c0 102 -43 138 -136 138h-168v-277h174
c89 0 130 46 130 139z" />
    <glyph glyph-name="C" unicode="C" horiz-adv-x="547" 
d="M502 728l-9 -57c-36 18 -89 32 -143 32c-151 0 -224 -74 -224 -319c0 -263 74 -338 226 -338c57 0 103 13 144 35l9 -53c-39 -22 -101 -41 -160 -41c-195 0 -282 116 -282 397c0 269 90 378 284 378c56 0 120 -16 155 -34z" />
    <glyph glyph-name="D" unicode="D" horiz-adv-x="663" 
d="M600 378c0 -279 -90 -378 -284 -378h-216v750h214c201 0 286 -99 286 -372zM537 378c0 248 -68 312 -224 312h-153v-631h154c149 0 223 62 223 319z" />
    <glyph glyph-name="E" unicode="E" horiz-adv-x="558" 
d="M160 58h352l-2 -58h-410v750h394l2 -58h-336v-272h291v-54h-291v-308z" />
    <glyph glyph-name="F" unicode="F" horiz-adv-x="530" 
d="M496 690h-335v-275h281l-1 -57h-280v-358h-61v750h394z" />
    <glyph glyph-name="G" unicode="G" horiz-adv-x="612" 
d="M547 396v-368c-46 -25 -116 -41 -190 -41c-203 0 -294 106 -294 384c0 285 93 391 296 391c62 0 128 -15 172 -36l-8 -56c-46 21 -99 34 -162 34c-159 0 -235 -72 -235 -332c0 -246 68 -326 230 -326c54 0 100 9 137 26v324h54z" />
    <glyph glyph-name="H" unicode="H" horiz-adv-x="679" 
d="M579 0h-60v363h-359v-363h-60v750h60v-328h359v328h60v-750z" />
    <glyph glyph-name="I" unicode="I" horiz-adv-x="286" 
d="M112 0v750h62v-750h-62z" />
    <glyph glyph-name="J" unicode="J" horiz-adv-x="489" 
d="M389 750v-527c0 -157 -79 -236 -218 -236c-58 0 -104 16 -136 41l7 57c30 -25 71 -40 123 -40c102 0 163 57 163 179v526h61z" />
    <glyph glyph-name="K" unicode="K" horiz-adv-x="620" 
d="M590 0h-78l-243 365h-109v-365h-60v750h60v-330h108l233 330h75l-251 -355z" />
    <glyph glyph-name="L" unicode="L" horiz-adv-x="514" 
d="M160 60h330l-3 -60h-387v750h60v-690z" />
    <glyph glyph-name="M" unicode="M" horiz-adv-x="816" 
d="M100 750h71l210 -584l26 -76h3l25 76l210 584h71v-750h-55v561l2 81l-3 1l-26 -77l-204 -566h-46l-204 563l-26 77l-2 -1l1 -81v-558h-53v750z" />
    <glyph glyph-name="N" unicode="N" horiz-adv-x="684" 
d="M584 0h-46l-343 581l-40 71l-2 -1l1 -81v-570h-54v750h61l370 -638l2 1l-2 80l-1 557h54v-750z" />
    <glyph glyph-name="O" unicode="O" horiz-adv-x="661" 
d="M598 375c0 -286 -72 -388 -267 -388c-193 0 -268 103 -268 388s74 387 268 387c195 0 267 -102 267 -387zM535 375c0 262 -57 328 -204 328c-146 0 -205 -66 -205 -328c0 -261 59 -329 205 -329c147 0 204 68 204 329z" />
    <glyph glyph-name="P" unicode="P" horiz-adv-x="581" 
d="M533 530c0 -154 -65 -222 -223 -222h-150v-308h-60v750h210c155 0 223 -60 223 -220zM472 531c0 121 -51 163 -162 163h-150v-332h150c108 0 162 38 162 169z" />
    <glyph glyph-name="Q" unicode="Q" horiz-adv-x="661" 
d="M598 375c0 -260 -60 -368 -217 -383l-1 -2l159 -122l-83 -20l-141 139c-182 6 -252 111 -252 388c0 285 74 387 268 387c195 0 267 -102 267 -387zM535 375c0 262 -57 328 -204 328c-146 0 -205 -66 -205 -328c0 -261 59 -329 205 -329c147 0 204 68 204 329z" />
    <glyph glyph-name="R" unicode="R" horiz-adv-x="586" 
d="M514 549c0 -124 -52 -185 -146 -196l190 -353h-73l-175 342h-150v-342h-60v750h212c138 0 202 -63 202 -201zM452 547c0 108 -44 147 -140 147h-152v-301h148c98 0 144 41 144 154z" />
    <glyph glyph-name="S" unicode="S" horiz-adv-x="506" 
d="M463 204c0 -139 -77 -217 -221 -217c-77 0 -141 21 -191 55l11 57c51 -35 108 -54 179 -54c107 0 163 56 163 156c0 202 -346 123 -346 366c0 114 68 195 211 195c66 0 125 -14 171 -39l-11 -55c-49 22 -98 36 -156 36c-111 0 -156 -60 -156 -134
c0 -191 346 -112 346 -366z" />
    <glyph glyph-name="T" unicode="T" horiz-adv-x="516" 
d="M499 690h-211v-690h-60v690h-211l2 60h479z" />
    <glyph glyph-name="U" unicode="U" horiz-adv-x="662" 
d="M577 750v-498c0 -188 -90 -265 -246 -265c-157 0 -246 77 -246 265v498h60v-497c0 -145 61 -206 186 -206s186 62 186 206v497h60z" />
    <glyph glyph-name="V" unicode="V" horiz-adv-x="611" 
d="M520 750h63l-241 -750h-73l-242 750h67l211 -690h3l22 77z" />
    <glyph glyph-name="W" unicode="W" horiz-adv-x="891" 
d="M412 750h69l137 -610l17 -79h3l14 79l123 610h60l-162 -750h-76l-135 608l-15 80h-3l-16 -80l-134 -608h-75l-163 750h62l123 -611l15 -79h3l16 79z" />
    <glyph glyph-name="X" unicode="X" horiz-adv-x="616" 
d="M557 750l-206 -360l221 -390h-70l-157 282l-37 72h-3l-37 -72l-153 -282h-72l218 390l-209 360h73l143 -254l38 -71h3l37 71l140 254h71z" />
    <glyph glyph-name="Y" unicode="Y" horiz-adv-x="586" 
d="M27 750h70l164 -352l33 -74h3l32 74l163 352h67l-234 -488v-262h-61v262z" />
    <glyph glyph-name="Z" unicode="Z" horiz-adv-x="550" 
d="M493 0h-445v43l337 579l42 67l-2 2h-366l3 59h434v-49l-333 -573l-41 -66l1 -3h373z" />
    <glyph glyph-name="bracketleft" unicode="[" horiz-adv-x="286" 
d="M96 -124v925h185v-46h-133v-834h133v-45h-185z" />
    <glyph glyph-name="backslash" unicode="\" horiz-adv-x="348" 
d="M20 801h47l270 -929h-46z" />
    <glyph glyph-name="bracketright" unicode="]" horiz-adv-x="287" 
d="M191 801v-925h-186v45h134v834h-133v46h185z" />
    <glyph glyph-name="asciicircum" unicode="^" horiz-adv-x="590" 
d="M473 479l-178 277l-177 -277h-52l209 327h41l207 -327h-50z" />
    <glyph glyph-name="underscore" unicode="_" horiz-adv-x="400" 
d="M29 -49h347v-40h-347v40z" />
    <glyph glyph-name="grave" unicode="`" 
d="M248 669h-45l-93 139h73z" />
    <glyph glyph-name="a" unicode="a" horiz-adv-x="514" 
d="M395 0l-5 81l-3 1c-29 -55 -91 -90 -165 -90c-97 0 -163 53 -163 185c0 114 63 176 193 176c48 0 96 -11 130 -26v80c0 112 -43 145 -136 145c-54 0 -103 -11 -149 -36l-7 50c50 25 105 38 165 38c129 0 183 -55 183 -206v-398h-43zM382 157v125c-14 11 -59 27 -121 27
c-104 0 -149 -48 -149 -132c0 -101 53 -136 125 -136c77 0 145 58 145 116z" />
    <glyph glyph-name="b" unicode="b" horiz-adv-x="564" 
d="M511 297c0 -229 -75 -308 -208 -308c-68 0 -128 28 -162 78l-3 -1l-10 -66h-37v799l56 4v-192l-1 -80l2 -1c37 47 96 73 161 73c124 0 202 -71 202 -306zM455 296c0 206 -60 253 -159 253c-65 0 -119 -30 -149 -80v-347c23 -43 74 -83 150 -83c94 0 158 51 158 257z" />
    <glyph glyph-name="c" unicode="c" horiz-adv-x="450" 
d="M402 571l-5 -53c-32 17 -73 29 -115 29c-123 0 -172 -66 -172 -242c0 -199 57 -265 170 -265c45 0 87 13 121 38l5 -50c-31 -24 -81 -41 -136 -41c-146 0 -218 87 -218 317c0 207 68 297 220 297c48 0 96 -13 130 -30z" />
    <glyph glyph-name="d" unicode="d" horiz-adv-x="561" 
d="M472 0h-41l-9 66l-3 1c-33 -52 -88 -79 -163 -79c-145 0 -204 91 -204 309c0 209 61 305 205 305c64 0 123 -24 160 -74l2 1l-2 80v188l55 5v-802zM417 121v348c-26 48 -81 78 -146 78c-118 0 -161 -68 -161 -253c0 -190 41 -256 160 -256c86 0 129 45 147 83z" />
    <glyph glyph-name="e" unicode="e" horiz-adv-x="517" 
d="M289 -11c-169 0 -237 91 -237 328c0 190 70 285 211 285c121 0 203 -77 203 -272c0 -9 0 -21 -1 -30h-356c3 -198 59 -258 186 -258c55 0 100 14 144 40l8 -51c-45 -27 -96 -42 -158 -42zM108 342h306c-1 155 -63 208 -150 208c-105 0 -151 -67 -156 -208z" />
    <glyph glyph-name="f" unicode="f" horiz-adv-x="361" 
d="M175 0h-55v546h-86v46h85v32c0 104 52 171 171 171c27 0 57 -5 75 -12l-4 -41c-18 6 -40 9 -63 9c-85 0 -123 -46 -123 -128v-31h149v-46h-149v-546z" />
    <glyph glyph-name="g" unicode="g" horiz-adv-x="509" 
d="M253 261c-25 0 -52 2 -76 10c-36 -10 -55 -30 -55 -54s17 -40 54 -47l130 -16c129 -16 169 -59 169 -137c0 -104 -55 -169 -216 -169c-139 0 -199 61 -199 155c0 45 22 91 61 124c-29 13 -52 38 -52 77c0 36 27 68 70 83l1 2c-41 23 -68 67 -68 141c0 112 52 171 180 171
c46 0 94 -9 129 -38l90 42l13 -29l-73 -51c13 -24 21 -55 21 -95c0 -114 -48 -169 -179 -169zM297 101l-129 16c-39 -29 -58 -70 -58 -107c0 -72 44 -114 148 -114c130 0 164 46 164 113c0 52 -25 81 -125 92zM253 554c-92 0 -125 -42 -125 -125c0 -101 53 -124 124 -124
c96 0 126 41 126 124c0 94 -38 125 -125 125z" />
    <glyph glyph-name="h" unicode="h" horiz-adv-x="560" 
d="M483 0h-55v415c0 83 -44 132 -137 132c-66 0 -121 -34 -144 -77v-470h-56v797l56 5v-191l-1 -80l2 -1c36 47 93 72 158 72c115 0 177 -64 177 -187v-415z" />
    <glyph glyph-name="i" unicode="i" horiz-adv-x="280" 
d="M168 0h-56v590l56 4v-594zM183 752c0 -28 -14 -40 -42 -40s-43 10 -43 40c0 25 15 40 43 40s42 -14 42 -40z" />
    <glyph glyph-name="j" unicode="j" horiz-adv-x="277" 
d="M166 594v-613c0 -100 -48 -133 -116 -133c-19 0 -42 5 -58 12l5 44c12 -5 27 -9 41 -9c43 0 72 25 72 87v608zM180 754c0 -28 -14 -40 -43 -40c-28 0 -43 10 -43 40c0 26 15 41 43 41c29 0 43 -15 43 -41z" />
    <glyph glyph-name="k" unicode="k" horiz-adv-x="515" 
d="M147 802v-456h84l184 247h70l-202 -271l211 -322h-70l-192 295h-85v-295h-56v798z" />
    <glyph glyph-name="l" unicode="l" horiz-adv-x="268" 
d="M162 0h-56v798l56 4v-802z" />
    <glyph glyph-name="m" unicode="m" horiz-adv-x="822" 
d="M745 0h-55v416c0 91 -49 130 -126 130c-63 0 -121 -39 -121 -119v-427h-55v427c0 87 -53 120 -118 120c-51 0 -104 -29 -128 -76v-471h-56v591l40 4l10 -67h3c30 45 83 72 140 72c76 0 124 -32 146 -92h3c24 60 79 92 149 92c99 0 168 -57 168 -183v-417z" />
    <glyph glyph-name="n" unicode="n" horiz-adv-x="554" 
d="M478 0h-55v414c0 94 -50 133 -138 133c-53 0 -116 -27 -143 -76v-471h-56v591l40 4l10 -66h3c35 46 95 73 159 73c112 0 180 -60 180 -188v-414z" />
    <glyph glyph-name="o" unicode="o" horiz-adv-x="548" 
d="M495 295c0 -228 -66 -308 -220 -308s-223 80 -223 308c0 226 70 307 223 307c154 0 220 -81 220 -307zM110 295c0 -193 47 -257 165 -257c117 0 163 65 163 257c0 191 -46 256 -163 256c-118 0 -165 -65 -165 -256z" />
    <glyph glyph-name="p" unicode="p" horiz-adv-x="558" 
d="M506 297c0 -227 -78 -308 -208 -308c-61 0 -116 19 -153 71l-2 -1l1 -81v-121h-58v733l41 3l12 -65h3c34 46 93 74 162 74c129 0 202 -68 202 -305zM449 298c0 200 -57 249 -157 249c-65 0 -117 -28 -148 -79v-345c22 -44 70 -83 143 -83c96 0 162 51 162 258z" />
    <glyph glyph-name="q" unicode="q" horiz-adv-x="559" 
d="M470 -142l-56 -2v123l2 81l-2 1c-35 -45 -90 -70 -155 -70c-128 0 -207 77 -207 305c0 223 73 306 210 306c69 0 127 -28 161 -78h3l9 67h36zM415 135v331c-19 42 -76 81 -144 81c-114 0 -161 -59 -161 -251c0 -195 53 -252 160 -252c86 0 140 48 145 91z" />
    <glyph glyph-name="r" unicode="r" horiz-adv-x="395" 
d="M142 0h-56v589l45 4l2 -63l2 -81h2c30 90 93 151 173 151c18 0 36 -3 50 -7l-4 -59c-15 5 -32 6 -49 6c-89 0 -165 -88 -165 -230v-310z" />
    <glyph glyph-name="s" unicode="s" horiz-adv-x="441" 
d="M395 164c0 -110 -56 -176 -179 -176c-62 0 -121 17 -160 50l8 52c39 -33 97 -51 150 -51c90 0 129 49 129 120c0 162 -285 96 -285 289c0 97 63 154 178 154c50 0 97 -11 138 -32l-6 -51c-43 21 -89 32 -133 32c-76 0 -123 -39 -123 -100c0 -150 283 -78 283 -287z" />
    <glyph glyph-name="t" unicode="t" horiz-adv-x="348" 
d="M312 545h-140v-410c0 -69 34 -95 87 -95c15 0 34 4 45 9l5 -46c-15 -7 -41 -12 -65 -12c-83 0 -128 45 -128 142v412h-82v47h83l11 153l44 6v-159h140v-47z" />
    <glyph glyph-name="u" unicode="u" horiz-adv-x="545" 
d="M469 592v-415c0 -120 -64 -188 -196 -188c-133 0 -196 69 -196 188v415h55v-414c0 -90 49 -135 141 -135c91 0 140 45 140 135v414h56z" />
    <glyph glyph-name="v" unicode="v" horiz-adv-x="564" 
d="M462 592h63l-209 -592h-68l-209 592h63l155 -462l25 -77h3l23 77z" />
    <glyph glyph-name="w" unicode="w" horiz-adv-x="776" 
d="M359 592h62l111 -467l17 -79h3l14 79l97 467h56l-133 -592h-71l-106 455l-16 80h-3l-18 -80l-108 -455h-70l-137 592h57l99 -464l16 -79h3l17 79z" />
    <glyph glyph-name="x" unicode="x" horiz-adv-x="529" 
d="M415 0l-114 201l-37 72h-3l-38 -72l-112 -201h-65l179 301l-175 291h67l109 -191l38 -71h3l37 71l108 191h65l-173 -289l180 -303h-69z" />
    <glyph glyph-name="y" unicode="y" horiz-adv-x="564" 
d="M169 -106c43 0 74 19 100 84l3 12l-233 602h66l169 -464l26 -76h3l21 78l140 462h61l-200 -617c-35 -98 -82 -128 -147 -128c-28 0 -56 7 -77 18l7 46c20 -12 41 -17 61 -17z" />
    <glyph glyph-name="z" unicode="z" horiz-adv-x="486" 
d="M425 550l-257 -430l-42 -66l1 -3h301l-2 -51h-364v42l257 429l43 67l-2 2h-287l3 52h349v-42z" />
    <glyph glyph-name="braceleft" unicode="{" horiz-adv-x="334" 
d="M223 439c0 -46 -21 -82 -58 -96v-3c37 -15 58 -51 58 -96c0 -90 -15 -147 -15 -235c0 -51 24 -82 96 -82h25v-48h-22c-112 0 -153 45 -153 123c0 90 18 154 18 243c0 44 -28 77 -76 82v29c48 5 76 37 76 82c0 89 -18 152 -18 243c0 77 41 123 153 123h22v-48h-25
c-72 0 -96 -30 -96 -82c0 -88 15 -145 15 -235z" />
    <glyph glyph-name="bar" unicode="|" horiz-adv-x="256" 
d="M106 -172v988h44v-988h-44z" />
    <glyph glyph-name="braceright" unicode="}" horiz-adv-x="334" 
d="M111 244c0 45 20 81 58 96v3c-38 14 -58 50 -58 96c0 90 16 147 16 235c0 52 -25 82 -97 82h-25v48h22c112 0 152 -46 152 -123c0 -91 -17 -154 -17 -243c0 -45 28 -77 77 -82v-29c-49 -5 -77 -38 -77 -82c0 -89 17 -153 17 -243c0 -78 -40 -123 -152 -123h-22v48h25
c72 0 97 31 97 82c0 88 -16 145 -16 235z" />
    <glyph glyph-name="asciitilde" unicode="~" horiz-adv-x="590" 
d="M129 649h-37c12 78 46 117 110 117c68 0 125 -71 184 -71c43 0 61 21 74 61h36c-11 -78 -48 -117 -109 -117c-68 0 -125 71 -184 71c-41 0 -62 -22 -74 -61z" />
    <glyph glyph-name="uni00A0" unicode="&#xa0;" horiz-adv-x="291" 
 />
    <glyph glyph-name="exclamdown" unicode="&#xa1;" horiz-adv-x="273" 
d="M115 480h44l8 -615h-61zM92 633c0 26 14 41 44 41c28 0 43 -12 43 -41c0 -27 -15 -42 -43 -42c-30 0 -44 15 -44 42z" />
    <glyph glyph-name="cent" unicode="&#xa2;" horiz-adv-x="454" 
d="M405 571l-5 -53c-32 17 -73 29 -115 29c-123 0 -172 -66 -172 -242c0 -199 57 -265 170 -265c45 0 87 13 121 38l5 -50c-28 -22 -71 -37 -120 -40l-5 -139h-46l6 140c-127 11 -189 101 -189 315c0 199 63 290 203 296l8 131h46l-8 -132c38 -4 74 -15 101 -28z" />
    <glyph glyph-name="sterling" unicode="&#xa3;" horiz-adv-x="583" 
d="M80 351l-3 51h52c-13 52 -27 98 -27 156c0 111 60 200 232 200c66 0 125 -15 168 -38l-10 -55c-37 20 -94 36 -152 36c-126 0 -177 -63 -177 -148c0 -51 13 -98 25 -151h243v-51h-232c6 -35 11 -73 11 -116c0 -86 -29 -148 -77 -182l2 -3c62 12 121 15 205 15
c69 0 138 -5 203 -12c-1 -3 -2 -55 -4 -59c-81 9 -147 14 -224 14c-88 0 -159 -4 -257 -13l-2 56c63 26 96 98 96 181c0 47 -5 85 -11 119h-61z" />
    <glyph glyph-name="currency" unicode="&#xa4;" horiz-adv-x="513" 
d="M100 353c0 35 11 67 30 93l-61 63l32 36l63 -65c26 19 57 31 92 31c34 0 66 -12 92 -31l65 65l32 -35l-64 -65c19 -26 30 -58 30 -92s-10 -64 -28 -90l61 -62l-32 -36l-62 63c-26 -20 -58 -32 -94 -32s-68 11 -94 31l-62 -62l-32 35l61 61c-19 26 -29 58 -29 92zM140 355
c0 -64 52 -113 115 -113c65 0 115 49 115 113c0 61 -50 112 -115 112c-63 0 -115 -51 -115 -112z" />
    <glyph glyph-name="yen" unicode="&#xa5;" horiz-adv-x="652" 
d="M169 324h111l-212 426h70l157 -348l32 -74h3l31 74l155 348h67l-206 -426h108v-40h-124v-59h125v-40h-125v-185h-64v185h-128v40h128v59h-128v40z" />
    <glyph glyph-name="brokenbar" unicode="&#xa6;" horiz-adv-x="256" 
d="M106 376v440h44v-440h-44zM106 -166v445h44v-445h-44z" />
    <glyph glyph-name="section" unicode="&#xa7;" horiz-adv-x="501" 
d="M64 366c0 55 27 114 99 145l1 2c-51 34 -87 75 -87 131c0 94 67 151 189 151c58 0 123 -16 165 -47l-8 -48c-47 32 -100 46 -155 46c-87 0 -134 -37 -134 -100c0 -132 326 -152 326 -359c0 -56 -28 -116 -99 -145v-3c49 -34 86 -74 86 -130c0 -95 -67 -151 -188 -151
c-59 0 -123 16 -165 47l7 47c47 -32 100 -46 155 -46c88 0 134 38 134 100c0 133 -326 153 -326 360zM406 282c0 94 -106 144 -197 200c-63 -22 -91 -64 -91 -112c0 -94 105 -144 197 -199c64 21 91 62 91 111z" />
    <glyph glyph-name="dieresis" unicode="&#xa8;" 
d="M149 755c0 -25 -11 -37 -33 -37c-21 0 -32 10 -32 37c0 24 11 38 32 38c22 0 33 -13 33 -38zM286 755c0 -25 -11 -37 -33 -37c-21 0 -33 10 -33 37c0 24 12 38 33 38c22 0 33 -13 33 -38z" />
    <glyph glyph-name="copyright" unicode="&#xa9;" horiz-adv-x="912" 
d="M64 380c0 216 175 391 392 391c216 0 393 -175 393 -391c0 -217 -177 -393 -393 -393c-217 0 -392 176 -392 393zM99 380c0 -191 155 -357 357 -357c199 0 360 159 360 357c0 194 -161 354 -360 354c-201 0 -357 -160 -357 -354zM609 596l-5 -47c-33 19 -83 32 -126 32
c-132 0 -210 -85 -210 -201c0 -120 82 -206 212 -206c55 0 102 19 139 42c3 -15 5 -30 7 -45c-38 -28 -98 -54 -159 -54c-152 0 -257 108 -257 263c0 137 93 256 255 256c61 0 115 -19 144 -40z" />
    <glyph glyph-name="ordfeminine" unicode="&#xaa;" horiz-adv-x="367" 
d="M271 401l-4 51l-3 1c-22 -36 -59 -57 -103 -57c-66 0 -110 38 -110 129c0 79 45 124 129 124c28 0 58 -6 81 -18v50c0 70 -27 90 -86 90c-35 0 -66 -7 -97 -23l-5 45c33 16 71 25 110 25c90 0 126 -39 126 -145v-272h-38zM261 513v80c-9 7 -36 16 -72 16
c-63 0 -91 -30 -91 -84c0 -63 32 -84 76 -84c47 0 87 37 87 72z" />
    <glyph glyph-name="guillemotleft" unicode="&#xab;" horiz-adv-x="559" 
d="M465 453l-196 -125l196 -125v-50l-257 172v7l257 172v-51zM285 453l-196 -125l196 -125v-50l-257 172v7l257 172v-51z" />
    <glyph glyph-name="logicalnot" unicode="&#xac;" horiz-adv-x="590" 
d="M433 318h-325v54h374v-202h-49v148z" />
    <glyph glyph-name="uni00AD" unicode="&#xad;" horiz-adv-x="374" 
d="M72 366h230v-46h-230v46z" />
    <glyph glyph-name="registered" unicode="&#xae;" horiz-adv-x="429" 
d="M49 666c0 93 75 168 166 168s165 -75 165 -168c0 -92 -74 -166 -165 -166s-166 74 -166 166zM70 667c0 -80 65 -145 146 -145c78 0 143 65 143 145c0 81 -65 144 -143 144c-81 0 -146 -63 -146 -144zM295 711c0 -26 -15 -47 -41 -54l48 -86h-32l-44 84h-50v-84h-28v198
h77c51 0 70 -23 70 -58zM267 710c0 23 -12 34 -41 34h-50v-67h55c24 0 36 14 36 33z" />
    <glyph glyph-name="macron" unicode="&#xaf;" 
d="M306 764v-40h-241v40h241z" />
    <glyph glyph-name="degree" unicode="&#xb0;" horiz-adv-x="336" 
d="M51 697c0 65 50 119 117 119c65 0 117 -53 117 -119c0 -64 -52 -119 -117 -119s-117 55 -117 119zM83 697c0 -46 36 -84 85 -84c47 0 86 36 86 84s-39 85 -86 85c-51 0 -85 -39 -85 -85z" />
    <glyph glyph-name="plusminus" unicode="&#xb1;" horiz-adv-x="590" 
d="M492 348h-173v-162h-52v162h-169v53h169v173h52v-173h173v-53zM490 96h-393v47h393v-47z" />
    <glyph glyph-name="twosuperior" unicode="&#xb2;" horiz-adv-x="310" 
d="M275 793c0 -82 -75 -159 -174 -248v-3h178l-1 -42h-237v32c94 96 185 183 185 257c0 38 -22 67 -77 67c-37 0 -68 -15 -94 -37l-13 39c27 23 67 41 115 41c78 0 118 -40 118 -106z" />
    <glyph glyph-name="threesuperior" unicode="&#xb3;" horiz-adv-x="310" 
d="M277 618c0 -76 -41 -123 -134 -123c-49 0 -84 13 -110 29l11 39c28 -18 60 -27 99 -27c61 0 87 34 87 84c0 51 -30 72 -117 72v35c80 0 109 25 109 71c0 42 -28 59 -76 59c-40 0 -71 -12 -98 -35l-12 36c25 23 66 41 112 41c74 0 120 -32 120 -98c0 -50 -27 -77 -66 -89
v-2c49 -11 75 -39 75 -92z" />
    <glyph glyph-name="acute" unicode="&#xb4;" 
d="M224 808h72l-99 -139h-45z" />
    <glyph glyph-name="uni00B5" unicode="&#xb5;" horiz-adv-x="554" 
d="M288 -11c-61 0 -123 24 -152 87l-2 -1c2 -76 5 -149 9 -217l-57 -6v740h56v-415c0 -87 62 -136 145 -136c77 0 135 40 135 120v431h56v-591l-40 -5l-9 61l-3 1c-24 -45 -76 -69 -138 -69z" />
    <glyph glyph-name="paragraph" unicode="&#xb6;" horiz-adv-x="584" 
d="M226 -145h-51v667c-77 2 -130 43 -130 117c0 64 45 111 132 111h359l-3 -50h-72v-845h-51v845h-185z" />
    <glyph glyph-name="periodcentered" unicode="&#xb7;" horiz-adv-x="251" 
d="M170 346c0 -28 -14 -44 -43 -44c-30 0 -45 13 -45 44c0 29 15 45 45 45c29 0 43 -16 43 -45z" />
    <glyph glyph-name="cedilla" unicode="&#xb8;" 
d="M127 -191l55 191h39l-36 -191h-58z" />
    <glyph glyph-name="onesuperior" unicode="&#xb9;" horiz-adv-x="237" 
d="M174 896v-396h-49v250l3 79l-3 1l-77 -54l-5 41l101 79h30z" />
    <glyph glyph-name="ordmasculine" unicode="&#xba;" horiz-adv-x="393" 
d="M346 606c0 -158 -45 -211 -148 -211s-150 53 -150 211s47 211 150 211c104 0 148 -53 148 -211zM98 606c0 -127 29 -166 100 -166s99 39 99 166c0 128 -28 165 -99 165s-100 -38 -100 -165z" />
    <glyph glyph-name="guillemotright" unicode="&#xbb;" horiz-adv-x="559" 
d="M257 153v50l194 125l-194 125v51l256 -172v-7zM78 153v50l194 125l-194 125v51l256 -172v-7z" />
    <glyph glyph-name="onequarter" unicode="&#xbc;" horiz-adv-x="781" 
d="M250 752v-396h-49v250l3 79l-3 1l-77 -54l-5 41l101 79h30zM692 89h-44v-89h-45v89h-182l-4 28l172 277h59v-265h46zM604 129l1 138l2 81l-2 1l-41 -70l-50 -82l-43 -65l1 -3h132zM597 750h45l-462 -750h-45z" />
    <glyph glyph-name="onehalf" unicode="&#xbd;" horiz-adv-x="781" 
d="M702 294c0 -83 -75 -160 -174 -249v-3h178l-1 -42h-237v32c94 97 185 184 185 257c0 39 -22 67 -77 67c-37 0 -68 -15 -94 -37l-13 40c27 22 67 40 115 40c78 0 118 -40 118 -105zM588 750h45l-462 -750h-45zM246 752v-396h-49v250l3 79l-3 1l-77 -54l-5 41l101 79h30z
" />
    <glyph glyph-name="threequarters" unicode="&#xbe;" horiz-adv-x="781" 
d="M691 89h-44v-89h-45v89h-182l-4 28l172 277h59v-265h46zM603 129l1 138l2 81l-2 1l-41 -70l-50 -82l-43 -65l1 -3h132zM598 750h45l-462 -750h-45zM310 474c0 -76 -41 -123 -134 -123c-49 0 -84 13 -110 29l11 39c28 -18 60 -27 99 -27c61 0 87 34 87 84
c0 51 -30 72 -117 72v35c80 0 109 25 109 71c0 42 -28 59 -76 59c-40 0 -71 -12 -98 -35l-12 36c25 23 66 41 112 41c74 0 120 -32 120 -98c0 -50 -27 -77 -66 -89v-2c49 -12 75 -40 75 -92z" />
    <glyph glyph-name="questiondown" unicode="&#xbf;" horiz-adv-x="436" 
d="M48 66c0 113 62 186 167 257l3 152h45l4 -174c-102 -78 -162 -136 -162 -228c0 -84 50 -119 128 -119c70 0 124 30 168 73l22 -45c-43 -48 -112 -82 -195 -82c-121 0 -180 57 -180 166zM196 631c0 27 14 42 43 42s44 -12 44 -42c0 -27 -15 -42 -44 -42s-43 15 -43 42z
" />
    <glyph glyph-name="Agrave" unicode="&#xc0;" horiz-adv-x="623" 
d="M532 0l-63 200h-317l-63 -200h-65l251 750h74l251 -750h-68zM311 703l-23 -78l-118 -369h281l-115 369l-22 78h-3zM353 801h-48l-106 112h76z" />
    <glyph glyph-name="Aacute" unicode="&#xc1;" horiz-adv-x="623" 
d="M532 0l-63 200h-317l-63 -200h-65l251 750h74l251 -750h-68zM311 703l-23 -78l-118 -369h281l-115 369l-22 78h-3zM344 911h82l-112 -111h-49z" />
    <glyph glyph-name="Acircumflex" unicode="&#xc2;" horiz-adv-x="623" 
d="M532 0l-63 200h-317l-63 -200h-65l251 750h74l251 -750h-68zM311 703l-23 -78l-118 -369h281l-115 369l-22 78h-3zM282 912h60l109 -113h-59l-80 83l-78 -83h-58z" />
    <glyph glyph-name="Atilde" unicode="&#xc3;" horiz-adv-x="623" 
d="M532 0l-63 200h-317l-63 -200h-65l251 750h74l251 -750h-68zM311 703l-23 -78l-118 -369h281l-115 369l-22 78h-3zM215 808h-29c6 55 30 95 71 95c50 0 79 -70 115 -70c19 0 33 18 41 56l27 -1c-5 -55 -30 -95 -71 -95c-49 0 -78 70 -113 70c-20 0 -33 -22 -41 -55z" />
    <glyph glyph-name="Adieresis" unicode="&#xc4;" horiz-adv-x="623" 
d="M532 0l-63 200h-317l-63 -200h-65l251 750h74l251 -750h-68zM311 703l-23 -78l-118 -369h281l-115 369l-22 78h-3zM259 843c0 -24 -10 -35 -32 -35c-21 0 -33 9 -33 35c0 24 12 36 33 36c22 0 32 -12 32 -36zM429 843c0 -24 -11 -35 -33 -35c-21 0 -32 9 -32 35
c0 24 11 36 32 36c22 0 33 -12 33 -36z" />
    <glyph glyph-name="Aring" unicode="&#xc5;" horiz-adv-x="623" 
d="M235 801c0 40 26 69 76 69s78 -28 78 -68c0 -29 -13 -50 -37 -61l248 -741h-68l-63 200h-317l-63 -200h-65l247 740c-23 10 -36 31 -36 61zM311 703l-23 -78l-118 -369h281l-115 369l-22 78h-3zM268 800c0 -23 15 -38 44 -38s44 15 44 38c0 24 -15 39 -44 39
s-44 -16 -44 -39z" />
    <glyph glyph-name="AE" unicode="&#xc6;" horiz-adv-x="936" 
d="M881 692h-361l29 -272h278v-54h-273l33 -308h301l-2 -58h-355l-20 200h-293l-96 -200h-72l378 750h450zM460 704l-34 -74l-181 -374h260l-36 366l-6 81z" />
    <glyph glyph-name="Ccedilla" unicode="&#xc7;" horiz-adv-x="547" 
d="M269 -191l51 179c-178 9 -257 127 -257 396s90 378 284 378c56 0 120 -16 155 -34l-9 -57c-36 18 -89 32 -143 32c-151 0 -224 -74 -224 -319c0 -263 74 -338 226 -338c57 0 103 13 144 35l9 -53c-36 -20 -91 -37 -145 -40l-33 -179h-58z" />
    <glyph glyph-name="Egrave" unicode="&#xc8;" horiz-adv-x="558" 
d="M160 58h352l-2 -58h-410v750h394l2 -58h-336v-272h291v-54h-291v-308zM347 801h-48l-106 112h76z" />
    <glyph glyph-name="Eacute" unicode="&#xc9;" horiz-adv-x="558" 
d="M160 58h352l-2 -58h-410v750h394l2 -58h-336v-272h291v-54h-291v-308zM338 911h82l-112 -111h-49z" />
    <glyph glyph-name="Ecircumflex" unicode="&#xca;" horiz-adv-x="558" 
d="M160 58h352l-2 -58h-410v750h394l2 -58h-336v-272h291v-54h-291v-308zM275 912h60l109 -113h-59l-80 83l-78 -83h-58z" />
    <glyph glyph-name="Edieresis" unicode="&#xcb;" horiz-adv-x="558" 
d="M160 58h352l-2 -58h-410v750h394l2 -58h-336v-272h291v-54h-291v-308zM253 843c0 -24 -10 -35 -32 -35c-21 0 -33 9 -33 35c0 24 12 36 33 36c22 0 32 -12 32 -36zM423 843c0 -24 -11 -35 -33 -35c-21 0 -32 9 -32 35c0 24 11 36 32 36c22 0 33 -12 33 -36z" />
    <glyph glyph-name="Igrave" unicode="&#xcc;" horiz-adv-x="286" 
d="M112 0v750h62v-750h-62zM184 801h-48l-106 112h76z" />
    <glyph glyph-name="Iacute" unicode="&#xcd;" horiz-adv-x="286" 
d="M112 0v750h62v-750h-62zM175 911h82l-112 -111h-49z" />
    <glyph glyph-name="Icircumflex" unicode="&#xce;" horiz-adv-x="286" 
d="M112 0v750h62v-750h-62zM113 912h60l109 -113h-59l-80 83l-78 -83h-58z" />
    <glyph glyph-name="Idieresis" unicode="&#xcf;" horiz-adv-x="286" 
d="M112 0v750h62v-750h-62zM91 843c0 -24 -10 -35 -32 -35c-21 0 -33 9 -33 35c0 24 12 36 33 36c22 0 32 -12 32 -36zM261 843c0 -24 -11 -35 -33 -35c-21 0 -32 9 -32 35c0 24 11 36 32 36c22 0 33 -12 33 -36z" />
    <glyph glyph-name="Eth" unicode="&#xd0;" horiz-adv-x="670" 
d="M607 378c0 -279 -90 -378 -284 -378h-216v373h-72v42h72v335h214c201 0 286 -99 286 -372zM544 378c0 248 -68 312 -224 312h-153v-275h107v-42h-107v-314h154c149 0 223 62 223 319z" />
    <glyph glyph-name="Ntilde" unicode="&#xd1;" horiz-adv-x="684" 
d="M584 0h-46l-343 581l-40 71l-2 -1l1 -81v-570h-54v750h61l370 -638l2 1l-2 80l-1 557h54v-750zM252 808h-29c6 55 30 95 71 95c50 0 79 -70 115 -70c19 0 33 18 41 56l27 -1c-5 -55 -30 -95 -71 -95c-49 0 -78 70 -113 70c-20 0 -33 -22 -41 -55z" />
    <glyph glyph-name="Ograve" unicode="&#xd2;" horiz-adv-x="661" 
d="M598 375c0 -286 -72 -388 -267 -388c-193 0 -268 103 -268 388s74 387 268 387c195 0 267 -102 267 -387zM535 375c0 262 -57 328 -204 328c-146 0 -205 -66 -205 -328c0 -261 59 -329 205 -329c147 0 204 68 204 329zM390 801h-48l-106 112h76z" />
    <glyph glyph-name="Oacute" unicode="&#xd3;" horiz-adv-x="661" 
d="M598 375c0 -286 -72 -388 -267 -388c-193 0 -268 103 -268 388s74 387 268 387c195 0 267 -102 267 -387zM535 375c0 262 -57 328 -204 328c-146 0 -205 -66 -205 -328c0 -261 59 -329 205 -329c147 0 204 68 204 329zM363 911h82l-112 -111h-49z" />
    <glyph glyph-name="Ocircumflex" unicode="&#xd4;" horiz-adv-x="661" 
d="M598 375c0 -286 -72 -388 -267 -388c-193 0 -268 103 -268 388s74 387 268 387c195 0 267 -102 267 -387zM535 375c0 262 -57 328 -204 328c-146 0 -205 -66 -205 -328c0 -261 59 -329 205 -329c147 0 204 68 204 329zM301 912h60l109 -113h-59l-80 83l-78 -83h-58z" />
    <glyph glyph-name="Otilde" unicode="&#xd5;" horiz-adv-x="661" 
d="M598 375c0 -286 -72 -388 -267 -388c-193 0 -268 103 -268 388s74 387 268 387c195 0 267 -102 267 -387zM535 375c0 262 -57 328 -204 328c-146 0 -205 -66 -205 -328c0 -261 59 -329 205 -329c147 0 204 68 204 329zM234 808h-29c6 55 30 95 71 95c50 0 79 -70 115 -70
c19 0 33 18 41 56l27 -1c-5 -55 -30 -95 -71 -95c-49 0 -78 70 -113 70c-20 0 -33 -22 -41 -55z" />
    <glyph glyph-name="Odieresis" unicode="&#xd6;" horiz-adv-x="661" 
d="M598 375c0 -286 -72 -388 -267 -388c-193 0 -268 103 -268 388s74 387 268 387c195 0 267 -102 267 -387zM535 375c0 262 -57 328 -204 328c-146 0 -205 -66 -205 -328c0 -261 59 -329 205 -329c147 0 204 68 204 329zM279 843c0 -24 -10 -35 -32 -35c-21 0 -33 9 -33 35
c0 24 12 36 33 36c22 0 32 -12 32 -36zM449 843c0 -24 -11 -35 -33 -35c-21 0 -32 9 -32 35c0 24 11 36 32 36c22 0 33 -12 33 -36z" />
    <glyph glyph-name="multiply" unicode="&#xd7;" horiz-adv-x="537" 
d="M444 201l-33 -38l-141 141l-143 -141l-34 37l142 142l-142 140l35 38l142 -140l140 140l34 -38l-141 -140z" />
    <glyph glyph-name="Oslash" unicode="&#xd8;" horiz-adv-x="661" 
d="M81 -12l-32 31l57 85c-30 62 -43 150 -43 271c0 285 73 387 267 387c96 0 162 -25 204 -84l61 81l32 -30l-69 -94c27 -61 40 -146 40 -260c0 -286 -73 -388 -268 -388c-91 0 -156 23 -199 77zM126 375c0 -97 7 -167 24 -218h2l46 65l296 403c-32 59 -85 78 -164 78
c-146 0 -204 -66 -204 -328zM535 375c0 91 -8 158 -21 208l-3 1l-47 -66l-295 -399c33 -55 85 -73 162 -73c146 0 204 68 204 329z" />
    <glyph glyph-name="Ugrave" unicode="&#xd9;" horiz-adv-x="662" 
d="M577 750v-498c0 -188 -90 -265 -246 -265c-157 0 -246 77 -246 265v498h60v-497c0 -145 61 -206 186 -206s186 62 186 206v497h60zM371 801h-48l-106 112h76z" />
    <glyph glyph-name="Uacute" unicode="&#xda;" horiz-adv-x="662" 
d="M577 750v-498c0 -188 -90 -265 -246 -265c-157 0 -246 77 -246 265v498h60v-497c0 -145 61 -206 186 -206s186 62 186 206v497h60zM362 911h82l-112 -111h-49z" />
    <glyph glyph-name="Ucircumflex" unicode="&#xdb;" horiz-adv-x="662" 
d="M577 750v-498c0 -188 -90 -265 -246 -265c-157 0 -246 77 -246 265v498h60v-497c0 -145 61 -206 186 -206s186 62 186 206v497h60zM300 912h60l109 -113h-59l-80 83l-78 -83h-58z" />
    <glyph glyph-name="Udieresis" unicode="&#xdc;" horiz-adv-x="662" 
d="M577 750v-498c0 -188 -90 -265 -246 -265c-157 0 -246 77 -246 265v498h60v-497c0 -145 61 -206 186 -206s186 62 186 206v497h60zM277 843c0 -24 -10 -35 -32 -35c-21 0 -33 9 -33 35c0 24 12 36 33 36c22 0 32 -12 32 -36zM447 843c0 -24 -11 -35 -33 -35
c-21 0 -32 9 -32 35c0 24 11 36 32 36c22 0 33 -12 33 -36z" />
    <glyph glyph-name="Yacute" unicode="&#xdd;" horiz-adv-x="586" 
d="M27 750h70l164 -352l33 -74h3l32 74l163 352h67l-234 -488v-262h-61v262zM327 911h82l-112 -111h-49z" />
    <glyph glyph-name="Thorn" unicode="&#xde;" horiz-adv-x="579" 
d="M533 389c0 -155 -66 -222 -243 -222h-130v-167h-60v750h60v-141h130c173 0 243 -61 243 -220zM472 389c0 122 -53 164 -182 164h-130v-332h130c126 0 182 38 182 168z" />
    <glyph glyph-name="germandbls" unicode="&#xdf;" horiz-adv-x="565" 
d="M91 0v521c0 157 73 242 200 242c87 0 148 -53 148 -122c0 -105 -140 -168 -140 -218c0 -63 223 -93 223 -258c0 -111 -79 -173 -195 -173c-50 0 -110 12 -147 41l6 53c34 -27 83 -40 133 -40c84 0 146 39 146 118c0 139 -225 160 -225 253c0 73 146 132 146 223
c0 42 -38 72 -96 72c-93 0 -143 -63 -143 -186v-526h-56z" />
    <glyph glyph-name="agrave" unicode="&#xe0;" horiz-adv-x="514" 
d="M395 0l-5 81l-3 1c-29 -55 -91 -90 -165 -90c-97 0 -163 53 -163 185c0 114 63 176 193 176c48 0 96 -11 130 -26v80c0 112 -43 145 -136 145c-54 0 -103 -11 -149 -36l-7 50c50 25 105 38 165 38c129 0 183 -55 183 -206v-398h-43zM382 157v125c-14 11 -59 27 -121 27
c-104 0 -149 -48 -149 -132c0 -101 53 -136 125 -136c77 0 145 58 145 116zM292 669h-45l-93 139h73z" />
    <glyph glyph-name="aacute" unicode="&#xe1;" horiz-adv-x="514" 
d="M395 0l-5 81l-3 1c-29 -55 -91 -90 -165 -90c-97 0 -163 53 -163 185c0 114 63 176 193 176c48 0 96 -11 130 -26v80c0 112 -43 145 -136 145c-54 0 -103 -11 -149 -36l-7 50c50 25 105 38 165 38c129 0 183 -55 183 -206v-398h-43zM382 157v125c-14 11 -59 27 -121 27
c-104 0 -149 -48 -149 -132c0 -101 53 -136 125 -136c77 0 145 58 145 116zM281 808h72l-99 -139h-45z" />
    <glyph glyph-name="acircumflex" unicode="&#xe2;" horiz-adv-x="514" 
d="M395 0l-5 81l-3 1c-29 -55 -91 -90 -165 -90c-97 0 -163 53 -163 185c0 114 63 176 193 176c48 0 96 -11 130 -26v80c0 112 -43 145 -136 145c-54 0 -103 -11 -149 -36l-7 50c50 25 105 38 165 38c129 0 183 -55 183 -206v-398h-43zM382 157v125c-14 11 -59 27 -121 27
c-104 0 -149 -48 -149 -132c0 -101 53 -136 125 -136c77 0 145 58 145 116zM228 808h51l98 -139h-48l-75 110l-75 -110h-47z" />
    <glyph glyph-name="atilde" unicode="&#xe3;" horiz-adv-x="514" 
d="M395 0l-5 81l-3 1c-29 -55 -91 -90 -165 -90c-97 0 -163 53 -163 185c0 114 63 176 193 176c48 0 96 -11 130 -26v80c0 112 -43 145 -136 145c-54 0 -103 -11 -149 -36l-7 50c50 25 105 38 165 38c129 0 183 -55 183 -206v-398h-43zM382 157v125c-14 11 -59 27 -121 27
c-104 0 -149 -48 -149 -132c0 -101 53 -136 125 -136c77 0 145 58 145 116zM156 694l-30 1c6 62 32 103 72 103c52 0 76 -73 116 -73c19 0 34 22 41 62l30 -1c-6 -62 -33 -103 -72 -103c-51 0 -77 74 -115 74c-19 0 -34 -25 -42 -63z" />
    <glyph glyph-name="adieresis" unicode="&#xe4;" horiz-adv-x="514" 
d="M395 0l-5 81l-3 1c-29 -55 -91 -90 -165 -90c-97 0 -163 53 -163 185c0 114 63 176 193 176c48 0 96 -11 130 -26v80c0 112 -43 145 -136 145c-54 0 -103 -11 -149 -36l-7 50c50 25 105 38 165 38c129 0 183 -55 183 -206v-398h-43zM382 157v125c-14 11 -59 27 -121 27
c-104 0 -149 -48 -149 -132c0 -101 53 -136 125 -136c77 0 145 58 145 116zM224 755c0 -25 -11 -37 -33 -37c-21 0 -32 10 -32 37c0 24 11 38 32 38c22 0 33 -13 33 -38zM361 755c0 -25 -11 -37 -33 -37c-21 0 -33 10 -33 37c0 24 12 38 33 38c22 0 33 -13 33 -38z" />
    <glyph glyph-name="aring" unicode="&#xe5;" horiz-adv-x="514" 
d="M395 -2l-5 81l-3 1c-29 -55 -91 -90 -165 -90c-97 0 -163 53 -163 185c0 114 63 176 193 176c48 0 96 -11 130 -26v80c0 112 -43 145 -136 145c-54 0 -103 -11 -149 -36l-7 50c50 25 105 38 165 38c129 0 183 -55 183 -206v-398h-43zM382 155v125c-14 11 -59 27 -121 27
c-104 0 -149 -48 -149 -132c0 -101 53 -136 125 -136c77 0 145 58 145 116zM176 747c0 41 30 70 81 70s82 -29 82 -70c0 -43 -31 -71 -82 -71c-49 0 -81 27 -81 71zM208 747c0 -26 17 -44 50 -44c31 0 51 18 51 44c0 25 -19 43 -51 43c-33 0 -50 -19 -50 -43z" />
    <glyph glyph-name="ae" unicode="&#xe6;" horiz-adv-x="839" 
d="M255 602c89 0 140 -29 161 -100h2c34 67 92 100 172 100c117 0 199 -77 199 -272c0 -9 0 -21 -1 -30h-355c4 -198 60 -258 186 -258c54 0 99 15 144 41l7 -52c-44 -27 -95 -42 -158 -42c-107 0 -172 38 -202 120h-3c-26 -74 -92 -119 -179 -119c-103 0 -169 53 -169 185
c0 114 63 175 193 175c50 0 96 -11 130 -27v82c0 112 -43 145 -136 145c-54 0 -103 -11 -149 -36l-7 50c50 25 105 38 165 38zM382 175v105c-14 11 -59 27 -121 27c-104 0 -150 -48 -150 -132c0 -101 54 -136 126 -136c84 0 145 58 145 136zM433 342h305
c-2 155 -65 208 -151 208c-103 0 -150 -67 -154 -208z" />
    <glyph glyph-name="ccedilla" unicode="&#xe7;" horiz-adv-x="450" 
d="M193 -191l51 179c-129 10 -192 100 -192 316c0 207 68 297 220 297c48 0 96 -13 130 -30l-5 -53c-32 17 -73 29 -115 29c-123 0 -172 -66 -172 -242c0 -199 57 -265 170 -265c45 0 87 13 121 38l5 -50c-29 -22 -73 -38 -122 -40l-33 -179h-58z" />
    <glyph glyph-name="egrave" unicode="&#xe8;" horiz-adv-x="517" 
d="M289 -11c-169 0 -237 91 -237 328c0 190 70 285 211 285c121 0 203 -77 203 -272c0 -9 0 -21 -1 -30h-356c3 -198 59 -258 186 -258c55 0 100 14 144 40l8 -51c-45 -27 -96 -42 -158 -42zM108 342h306c-1 155 -63 208 -150 208c-105 0 -151 -67 -156 -208zM301 669h-45
l-93 139h73z" />
    <glyph glyph-name="eacute" unicode="&#xe9;" horiz-adv-x="517" 
d="M289 -11c-169 0 -237 91 -237 328c0 190 70 285 211 285c121 0 203 -77 203 -272c0 -9 0 -21 -1 -30h-356c3 -198 59 -258 186 -258c55 0 100 14 144 40l8 -51c-45 -27 -96 -42 -158 -42zM108 342h306c-1 155 -63 208 -150 208c-105 0 -151 -67 -156 -208zM290 808h72
l-99 -139h-45z" />
    <glyph glyph-name="ecircumflex" unicode="&#xea;" horiz-adv-x="517" 
d="M289 -11c-169 0 -237 91 -237 328c0 190 70 285 211 285c121 0 203 -77 203 -272c0 -9 0 -21 -1 -30h-356c3 -198 59 -258 186 -258c55 0 100 14 144 40l8 -51c-45 -27 -96 -42 -158 -42zM108 342h306c-1 155 -63 208 -150 208c-105 0 -151 -67 -156 -208zM237 808h51
l98 -139h-48l-75 110l-75 -110h-47z" />
    <glyph glyph-name="edieresis" unicode="&#xeb;" horiz-adv-x="517" 
d="M289 -11c-169 0 -237 91 -237 328c0 190 70 285 211 285c121 0 203 -77 203 -272c0 -9 0 -21 -1 -30h-356c3 -198 59 -258 186 -258c55 0 100 14 144 40l8 -51c-45 -27 -96 -42 -158 -42zM108 342h306c-1 155 -63 208 -150 208c-105 0 -151 -67 -156 -208zM222 755
c0 -25 -11 -37 -33 -37c-21 0 -32 10 -32 37c0 24 11 38 32 38c22 0 33 -13 33 -38zM359 755c0 -25 -11 -37 -33 -37c-21 0 -33 10 -33 37c0 24 12 38 33 38c22 0 33 -13 33 -38z" />
    <glyph glyph-name="igrave" unicode="&#xec;" horiz-adv-x="280" 
d="M168 0h-56v590l56 4v-594zM176 669h-45l-93 139h73z" />
    <glyph glyph-name="iacute" unicode="&#xed;" horiz-adv-x="280" 
d="M168 0h-56v590l56 4v-594zM164 808h72l-99 -139h-45z" />
    <glyph glyph-name="icircumflex" unicode="&#xee;" horiz-adv-x="280" 
d="M168 0h-56v590l56 4v-594zM112 808h51l98 -139h-48l-75 110l-75 -110h-47z" />
    <glyph glyph-name="idieresis" unicode="&#xef;" horiz-adv-x="280" 
d="M168 0h-56v590l56 4v-594zM107 755c0 -25 -11 -37 -33 -37c-21 0 -32 10 -32 37c0 24 11 38 32 38c22 0 33 -13 33 -38zM244 755c0 -25 -11 -37 -33 -37c-21 0 -33 10 -33 37c0 24 12 38 33 38c22 0 33 -13 33 -38z" />
    <glyph glyph-name="eth" unicode="&#xf0;" horiz-adv-x="549" 
d="M399 782l-71 -64c93 -99 168 -242 168 -382c0 -255 -66 -342 -219 -347c-148 -1 -225 67 -225 303c0 205 61 286 211 286c62 0 112 -19 147 -55l2 2c-27 60 -67 114 -117 163l-77 -69l-24 23l76 70c-27 24 -57 46 -89 67l37 30c28 -18 57 -40 85 -66l72 66zM109 290
c0 -203 59 -249 166 -249c110 0 164 83 164 285c-4 143 -54 201 -164 201c-118 0 -166 -59 -166 -237z" />
    <glyph glyph-name="ntilde" unicode="&#xf1;" horiz-adv-x="554" 
d="M478 0h-55v414c0 94 -50 133 -138 133c-53 0 -116 -27 -143 -76v-471h-56v591l40 4l10 -66h3c35 46 95 73 159 73c112 0 180 -60 180 -188v-414zM181 694l-30 1c6 62 32 103 72 103c52 0 76 -73 116 -73c19 0 34 22 41 62l30 -1c-6 -62 -33 -103 -72 -103
c-51 0 -77 74 -115 74c-19 0 -34 -25 -42 -63z" />
    <glyph glyph-name="ograve" unicode="&#xf2;" horiz-adv-x="548" 
d="M495 295c0 -228 -66 -308 -220 -308s-223 80 -223 308c0 226 70 307 223 307c154 0 220 -81 220 -307zM110 295c0 -193 47 -257 165 -257c117 0 163 65 163 257c0 191 -46 256 -163 256c-118 0 -165 -65 -165 -256zM313 669h-45l-93 139h73z" />
    <glyph glyph-name="oacute" unicode="&#xf3;" horiz-adv-x="548" 
d="M495 295c0 -228 -66 -308 -220 -308s-223 80 -223 308c0 226 70 307 223 307c154 0 220 -81 220 -307zM110 295c0 -193 47 -257 165 -257c117 0 163 65 163 257c0 191 -46 256 -163 256c-118 0 -165 -65 -165 -256zM302 808h72l-99 -139h-45z" />
    <glyph glyph-name="ocircumflex" unicode="&#xf4;" horiz-adv-x="548" 
d="M495 295c0 -228 -66 -308 -220 -308s-223 80 -223 308c0 226 70 307 223 307c154 0 220 -81 220 -307zM110 295c0 -193 47 -257 165 -257c117 0 163 65 163 257c0 191 -46 256 -163 256c-118 0 -165 -65 -165 -256zM249 808h51l98 -139h-48l-75 110l-75 -110h-47z" />
    <glyph glyph-name="otilde" unicode="&#xf5;" horiz-adv-x="548" 
d="M495 295c0 -228 -66 -308 -220 -308s-223 80 -223 308c0 226 70 307 223 307c154 0 220 -81 220 -307zM110 295c0 -193 47 -257 165 -257c117 0 163 65 163 257c0 191 -46 256 -163 256c-118 0 -165 -65 -165 -256zM177 694l-30 1c6 62 32 103 72 103
c52 0 76 -73 116 -73c19 0 34 22 41 62l30 -1c-6 -62 -33 -103 -72 -103c-51 0 -77 74 -115 74c-19 0 -34 -25 -42 -63z" />
    <glyph glyph-name="odieresis" unicode="&#xf6;" horiz-adv-x="548" 
d="M495 295c0 -228 -66 -308 -220 -308s-223 80 -223 308c0 226 70 307 223 307c154 0 220 -81 220 -307zM110 295c0 -193 47 -257 165 -257c117 0 163 65 163 257c0 191 -46 256 -163 256c-118 0 -165 -65 -165 -256zM238 755c0 -25 -11 -37 -33 -37c-21 0 -32 10 -32 37
c0 24 11 38 32 38c22 0 33 -13 33 -38zM375 755c0 -25 -11 -37 -33 -37c-21 0 -33 10 -33 37c0 24 12 38 33 38c22 0 33 -13 33 -38z" />
    <glyph glyph-name="divide" unicode="&#xf7;" horiz-adv-x="537" 
d="M312 487c0 -26 -16 -40 -44 -40c-26 0 -43 10 -43 40c0 27 17 41 43 41c28 0 44 -14 44 -41zM312 199c0 -27 -16 -40 -44 -40c-26 0 -43 9 -43 40c0 27 17 41 43 41c28 0 44 -14 44 -41zM476 316h-415v56h415v-56z" />
    <glyph glyph-name="oslash" unicode="&#xf8;" horiz-adv-x="548" 
d="M65 1l-27 24l46 67c-22 48 -32 114 -32 203c0 226 70 307 223 307c69 0 120 -16 156 -55l35 53l27 -25l-39 -60c28 -49 41 -121 41 -220c0 -228 -66 -308 -220 -308c-78 0 -134 20 -170 69zM438 295c0 74 -7 129 -21 170l-3 1l-48 -65l-228 -291c26 -52 71 -72 137 -72
c117 0 163 65 163 257zM109 295c0 -62 5 -111 14 -150h2l48 64l226 287c-26 39 -66 55 -124 55c-119 0 -166 -65 -166 -256z" />
    <glyph glyph-name="ugrave" unicode="&#xf9;" horiz-adv-x="545" 
d="M469 592v-415c0 -120 -64 -188 -196 -188c-133 0 -196 69 -196 188v415h55v-414c0 -90 49 -135 141 -135c91 0 140 45 140 135v414h56zM312 669h-45l-93 139h73z" />
    <glyph glyph-name="uacute" unicode="&#xfa;" horiz-adv-x="545" 
d="M469 592v-415c0 -120 -64 -188 -196 -188c-133 0 -196 69 -196 188v415h55v-414c0 -90 49 -135 141 -135c91 0 140 45 140 135v414h56zM301 808h72l-99 -139h-45z" />
    <glyph glyph-name="ucircumflex" unicode="&#xfb;" horiz-adv-x="545" 
d="M469 592v-415c0 -120 -64 -188 -196 -188c-133 0 -196 69 -196 188v415h55v-414c0 -90 49 -135 141 -135c91 0 140 45 140 135v414h56zM248 808h51l98 -139h-48l-75 110l-75 -110h-47z" />
    <glyph glyph-name="udieresis" unicode="&#xfc;" horiz-adv-x="545" 
d="M469 592v-415c0 -120 -64 -188 -196 -188c-133 0 -196 69 -196 188v415h55v-414c0 -90 49 -135 141 -135c91 0 140 45 140 135v414h56zM237 755c0 -25 -11 -37 -33 -37c-21 0 -32 10 -32 37c0 24 11 38 32 38c22 0 33 -13 33 -38zM374 755c0 -25 -11 -37 -33 -37
c-21 0 -33 10 -33 37c0 24 12 38 33 38c22 0 33 -13 33 -38z" />
    <glyph glyph-name="yacute" unicode="&#xfd;" horiz-adv-x="564" 
d="M169 -106c43 0 74 19 100 84l3 12l-233 602h66l169 -464l26 -76h3l21 78l140 462h61l-200 -617c-35 -98 -82 -128 -147 -128c-28 0 -56 7 -77 18l7 46c20 -12 41 -17 61 -17zM306 808h72l-99 -139h-45z" />
    <glyph glyph-name="thorn" unicode="&#xfe;" horiz-adv-x="564" 
d="M512 297c0 -227 -77 -308 -206 -308c-62 0 -118 20 -156 70l-2 -1l1 -81v-120h-58v942l58 3v-193l-1 -80l2 -1c37 46 95 74 164 74c125 0 198 -68 198 -305zM452 298c0 200 -54 249 -154 249c-66 0 -117 -28 -149 -79v-345c23 -44 70 -83 143 -83c96 0 160 51 160 258z
" />
    <glyph glyph-name="ydieresis" unicode="&#xff;" horiz-adv-x="564" 
d="M169 -106c43 0 74 19 100 84l3 12l-233 602h66l169 -464l26 -76h3l21 78l140 462h61l-200 -617c-35 -98 -82 -128 -147 -128c-28 0 -56 7 -77 18l7 46c20 -12 41 -17 61 -17zM247 755c0 -25 -11 -37 -33 -37c-21 0 -32 10 -32 37c0 24 11 38 32 38c22 0 33 -13 33 -38z
M384 755c0 -25 -11 -37 -33 -37c-21 0 -33 10 -33 37c0 24 12 38 33 38c22 0 33 -13 33 -38z" />
    <glyph glyph-name="dotlessi" unicode="&#x131;" horiz-adv-x="280" 
d="M168 0h-56v590l56 4v-594z" />
    <glyph glyph-name="IJ" unicode="&#x132;" horiz-adv-x="760" 
d="M113 0v750h62v-750h-62zM660 750v-527c0 -157 -79 -236 -218 -236c-58 0 -104 16 -136 41l7 57c30 -25 71 -40 123 -40c102 0 163 57 163 179v526h61z" />
    <glyph glyph-name="ij" unicode="&#x133;" horiz-adv-x="517" 
d="M165 0h-56v590l56 4v-594zM180 752c0 -28 -14 -40 -42 -40s-43 10 -43 40c0 25 15 40 43 40s42 -14 42 -40zM420 594v-613c0 -100 -48 -133 -116 -133c-19 0 -42 5 -58 12l5 44c12 -5 27 -9 41 -9c43 0 72 25 72 87v608zM434 754c0 -28 -14 -40 -43 -40
c-28 0 -43 10 -43 40c0 26 15 41 43 41c29 0 43 -15 43 -41z" />
    <glyph glyph-name="Lslash" unicode="&#x141;" horiz-adv-x="533" 
d="M179 60h330l-3 -60h-387v314l-74 -39l-5 54l79 43v378h60v-350l198 106l7 -56l-205 -107v-283z" />
    <glyph glyph-name="lslash" unicode="&#x142;" horiz-adv-x="318" 
d="M46 397l-2 53l83 49v299l56 4v-197l-2 -78l2 -2l91 54l1 -51l-92 -56v-472h-56v366l3 79l-3 1z" />
    <glyph glyph-name="OE" unicode="&#x152;" horiz-adv-x="989" 
d="M941 0h-405v113l-3 1c-35 -89 -107 -127 -212 -127c-183 0 -258 103 -258 388s74 387 258 387c104 0 177 -33 212 -116h3v104h389l2 -58h-336v-272h291v-54h-291v-308h352zM532 375c0 262 -54 328 -201 328c-146 0 -205 -66 -205 -328c0 -261 59 -329 205 -329
c147 0 201 68 201 329z" />
    <glyph glyph-name="oe" unicode="&#x153;" horiz-adv-x="908" 
d="M682 -11c-114 0 -176 40 -205 139h-3c-27 -103 -92 -141 -194 -141c-151 0 -219 80 -219 308c0 226 70 307 219 307c101 0 165 -38 193 -125h3c27 85 89 125 181 125c119 0 201 -77 201 -272c0 -9 0 -21 -1 -30h-354c3 -198 59 -258 184 -258c55 0 100 15 145 41l7 -52
c-44 -27 -96 -42 -157 -42zM118 295c0 -193 47 -257 166 -257c117 0 161 65 161 257c0 191 -44 256 -161 256c-119 0 -166 -65 -166 -256zM502 342h304c-1 155 -65 208 -150 208c-103 0 -150 -67 -154 -208z" />
    <glyph glyph-name="Scaron" unicode="&#x160;" horiz-adv-x="506" 
d="M463 204c0 -139 -77 -217 -221 -217c-77 0 -141 21 -191 55l11 57c51 -35 108 -54 179 -54c107 0 163 56 163 156c0 202 -346 123 -346 366c0 114 68 195 211 195c66 0 125 -14 171 -39l-11 -55c-49 22 -98 36 -156 36c-111 0 -156 -60 -156 -134
c0 -191 346 -112 346 -366zM303 799h-60l-107 113h58l80 -84l80 84h57z" />
    <glyph glyph-name="scaron" unicode="&#x161;" horiz-adv-x="441" 
d="M395 164c0 -110 -56 -176 -179 -176c-62 0 -121 17 -160 50l8 52c39 -33 97 -51 150 -51c90 0 129 49 129 120c0 162 -285 96 -285 289c0 97 63 154 178 154c50 0 97 -11 138 -32l-6 -51c-43 21 -89 32 -133 32c-76 0 -123 -39 -123 -100c0 -150 283 -78 283 -287z
M255 669h-51l-97 139h48l74 -111l75 111h48z" />
    <glyph glyph-name="Ydieresis" unicode="&#x178;" horiz-adv-x="586" 
d="M27 750h70l164 -352l33 -74h3l32 74l163 352h67l-234 -488v-262h-61v262zM242 843c0 -24 -10 -35 -32 -35c-21 0 -33 9 -33 35c0 24 12 36 33 36c22 0 32 -12 32 -36zM412 843c0 -24 -11 -35 -33 -35c-21 0 -32 9 -32 35c0 24 11 36 32 36c22 0 33 -12 33 -36z" />
    <glyph glyph-name="Zcaron" unicode="&#x17d;" horiz-adv-x="550" 
d="M493 0h-445v43l337 579l42 67l-2 2h-366l3 59h434v-49l-333 -573l-41 -66l1 -3h373zM306 799h-60l-107 113h58l80 -84l80 84h57z" />
    <glyph glyph-name="zcaron" unicode="&#x17e;" horiz-adv-x="486" 
d="M425 550l-257 -430l-42 -66l1 -3h301l-2 -51h-364v42l257 429l43 67l-2 2h-287l3 52h349v-42zM276 669h-51l-97 139h48l74 -111l75 111h48z" />
    <glyph glyph-name="florin" unicode="&#x192;" horiz-adv-x="359" 
d="M55 -143h-55l139 688h-57l10 47h57l11 62c16 81 66 127 150 127c26 0 53 -6 69 -12l-13 -42c-15 6 -36 10 -54 10c-53 0 -85 -29 -97 -84l-11 -61h138l-10 -47h-137z" />
    <glyph glyph-name="circumflex" unicode="&#x2c6;" 
d="M157 808h51l98 -139h-48l-75 110l-75 -110h-47z" />
    <glyph glyph-name="caron" unicode="&#x2c7;" 
d="M209 669h-51l-97 139h48l74 -111l75 111h48z" />
    <glyph glyph-name="breve" unicode="&#x2d8;" 
d="M260 808h42c0 -91 -39 -146 -119 -146s-119 51 -119 146h41c0 -74 33 -109 78 -109c46 0 77 35 77 109z" />
    <glyph glyph-name="dotaccent" unicode="&#x2d9;" 
d="M225 754c0 -28 -14 -40 -42 -40s-43 10 -43 40c0 26 15 41 43 41s42 -15 42 -41z" />
    <glyph glyph-name="ring" unicode="&#x2da;" 
d="M102 747c0 41 30 70 81 70s82 -29 82 -70c0 -43 -31 -71 -82 -71c-49 0 -81 27 -81 71zM134 747c0 -26 17 -44 50 -44c31 0 51 18 51 44c0 25 -19 43 -51 43c-33 0 -50 -19 -50 -43z" />
    <glyph glyph-name="ogonek" unicode="&#x2db;" 
d="M221 -173c-65 0 -88 35 -88 76c0 44 30 86 82 108l24 -11c-41 -20 -62 -52 -62 -86c0 -28 17 -47 57 -47c22 0 41 5 59 15l5 -33c-22 -14 -48 -22 -77 -22z" />
    <glyph glyph-name="tilde" unicode="&#x2dc;" 
d="M89 694l-30 1c6 62 32 103 72 103c52 0 76 -73 116 -73c19 0 34 22 41 62l30 -1c-6 -62 -33 -103 -72 -103c-51 0 -77 74 -115 74c-19 0 -34 -25 -42 -63z" />
    <glyph glyph-name="hungarumlaut" unicode="&#x2dd;" 
d="M177 808h66l-98 -139h-39zM307 808h66l-101 -139h-44z" />
    <glyph glyph-name="Delta" unicode="&#x394;" horiz-adv-x="683" 
d="M362 754l271 -754h-583l270 754h42zM340 680l-25 -78l-192 -548h435l-191 548l-24 78h-3z" />
    <glyph glyph-name="Omega" unicode="&#x3a9;" horiz-adv-x="663" 
d="M331 761c172 0 261 -96 261 -331c0 -140 -56 -276 -173 -374v-3h180v-53h-229v75c97 92 160 215 160 353c0 198 -61 275 -199 275s-198 -77 -198 -275c0 -138 63 -261 160 -353v-75h-229v53h179l1 3c-117 97 -173 233 -173 374c0 233 90 331 260 331z" />
    <glyph glyph-name="mu" unicode="&#x3bc;" horiz-adv-x="554" 
d="M288 -11c-61 0 -123 24 -152 87l-2 -1c2 -76 5 -149 9 -217l-57 -6v740h56v-415c0 -87 62 -136 145 -136c77 0 135 40 135 120v431h56v-591l-40 -5l-9 61l-3 1c-24 -45 -76 -69 -138 -69z" />
    <glyph glyph-name="pi" unicode="&#x3c0;" horiz-adv-x="607" 
d="M410 131v408h-215v-539h-56v540c-43 -2 -72 -10 -91 -26l-20 46c24 20 66 32 134 32h396v-52h-93v-409c0 -67 15 -87 69 -87v-47c-99 0 -124 32 -124 134z" />
    <glyph glyph-name="endash" unicode="&#x2013;" horiz-adv-x="497" 
d="M73 366h351v-46h-351v46z" />
    <glyph glyph-name="emdash" unicode="&#x2014;" horiz-adv-x="663" 
d="M73 366h517v-46h-517v46z" />
    <glyph glyph-name="quoteleft" unicode="&#x2018;" horiz-adv-x="205" 
d="M103 606c-31 0 -44 20 -44 47c0 29 33 120 58 170l22 -6l-25 -124c18 -4 32 -22 32 -41c0 -27 -13 -46 -43 -46z" />
    <glyph glyph-name="quoteright" unicode="&#x2019;" horiz-adv-x="205" 
d="M101 796c31 0 45 -19 45 -47c-1 -29 -34 -120 -60 -169l-21 5l26 124c-19 4 -33 22 -33 42c0 26 13 45 43 45z" />
    <glyph glyph-name="quotesinglbase" unicode="&#x201a;" horiz-adv-x="205" 
d="M101 77c31 0 45 -19 45 -47c-1 -29 -34 -120 -60 -169l-21 5l26 124c-19 4 -33 22 -33 42c0 26 13 45 43 45z" />
    <glyph glyph-name="quotedblleft" unicode="&#x201c;" horiz-adv-x="354" 
d="M103 606c-31 0 -44 20 -44 47c0 29 33 120 58 170l22 -6l-25 -124c18 -4 32 -22 32 -41c0 -27 -13 -46 -43 -46zM252 606c-30 0 -44 20 -44 47c0 29 34 120 60 170l20 -6l-25 -124c19 -4 32 -22 32 -41c0 -27 -12 -46 -43 -46z" />
    <glyph glyph-name="quotedblright" unicode="&#x201d;" horiz-adv-x="354" 
d="M101 796c31 0 45 -19 45 -47c-1 -29 -34 -120 -60 -169l-21 5l26 124c-19 4 -33 22 -33 42c0 26 13 45 43 45zM250 796c31 0 45 -19 45 -47c-1 -29 -34 -120 -60 -169l-21 5l26 124c-19 4 -33 22 -33 42c0 26 13 45 43 45z" />
    <glyph glyph-name="quotedblbase" unicode="&#x201e;" horiz-adv-x="354" 
d="M250 77c31 0 45 -19 45 -47c-1 -29 -34 -120 -60 -169l-21 5l26 124c-19 4 -33 22 -33 42c0 26 13 45 43 45zM101 77c31 0 45 -19 45 -47c-1 -29 -34 -120 -60 -169l-21 5l26 124c-19 4 -33 22 -33 42c0 26 13 45 43 45z" />
    <glyph glyph-name="dagger" unicode="&#x2020;" horiz-adv-x="470" 
d="M47 595l162 -4l-5 206h55l-4 -206l168 4v-57l-168 5l4 -684h-55l5 684l-162 -5v57z" />
    <glyph glyph-name="daggerdbl" unicode="&#x2021;" horiz-adv-x="470" 
d="M423 119v-57l-168 5l4 -209h-55l5 209l-162 -5v56l162 -3v428l-162 -4v56l162 -4l-5 206h55l-4 -206l168 4v-56l-168 4v-428z" />
    <glyph glyph-name="bullet" unicode="&#x2022;" horiz-adv-x="376" 
d="M70 326c0 79 37 118 116 118c78 0 115 -39 115 -118c0 -81 -37 -119 -115 -119c-79 0 -116 38 -116 119z" />
    <glyph glyph-name="ellipsis" unicode="&#x2026;" horiz-adv-x="557" 
d="M490 34c0 -28 -14 -44 -43 -44c-30 0 -45 13 -45 44c0 29 15 45 45 45c29 0 43 -16 43 -45zM327 34c0 -28 -14 -44 -43 -44c-30 0 -45 13 -45 44c0 29 15 45 45 45c29 0 43 -16 43 -45zM155 34c0 -28 -14 -44 -43 -44c-30 0 -45 13 -45 44c0 29 15 45 45 45
c29 0 43 -16 43 -45z" />
    <glyph glyph-name="perthousand" unicode="&#x2030;" horiz-adv-x="917" 
d="M300 592c0 -125 -42 -172 -124 -172c-85 0 -124 47 -124 172s35 173 124 173c81 0 124 -42 124 -173zM259 593c0 107 -28 132 -83 132c-56 0 -84 -25 -84 -132c0 -106 28 -133 84 -133c55 0 83 27 83 133zM469 743l37 -25l-354 -709l-38 25zM581 166
c0 -126 -41 -173 -123 -173c-85 0 -124 48 -124 173s35 174 124 174c81 0 123 -44 123 -174zM542 166c0 106 -28 132 -84 132s-84 -25 -84 -132c0 -106 29 -132 84 -132c56 0 84 26 84 132zM865 166c0 -126 -41 -173 -124 -173c-85 0 -124 48 -124 173s35 174 124 174
c81 0 124 -44 124 -174zM825 166c0 106 -28 132 -84 132s-84 -25 -84 -132c0 -106 29 -132 84 -132c56 0 84 26 84 132z" />
    <glyph glyph-name="guilsinglleft" unicode="&#x2039;" horiz-adv-x="379" 
d="M307 453l-196 -125l196 -125v-50l-257 172v7l257 172v-51z" />
    <glyph glyph-name="guilsinglright" unicode="&#x203a;" horiz-adv-x="379" 
d="M73 153v50l194 125l-194 125v51l256 -172v-7z" />
    <glyph glyph-name="fraction" unicode="&#x2044;" horiz-adv-x="256" 
d="M346 750h45l-462 -750h-45z" />
    <glyph glyph-name="uni2070" unicode="&#x2070;" horiz-adv-x="325" 
d="M293 697c0 -149 -38 -203 -130 -203c-93 0 -130 54 -130 203c0 152 37 202 131 202c91 0 129 -50 129 -202zM245 698c0 131 -25 159 -81 159c-59 0 -84 -28 -84 -159c0 -133 25 -162 84 -162c56 0 81 30 81 162z" />
    <glyph glyph-name="uni2074" unicode="&#x2074;" horiz-adv-x="325" 
d="M306 589h-44v-89h-45v89h-182l-4 28l172 277h59v-265h46zM218 629l1 138l2 81l-2 1l-41 -70l-50 -82l-43 -65l1 -3h132z" />
    <glyph glyph-name="uni2075" unicode="&#x2075;" horiz-adv-x="325" 
d="M288 635c0 -93 -39 -140 -127 -140c-43 0 -78 10 -106 28l9 40c28 -18 55 -27 93 -27c59 0 84 28 84 96c0 54 -27 76 -80 76c-33 0 -64 -8 -85 -19l-20 17l15 188h199l2 -42h-164l-8 -116c22 7 47 12 71 12c77 0 117 -36 117 -113z" />
    <glyph glyph-name="uni2076" unicode="&#x2076;" horiz-adv-x="325" 
d="M291 635c0 -95 -43 -140 -124 -140c-83 0 -129 46 -129 188c0 152 53 216 153 216c30 0 55 -6 80 -15l-4 -41c-23 10 -43 13 -71 13c-71 0 -106 -38 -113 -137l3 -2c24 22 57 33 91 33c77 0 114 -35 114 -115zM243 635c0 55 -23 77 -74 77c-29 0 -65 -14 -82 -39
c1 -104 24 -137 81 -137c51 0 75 31 75 99z" />
    <glyph glyph-name="uni2077" unicode="&#x2077;" horiz-adv-x="325" 
d="M291 894v-40l-153 -354h-56l157 349h-200l2 45h250z" />
    <glyph glyph-name="uni2078" unicode="&#x2078;" horiz-adv-x="325" 
d="M34 607c0 46 28 79 71 100v3c-33 15 -57 40 -57 89c0 63 34 100 116 100c78 0 113 -34 113 -100c0 -40 -21 -71 -58 -91v-2c40 -16 72 -42 72 -99c0 -76 -43 -112 -127 -112c-90 0 -130 36 -130 112zM243 604c0 55 -51 68 -100 87c-36 -20 -62 -44 -62 -85
c0 -51 22 -72 83 -72c49 0 79 20 79 70zM93 798c0 -47 42 -61 88 -77c35 20 52 43 52 75c0 44 -21 65 -69 65c-49 0 -71 -21 -71 -63z" />
    <glyph glyph-name="uni2079" unicode="&#x2079;" horiz-adv-x="325" 
d="M286 716c0 -161 -49 -221 -143 -221c-37 0 -59 6 -83 17l7 39c24 -11 44 -15 73 -15c66 0 101 41 105 162l-2 1c-21 -24 -51 -36 -86 -36c-85 0 -120 46 -120 116c0 74 39 120 120 120c89 0 129 -57 129 -183zM240 734c-1 97 -28 125 -84 125c-46 0 -75 -26 -75 -78
s25 -82 80 -82c31 0 63 12 79 35z" />
    <glyph glyph-name="uni207A" unicode="&#x207a;" horiz-adv-x="328" 
d="M288 682h-107v-108h-36v108h-106v40h106v110h36v-110h107v-40z" />
    <glyph glyph-name="uni207B" unicode="&#x207b;" horiz-adv-x="328" 
d="M287 685h-243v40h243v-40z" />
    <glyph glyph-name="uni207C" unicode="&#x207c;" horiz-adv-x="328" 
d="M286 738h-244v35h244v-35zM286 634h-244v36h244v-36z" />
    <glyph glyph-name="uni207D" unicode="&#x207d;" horiz-adv-x="185" 
d="M135 926l35 -2c-42 -72 -66 -150 -66 -242c0 -93 25 -171 66 -241l-35 -2c-47 62 -76 149 -76 243c0 100 27 176 76 244z" />
    <glyph glyph-name="uni207E" unicode="&#x207e;" horiz-adv-x="185" 
d="M15 924l36 2c49 -68 75 -144 75 -244c0 -94 -29 -181 -75 -243l-36 2c40 70 66 148 66 241c0 92 -24 170 -66 242z" />
    <glyph glyph-name="uni2080" unicode="&#x2080;" horiz-adv-x="325" 
d="M293 56c0 -149 -38 -203 -130 -203c-93 0 -130 54 -130 203c0 152 37 201 131 201c91 0 129 -49 129 -201zM245 56c0 132 -25 160 -81 160c-59 0 -84 -29 -84 -160c0 -133 25 -162 84 -162c56 0 81 30 81 162z" />
    <glyph glyph-name="uni2081" unicode="&#x2081;" horiz-adv-x="237" 
d="M174 254v-396h-49v250l3 79l-3 1l-77 -54l-5 41l101 79h30z" />
    <glyph glyph-name="uni2082" unicode="&#x2082;" horiz-adv-x="310" 
d="M275 151c0 -82 -75 -158 -174 -248v-3h178l-1 -42h-237v32c94 97 185 184 185 257c0 38 -22 67 -77 67c-37 0 -68 -15 -94 -37l-13 39c27 23 67 41 115 41c78 0 118 -40 118 -106z" />
    <glyph glyph-name="uni2083" unicode="&#x2083;" horiz-adv-x="310" 
d="M277 -24c0 -76 -41 -123 -134 -123c-49 0 -84 13 -110 29l11 39c28 -17 60 -27 99 -27c61 0 87 34 87 84c0 51 -30 72 -117 72v36c80 0 109 24 109 70c0 42 -28 60 -76 60c-40 0 -71 -13 -98 -36l-12 36c25 23 66 41 112 41c74 0 120 -32 120 -97c0 -51 -27 -78 -67 -90
v-2c49 -11 76 -38 76 -92z" />
    <glyph glyph-name="uni2084" unicode="&#x2084;" horiz-adv-x="325" 
d="M306 -53h-44v-89h-45v89h-182l-4 28l172 277h59v-265h46zM218 -13l1 138l2 81l-2 1l-41 -70l-50 -82l-43 -65l1 -3h132z" />
    <glyph glyph-name="uni2085" unicode="&#x2085;" horiz-adv-x="325" 
d="M288 -7c0 -93 -39 -140 -127 -140c-43 0 -78 10 -106 28l9 40c28 -17 55 -27 93 -27c59 0 84 28 84 96c0 54 -27 76 -80 76c-33 0 -64 -8 -85 -19l-20 17l15 188h199l2 -42h-164l-8 -116c22 8 47 12 71 12c77 0 117 -36 117 -113z" />
    <glyph glyph-name="uni2086" unicode="&#x2086;" horiz-adv-x="325" 
d="M291 -7c0 -94 -43 -140 -124 -140c-83 0 -129 46 -129 188c0 152 53 216 153 216c30 0 55 -5 80 -15l-4 -41c-23 10 -43 13 -71 13c-71 0 -106 -39 -113 -137l3 -2c24 22 57 33 91 33c77 0 114 -35 114 -115zM243 -6c0 55 -23 76 -74 76c-29 0 -65 -13 -82 -39
c1 -104 24 -136 81 -136c51 0 75 30 75 99z" />
    <glyph glyph-name="uni2087" unicode="&#x2087;" horiz-adv-x="325" 
d="M291 252v-40l-153 -354h-56l157 349h-200l2 45h250z" />
    <glyph glyph-name="uni2088" unicode="&#x2088;" horiz-adv-x="325" 
d="M34 -35c0 46 28 80 72 100v3c-34 15 -58 41 -58 90c0 62 34 99 116 99c78 0 113 -34 113 -99c0 -41 -21 -73 -58 -92v-2c39 -16 72 -41 72 -99c0 -76 -43 -112 -127 -112c-90 0 -130 36 -130 112zM243 -38c0 55 -51 68 -100 87c-36 -20 -62 -44 -62 -85
c0 -51 22 -72 83 -72c49 0 79 20 79 70zM93 156c0 -47 42 -61 88 -77c35 20 52 43 52 75c0 44 -21 65 -69 65c-49 0 -71 -21 -71 -63z" />
    <glyph glyph-name="uni2089" unicode="&#x2089;" horiz-adv-x="325" 
d="M286 74c0 -161 -49 -221 -143 -221c-37 0 -59 7 -83 17l7 39c24 -10 44 -15 73 -15c66 0 101 42 105 162l-2 1c-21 -24 -51 -36 -86 -36c-85 0 -120 46 -120 117c0 73 39 119 120 119c89 0 129 -57 129 -183zM240 92c-1 97 -28 125 -84 125c-46 0 -75 -26 -75 -78
s25 -82 80 -82c31 0 63 13 79 35z" />
    <glyph glyph-name="uni208A" unicode="&#x208a;" horiz-adv-x="328" 
d="M288 41h-107v-109h-36v109h-106v39h106v110h36v-110h107v-39z" />
    <glyph glyph-name="uni208B" unicode="&#x208b;" horiz-adv-x="328" 
d="M287 44h-243v39h243v-39z" />
    <glyph glyph-name="uni208C" unicode="&#x208c;" horiz-adv-x="328" 
d="M286 96h-244v35h244v-35zM286 -7h-244v35h244v-35z" />
    <glyph glyph-name="uni208D" unicode="&#x208d;" horiz-adv-x="185" 
d="M135 287l35 -2c-42 -72 -66 -151 -66 -242c0 -94 25 -171 66 -241l-35 -2c-47 62 -76 149 -76 243c0 100 27 175 76 244z" />
    <glyph glyph-name="uni208E" unicode="&#x208e;" horiz-adv-x="185" 
d="M15 285l36 2c49 -69 75 -144 75 -244c0 -94 -29 -181 -75 -243l-36 2c40 70 66 147 66 241c0 91 -24 170 -66 242z" />
    <glyph glyph-name="franc" unicode="&#x20a3;" horiz-adv-x="551" 
d="M22 164h86v586h393l2 -60h-335v-273h263v-57h-263v-196h89v-46h-89v-118h-60v118h-86v46z" />
    <glyph glyph-name="lira" unicode="&#x20a4;" horiz-adv-x="607" 
d="M82 408l-2 42h37c-9 34 -15 68 -15 108c0 111 61 200 233 200c65 0 124 -15 168 -38l-10 -55c-37 20 -95 36 -153 36c-125 0 -177 -64 -177 -150c0 -34 5 -67 13 -101h269v-42h-259c5 -22 11 -45 15 -69h244v-42h-239c2 -20 4 -40 4 -62c0 -85 -29 -148 -76 -182l2 -3
c61 12 121 15 204 15c70 0 138 -5 204 -12c-1 -3 -3 -55 -4 -59c-81 9 -147 14 -225 14c-87 0 -158 -4 -256 -13l-3 56c64 26 96 98 96 181c0 23 -1 45 -3 65h-65l-2 42h61l-15 69h-46z" />
    <glyph glyph-name="peseta" unicode="&#x20a7;" horiz-adv-x="716" 
d="M339 540c0 -162 -44 -217 -153 -217h-65v-323h-46v750h111c104 0 153 -45 153 -210zM291 540c0 124 -28 159 -105 159h-65v-327h65c73 0 105 31 105 168zM493 414h-59v-327c0 -40 15 -53 34 -53c7 0 13 3 19 7l2 -42c-6 -5 -20 -8 -32 -8c-43 0 -65 29 -65 95v328h-31v41
h31l8 108l34 5v-113h59v-41zM675 121c0 -93 -30 -132 -88 -132c-23 0 -47 8 -61 23l2 45c16 -16 35 -23 56 -23c36 0 52 29 52 86c0 119 -112 82 -112 224c0 72 32 118 86 118c22 0 41 -7 56 -19l-4 -44c-15 11 -32 17 -49 17c-33 0 -49 -26 -49 -71
c0 -109 111 -67 111 -224z" />
    <glyph glyph-name="Euro" unicode="&#x20ac;" horiz-adv-x="619" 
d="M445 342l-10 -40h-262c16 -186 90 -257 226 -257c58 0 116 19 165 50l7 -49c-46 -33 -113 -53 -182 -53c-176 0 -256 94 -272 309h-84v40h82c-1 15 -1 31 -1 48v24h-81v41h83c16 201 112 302 278 302c61 0 124 -14 162 -37l-13 -49c-45 21 -84 30 -141 30
c-137 0 -213 -82 -229 -246h306l-9 -41h-300v-28c0 -16 0 -30 1 -44h274z" />
    <glyph glyph-name="trademark" unicode="&#x2122;" horiz-adv-x="593" 
d="M541 515h-31v142l2 81l-3 1l-29 -76l-60 -148h-26l-61 147l-29 76l-2 -1l1 -81v-141h-32v264h47l59 -144l29 -75h3l29 75l59 144h44v-264zM231 745h-80v-230h-36v230h-81v34h197v-34z" />
    <glyph glyph-name="uni2126" unicode="&#x2126;" horiz-adv-x="663" 
d="M331 761c172 0 261 -96 261 -331c0 -140 -56 -276 -173 -374v-3h180v-53h-229v75c97 92 160 215 160 353c0 198 -61 275 -199 275s-198 -77 -198 -275c0 -138 63 -261 160 -353v-75h-229v53h179l1 3c-117 97 -173 233 -173 374c0 233 90 331 260 331z" />
    <glyph glyph-name="onethird" unicode="&#x2153;" horiz-adv-x="781" 
d="M710 118c0 -76 -40 -123 -133 -123c-49 0 -84 13 -111 29l11 39c28 -17 60 -27 99 -27c61 0 88 34 88 84c0 51 -30 72 -118 72v36c81 0 110 24 110 71c0 41 -28 59 -76 59c-41 0 -71 -13 -98 -36l-13 36c25 23 66 41 112 41c75 0 120 -32 120 -97c0 -51 -27 -78 -67 -90
v-2c49 -11 76 -38 76 -92zM589 750h45l-462 -750h-45zM244 752v-396h-49v250l3 79l-3 1l-77 -54l-5 41l101 79h30z" />
    <glyph glyph-name="twothirds" unicode="&#x2154;" horiz-adv-x="781" 
d="M293 649c0 -82 -75 -159 -174 -248v-3h178l-1 -42h-237v32c94 96 185 183 185 257c0 38 -22 67 -77 67c-37 0 -68 -16 -94 -37l-13 39c27 23 67 41 115 41c78 0 118 -40 118 -106zM598 750h45l-462 -750h-45zM712 118c0 -76 -40 -123 -133 -123c-49 0 -84 13 -111 29
l11 39c28 -17 60 -27 99 -27c61 0 88 34 88 84c0 51 -30 72 -118 72v36c81 0 110 24 110 71c0 41 -28 59 -76 59c-41 0 -71 -13 -98 -36l-13 36c25 23 66 41 112 41c75 0 120 -32 120 -97c0 -51 -27 -78 -67 -90v-2c49 -11 76 -38 76 -92z" />
    <glyph glyph-name="oneeighth" unicode="&#x215b;" horiz-adv-x="781" 
d="M249 752v-396h-49v250l3 79l-3 1l-77 -54l-5 41l101 79h30zM588 750h45l-462 -750h-45zM448 107c0 47 28 80 72 100v3c-34 15 -58 41 -58 90c0 62 34 99 116 99c78 0 113 -34 113 -99c0 -41 -21 -73 -58 -92v-2c39 -16 72 -41 72 -99c0 -76 -43 -112 -127 -112
c-90 0 -130 36 -130 112zM657 104c0 55 -51 68 -100 87c-36 -20 -62 -44 -62 -85c0 -50 22 -71 83 -71c49 0 79 19 79 69zM507 298c0 -47 42 -61 88 -77c35 20 52 43 52 75c0 44 -21 65 -69 65c-49 0 -71 -21 -71 -63z" />
    <glyph glyph-name="threeeighths" unicode="&#x215c;" horiz-adv-x="781" 
d="M308 474c0 -76 -41 -123 -134 -123c-49 0 -84 13 -110 29l11 39c28 -18 60 -27 99 -27c61 0 87 34 87 84c0 51 -30 72 -117 72v35c80 0 109 25 109 71c0 42 -28 59 -76 59c-40 0 -71 -12 -98 -35l-12 36c25 23 66 41 112 41c74 0 120 -32 120 -98c0 -50 -27 -77 -66 -89
v-2c49 -12 75 -40 75 -92zM596 750h45l-462 -750h-45zM455 107c0 47 28 80 72 100v3c-34 15 -58 41 -58 90c0 62 34 99 116 99c78 0 113 -34 113 -99c0 -41 -21 -73 -58 -92v-2c39 -16 72 -41 72 -99c0 -76 -43 -112 -127 -112c-90 0 -130 36 -130 112zM664 104
c0 55 -51 68 -100 87c-36 -20 -62 -44 -62 -85c0 -50 22 -71 83 -71c49 0 79 19 79 69zM514 298c0 -47 42 -61 88 -77c35 20 52 43 52 75c0 44 -21 65 -69 65c-49 0 -71 -21 -71 -63z" />
    <glyph glyph-name="fiveeighths" unicode="&#x215d;" horiz-adv-x="781" 
d="M341 491c0 -93 -39 -140 -127 -140c-43 0 -78 10 -106 28l9 40c28 -18 55 -27 93 -27c59 0 84 28 84 96c0 54 -27 76 -80 76c-33 0 -64 -8 -85 -19l-20 17l15 188h199l2 -42h-164l-8 -116c22 7 47 12 71 12c77 0 117 -36 117 -113zM593 750h45l-462 -750h-45zM453 107
c0 47 28 80 72 100v3c-34 15 -58 41 -58 90c0 62 34 99 116 99c78 0 113 -34 113 -99c0 -41 -21 -73 -58 -92v-2c39 -16 72 -41 72 -99c0 -76 -43 -112 -127 -112c-90 0 -130 36 -130 112zM662 104c0 55 -51 68 -100 87c-36 -20 -62 -44 -62 -85c0 -50 22 -71 83 -71
c49 0 79 19 79 69zM512 298c0 -47 42 -61 88 -77c35 20 52 43 52 75c0 44 -21 65 -69 65c-49 0 -71 -21 -71 -63z" />
    <glyph glyph-name="seveneighths" unicode="&#x215e;" horiz-adv-x="781" 
d="M371 750v-41l-153 -353h-56l157 349h-200l2 45h250zM587 750h45l-462 -750h-45zM447 107c0 47 28 80 72 100v3c-34 15 -58 41 -58 90c0 62 34 99 116 99c78 0 113 -34 113 -99c0 -41 -21 -73 -58 -92v-2c39 -16 72 -41 72 -99c0 -76 -43 -112 -127 -112
c-90 0 -130 36 -130 112zM656 104c0 55 -51 68 -100 87c-36 -20 -62 -44 -62 -85c0 -50 22 -71 83 -71c49 0 79 19 79 69zM506 298c0 -47 42 -61 88 -77c35 20 52 43 52 75c0 44 -21 65 -69 65c-49 0 -71 -21 -71 -63z" />
    <glyph glyph-name="partialdiff" unicode="&#x2202;" horiz-adv-x="566" 
d="M303 572c69 0 124 -26 156 -67l2 1c-17 138 -79 199 -189 199c-75 0 -126 -23 -169 -67l-18 42c47 46 106 77 195 77c138 0 234 -97 234 -328c0 -244 -100 -442 -272 -442c-131 0 -190 83 -190 231c0 224 93 354 251 354zM455 402c0 58 -48 123 -144 123
c-124 0 -202 -105 -202 -310c0 -120 48 -178 139 -178c137 0 207 177 207 365z" />
    <glyph glyph-name="uni2206" unicode="&#x2206;" horiz-adv-x="683" 
d="M362 754l271 -754h-583l270 754h42zM340 680l-25 -78l-192 -548h435l-191 548l-24 78h-3z" />
    <glyph glyph-name="product" unicode="&#x220f;" horiz-adv-x="665" 
d="M200 -145h-54v847l-78 6l-2 42h535l-1 -42l-79 -5v-848h-53v844h-268v-844z" />
    <glyph glyph-name="summation" unicode="&#x2211;" horiz-adv-x="626" 
d="M425 304l-219 -332l-46 -66l2 -3l80 2l334 1l-2 -51h-479v37l271 419l-271 400v39h462l3 -52h-394l-1 -2l46 -64l214 -314v-14z" />
    <glyph glyph-name="minus" unicode="&#x2212;" horiz-adv-x="537" 
d="M463 316h-388v56h388v-56z" />
    <glyph glyph-name="uni2219" unicode="&#x2219;" horiz-adv-x="251" 
d="M170 346c0 -28 -14 -44 -43 -44c-30 0 -45 13 -45 44c0 29 15 45 45 45c29 0 43 -16 43 -45z" />
    <glyph glyph-name="radical" unicode="&#x221a;" horiz-adv-x="515" 
d="M8 433v55h120l106 -345l22 -78h3l18 78l169 658h59l-212 -801h-67l-139 433h-79z" />
    <glyph glyph-name="infinity" unicode="&#x221e;" horiz-adv-x="657" 
d="M475 188c-71 0 -116 37 -149 101h-3c-27 -56 -66 -101 -141 -101c-79 0 -136 59 -136 165c0 97 49 165 136 165c69 0 115 -37 149 -101h3c27 55 65 101 141 101c78 0 136 -60 136 -167c0 -95 -50 -163 -136 -163zM183 239c70 0 97 66 127 133c-31 63 -67 97 -125 97
c-59 0 -91 -50 -91 -114c0 -74 39 -116 89 -116zM474 466c-71 0 -97 -67 -128 -135c32 -62 68 -94 126 -94c60 0 91 49 91 114c0 73 -39 115 -89 115z" />
    <glyph glyph-name="uni2224" unicode="&#x2224;" horiz-adv-x="251" 
d="M170 346c0 -28 -14 -44 -43 -44c-30 0 -45 13 -45 44c0 29 15 45 45 45c29 0 43 -16 43 -45z" />
    <glyph glyph-name="logicaland" unicode="&#x2227;" horiz-adv-x="251" 
d="M170 346c0 -28 -14 -44 -43 -44c-30 0 -45 13 -45 44c0 29 15 45 45 45c29 0 43 -16 43 -45z" />
    <glyph glyph-name="integral" unicode="&#x222b;" horiz-adv-x="282" 
d="M170 616v-583c0 -123 -53 -183 -165 -183l-1 40c75 2 108 47 108 141v586c0 118 56 181 164 182l2 -42c-68 -1 -108 -49 -108 -141z" />
    <glyph glyph-name="approxequal" unicode="&#x2248;" horiz-adv-x="590" 
d="M393 370c-69 0 -137 55 -198 55c-38 0 -67 -13 -98 -35v51c28 19 60 32 98 32c67 0 136 -55 198 -55c39 0 69 15 100 35v-49c-27 -20 -61 -34 -100 -34zM393 214c-69 0 -137 55 -198 55c-38 0 -67 -13 -98 -35v50c28 20 60 34 98 34c67 0 136 -56 198 -56
c39 0 69 14 100 35v-50c-27 -20 -61 -33 -100 -33z" />
    <glyph glyph-name="notequal" unicode="&#x2260;" horiz-adv-x="590" 
d="M380 566l39 -20l-49 -99h123v-49h-147l-55 -112h202v-49h-226l-61 -123l-40 19l51 104h-120v49h144l56 112h-200v49h224z" />
    <glyph glyph-name="lessequal" unicode="&#x2264;" horiz-adv-x="590" 
d="M483 533l-272 -121l-74 -30v-3l75 -30l271 -114v-59l-389 177v55l389 185v-60zM484 70h-385v50h385v-50z" />
    <glyph glyph-name="greaterequal" unicode="&#x2265;" horiz-adv-x="590" 
d="M94 176v59l271 114l76 30v3l-75 30l-272 121l1 60l388 -185v-55zM478 70h-384v50h384v-50z" />
    <glyph glyph-name="dotmath" unicode="&#x22c5;" horiz-adv-x="251" 
d="M170 346c0 -28 -14 -44 -43 -44c-30 0 -45 13 -45 44c0 29 15 45 45 45c29 0 43 -16 43 -45z" />
    <glyph glyph-name="lozenge" unicode="&#x25ca;" horiz-adv-x="545" 
d="M32 322l240 313l241 -313l-241 -313zM94 322l178 -231l179 231l-180 231z" />
    <glyph glyph-name="parenleft.case" horiz-adv-x="291" 
d="M235 839l51 -3c-86 -135 -137 -286 -137 -461c0 -181 55 -330 136 -461l-50 -3c-85 117 -139 283 -139 464c0 190 51 333 139 464z" />
    <glyph glyph-name="parenright.case" horiz-adv-x="291" 
d="M5 836l51 3c89 -131 139 -274 139 -464c0 -181 -54 -347 -139 -464l-50 3c82 131 136 280 136 461c0 175 -51 326 -137 461z" />
    <glyph glyph-name="hyphen.case" horiz-adv-x="374" 
d="M72 398h230v-46h-230v46z" />
    <glyph glyph-name="bracketleft.case" horiz-adv-x="286" 
d="M96 -88v925h185v-46h-133v-834h133v-45h-185z" />
    <glyph glyph-name="bracketright.case" horiz-adv-x="287" 
d="M191 837v-925h-186v45h134v834h-133v46h185z" />
    <glyph glyph-name="grave.case" 
d="M246 801h-48l-106 112h76z" />
    <glyph glyph-name="braceleft.case" horiz-adv-x="334" 
d="M223 472c0 -46 -21 -82 -58 -96v-3c37 -15 58 -51 58 -96c0 -90 -15 -147 -15 -235c0 -51 24 -82 96 -82h25v-48h-22c-112 0 -153 45 -153 123c0 90 18 154 18 243c0 44 -28 77 -76 82v29c48 5 76 37 76 82c0 89 -18 152 -18 243c0 77 41 123 153 123h22v-48h-25
c-72 0 -96 -30 -96 -82c0 -88 15 -145 15 -235z" />
    <glyph glyph-name="braceright.case" horiz-adv-x="334" 
d="M111 277c0 45 20 81 58 96v3c-38 14 -58 50 -58 96c0 90 16 147 16 235c0 52 -25 82 -97 82h-25v48h22c112 0 152 -46 152 -123c0 -91 -17 -154 -17 -243c0 -45 28 -77 77 -82v-29c-49 -5 -77 -38 -77 -82c0 -89 17 -153 17 -243c0 -78 -40 -123 -152 -123h-22v48h25
c72 0 97 31 97 82c0 88 -16 145 -16 235z" />
    <glyph glyph-name="dieresis.case" 
d="M132 843c0 -24 -10 -35 -32 -35c-21 0 -33 9 -33 35c0 24 12 36 33 36c22 0 32 -12 32 -36zM302 843c0 -24 -11 -35 -33 -35c-21 0 -32 9 -32 35c0 24 11 36 32 36c22 0 33 -12 33 -36z" />
    <glyph glyph-name="guillemotleft.case" horiz-adv-x="559" 
d="M465 499l-196 -125l196 -125v-50l-257 172v7l257 172v-51zM285 499l-196 -125l196 -125v-50l-257 172v7l257 172v-51z" />
    <glyph glyph-name="uni00AD.case" horiz-adv-x="374" 
d="M72 398h230v-46h-230v46z" />
    <glyph glyph-name="macron.case" 
d="M304 854v-35h-242v35h242z" />
    <glyph glyph-name="acute.case" 
d="M203 911h82l-112 -111h-49z" />
    <glyph glyph-name="guillemotright.case" horiz-adv-x="559" 
d="M257 199v50l194 125l-194 125v51l256 -172v-7zM78 199v50l194 125l-194 125v51l256 -172v-7z" />
    <glyph glyph-name="circumflex.case" 
d="M151 912h60l109 -113h-59l-80 83l-78 -83h-58z" />
    <glyph glyph-name="caron.case" 
d="M212 799h-60l-107 113h58l80 -84l80 84h57z" />
    <glyph glyph-name="breve.case" 
d="M271 911h45c0 -74 -43 -116 -132 -116c-87 0 -133 38 -133 116h44c0 -58 40 -80 89 -80c52 0 88 22 87 80z" />
    <glyph glyph-name="dotaccent.case" 
d="M226 844c0 -26 -13 -38 -43 -38s-43 10 -43 38c0 25 13 38 43 38s43 -12 43 -38z" />
    <glyph glyph-name="ring.case" 
d="M105 811c0 40 26 69 76 69s78 -28 78 -68c0 -42 -28 -69 -78 -69c-48 0 -76 24 -76 68zM138 810c0 -23 15 -38 44 -38s44 15 44 38c0 24 -15 39 -44 39s-44 -16 -44 -39z" />
    <glyph glyph-name="ogonek.case" 
d="M216 17l24 -17c-40 0 -66 -42 -66 -79c0 -33 18 -54 59 -54c22 0 40 4 58 15l6 -34c-22 -14 -49 -22 -78 -22c-61 0 -91 31 -91 81c0 52 33 99 88 110z" />
    <glyph glyph-name="tilde.case" 
d="M89 808h-29c6 55 30 95 71 95c50 0 79 -70 115 -70c19 0 33 18 41 56l27 -1c-5 -55 -30 -95 -71 -95c-49 0 -78 70 -113 70c-20 0 -33 -22 -41 -55z" />
    <glyph glyph-name="hungarumlaut.case" 
d="M135 912h67l-91 -113h-41zM267 912h68l-108 -113h-45z" />
    <glyph glyph-name="endash.case" horiz-adv-x="497" 
d="M73 398h351v-46h-351v46z" />
    <glyph glyph-name="emdash.case" horiz-adv-x="663" 
d="M73 398h517v-46h-517v46z" />
    <glyph glyph-name="guilsinglleft.case" horiz-adv-x="379" 
d="M307 499l-196 -125l196 -125v-50l-257 172v7l257 172v-51z" />
    <glyph glyph-name="guilsinglright.case" horiz-adv-x="379" 
d="M73 199v50l194 125l-194 125v51l256 -172v-7z" />
    <glyph glyph-name="dollar.dnom" horiz-adv-x="279" 
d="M148 462h39l-6 -78c28 -2 53 -9 75 -18l-7 -40c-28 11 -53 17 -84 17c-53 0 -71 -25 -71 -56c0 -83 174 -42 174 -169c0 -62 -35 -100 -98 -107l-2 -80h-38l4 79c-35 2 -65 11 -89 27l7 41c29 -20 59 -28 95 -28c50 0 75 23 75 64c0 88 -174 50 -174 171
c0 52 31 92 96 99z" />
    <glyph glyph-name="parenleft.dnom" horiz-adv-x="185" 
d="M135 427l35 -3c-42 -72 -66 -150 -66 -241c0 -94 25 -171 66 -241l-35 -3c-47 62 -76 149 -76 244c0 99 27 175 76 244z" />
    <glyph glyph-name="parenright.dnom" horiz-adv-x="185" 
d="M15 424l36 3c49 -69 75 -145 75 -244c0 -95 -29 -182 -75 -244l-36 3c40 70 66 147 66 241c0 91 -24 169 -66 241z" />
    <glyph glyph-name="plus.dnom" horiz-adv-x="328" 
d="M288 183h-107v-109h-36v109h-106v40h106v109h36v-109h107v-40z" />
    <glyph glyph-name="comma.dnom" horiz-adv-x="138" 
d="M68 52c23 0 33 -13 33 -35c0 -20 -22 -72 -40 -101l-17 4l16 70c-12 3 -24 15 -24 29c0 19 10 33 32 33z" />
    <glyph glyph-name="period.dnom" horiz-adv-x="138" 
d="M101 21c0 -19 -9 -30 -32 -30c-22 0 -33 9 -33 30c0 22 11 32 33 32c23 0 32 -10 32 -32z" />
    <glyph glyph-name="zero.dnom" horiz-adv-x="325" 
d="M293 198c0 -149 -38 -203 -130 -203c-93 0 -130 54 -130 203c0 152 37 201 131 201c91 0 129 -49 129 -201zM245 198c0 132 -25 160 -81 160c-59 0 -84 -28 -84 -160s25 -162 84 -162c56 0 81 30 81 162z" />
    <glyph glyph-name="one.dnom" horiz-adv-x="237" 
d="M174 396v-396h-49v251l3 79l-3 1l-77 -55l-5 41l101 79h30z" />
    <glyph glyph-name="two.dnom" horiz-adv-x="310" 
d="M275 294c0 -83 -75 -160 -174 -249v-3h178l-1 -42h-237v32c94 97 185 184 185 257c0 39 -22 67 -77 67c-37 0 -68 -15 -94 -37l-13 40c27 22 67 40 115 40c78 0 118 -40 118 -105z" />
    <glyph glyph-name="three.dnom" horiz-adv-x="310" 
d="M286 118c0 -76 -40 -123 -133 -123c-49 0 -84 13 -111 29l11 39c28 -17 60 -27 99 -27c61 0 88 34 88 84c0 51 -30 72 -118 72v36c81 0 110 24 110 71c0 41 -28 59 -76 59c-41 0 -71 -13 -98 -36l-13 36c25 23 66 41 112 41c75 0 120 -32 120 -97c0 -51 -27 -78 -67 -90
v-2c49 -11 76 -38 76 -92z" />
    <glyph glyph-name="four.dnom" horiz-adv-x="325" 
d="M306 89h-44v-89h-45v89h-182l-4 28l172 277h59v-265h46zM218 129l1 138l2 81l-2 1l-41 -70l-50 -82l-43 -65l1 -3h132z" />
    <glyph glyph-name="five.dnom" horiz-adv-x="325" 
d="M288 135c0 -93 -39 -140 -127 -140c-43 0 -78 10 -106 28l9 40c28 -17 55 -26 93 -26c59 0 84 27 84 95c0 54 -27 76 -80 76c-33 0 -64 -8 -85 -19l-20 17l15 188h199l2 -42h-164l-8 -116c22 8 47 12 71 12c77 0 117 -36 117 -113z" />
    <glyph glyph-name="six.dnom" horiz-adv-x="325" 
d="M291 135c0 -94 -43 -140 -124 -140c-83 0 -129 46 -129 188c0 152 53 216 153 216c30 0 55 -5 80 -15l-4 -41c-23 10 -43 13 -71 13c-71 0 -106 -39 -113 -137l3 -2c24 22 57 33 91 33c77 0 114 -35 114 -115zM243 136c0 55 -23 76 -74 76c-29 0 -65 -13 -82 -39
c1 -104 24 -136 81 -136c51 0 75 30 75 99z" />
    <glyph glyph-name="seven.dnom" horiz-adv-x="325" 
d="M291 394v-40l-153 -354h-56l157 349h-200l2 45h250z" />
    <glyph glyph-name="eight.dnom" horiz-adv-x="325" 
d="M34 107c0 47 28 80 72 100v3c-34 15 -58 41 -58 90c0 62 34 99 116 99c78 0 113 -34 113 -99c0 -41 -21 -73 -58 -92v-2c39 -16 72 -41 72 -99c0 -76 -43 -112 -127 -112c-90 0 -130 36 -130 112zM243 104c0 55 -51 68 -100 87c-36 -20 -62 -44 -62 -85
c0 -50 22 -71 83 -71c49 0 79 19 79 69zM93 298c0 -47 42 -61 88 -77c35 20 52 43 52 75c0 44 -21 65 -69 65c-49 0 -71 -21 -71 -63z" />
    <glyph glyph-name="nine.dnom" horiz-adv-x="325" 
d="M286 216c0 -161 -49 -221 -143 -221c-37 0 -59 7 -83 17l7 40c24 -11 44 -16 73 -16c66 0 101 41 105 162l-2 1c-21 -24 -51 -36 -86 -36c-85 0 -120 46 -120 117c0 73 39 120 120 120c89 0 129 -58 129 -184zM240 234c-1 97 -28 125 -84 125c-46 0 -75 -25 -75 -78
c0 -51 25 -82 80 -82c31 0 63 13 79 35z" />
    <glyph glyph-name="equal.dnom" horiz-adv-x="328" 
d="M286 239h-244v34h244v-34zM286 135h-244v35h244v-35z" />
    <glyph glyph-name="cent.dnom" horiz-adv-x="279" 
d="M253 366l-3 -40c-19 10 -44 15 -68 15c-73 0 -100 -35 -100 -137c0 -112 33 -149 99 -149c26 0 51 7 71 20l5 -36c-19 -13 -44 -23 -74 -26l-2 -82h-39l4 83c-76 10 -114 66 -114 190c0 117 37 173 125 179l4 79h39l-6 -79c22 -3 43 -9 59 -17z" />
    <glyph glyph-name="minus.dnom" horiz-adv-x="328" 
d="M287 186h-243v39h243v-39z" />
    <glyph glyph-name="zero.lf" horiz-adv-x="574" 
d="M522 376c0 -288 -69 -386 -235 -386c-167 0 -235 98 -235 386c0 292 68 383 236 383c165 0 234 -91 234 -383zM464 377c0 268 -56 326 -176 326c-122 0 -179 -59 -179 -326c0 -271 57 -332 179 -332c120 0 176 62 176 332z" />
    <glyph glyph-name="one.lf" horiz-adv-x="425" 
d="M297 752v-752h-60v584l2 81l-2 1l-151 -116l-7 55l185 147h33z" />
    <glyph glyph-name="two.lf" horiz-adv-x="574" 
d="M497 565c0 -159 -149 -320 -344 -505l1 -3h350l-2 -57h-428v42c176 185 363 365 363 518c0 79 -47 141 -163 141c-68 0 -132 -31 -178 -74l-18 50c48 45 121 81 204 81c138 0 215 -69 215 -193z" />
    <glyph glyph-name="three.lf" horiz-adv-x="574" 
d="M511 224c0 -140 -74 -232 -241 -232c-91 0 -152 25 -199 55l13 52c52 -34 110 -53 184 -53c130 0 186 74 186 180c0 109 -68 153 -236 153v47c156 0 218 53 218 149c0 89 -63 127 -160 127c-75 0 -132 -28 -181 -72l-17 48c44 44 115 80 201 80c131 0 211 -59 211 -179
c0 -99 -54 -151 -130 -174v-2c98 -20 151 -73 151 -179z" />
    <glyph glyph-name="four.lf" horiz-adv-x="583" 
d="M532 177h-91v-177h-54v177h-320l-5 40l306 533h73v-519h94zM388 231l2 384l3 81l-2 1l-39 -72l-224 -394h260z" />
    <glyph glyph-name="five.lf" horiz-adv-x="547" 
d="M495 256c0 -178 -75 -264 -229 -264c-79 0 -138 20 -188 55l12 54c51 -35 102 -55 171 -55c120 0 176 63 176 204c0 120 -55 166 -169 166c-65 0 -125 -18 -165 -43l-24 24l27 353h357l2 -57h-314l-19 -255c44 20 100 31 150 31c142 0 213 -67 213 -213z" />
    <glyph glyph-name="six.lf" horiz-adv-x="557" 
d="M504 256c0 -179 -75 -264 -222 -264c-149 0 -230 81 -230 356c0 292 96 410 274 410c52 0 95 -8 142 -28l-6 -54c-42 17 -80 25 -130 25c-143 0 -219 -88 -225 -308l3 -2c48 51 117 80 185 80c144 0 209 -66 209 -215zM447 257c0 117 -51 165 -162 165
c-60 0 -135 -33 -174 -86c3 -220 53 -290 171 -290c109 0 165 66 165 211z" />
    <glyph glyph-name="seven.lf" horiz-adv-x="561" 
d="M509 750v-52l-294 -698h-67l304 691h-392l3 59h446z" />
    <glyph glyph-name="eight.lf" horiz-adv-x="562" 
d="M52 199c0 96 59 161 144 200v3c-67 29 -118 75 -118 172c0 116 59 184 204 184c138 0 203 -61 203 -184c0 -81 -43 -144 -122 -182v-2c79 -30 147 -76 147 -191c0 -141 -78 -207 -228 -207c-158 0 -230 65 -230 207zM454 196c0 119 -106 145 -206 181
c-79 -39 -140 -89 -140 -179c0 -106 49 -155 175 -155c105 0 171 45 171 153zM132 572c0 -104 88 -131 179 -162c86 40 122 89 122 160c0 93 -48 136 -152 136c-101 0 -149 -45 -149 -134z" />
    <glyph glyph-name="nine.lf" horiz-adv-x="558" 
d="M505 416c0 -316 -89 -424 -260 -424c-57 0 -100 8 -148 31l9 52c43 -19 82 -28 133 -28c139 0 206 85 212 339l-2 1c-47 -48 -109 -70 -178 -70c-150 0 -219 82 -219 218c0 143 71 223 219 223c149 0 234 -103 234 -342zM449 443c-3 191 -70 261 -179 261
c-106 0 -162 -54 -162 -167c0 -106 54 -169 170 -169c67 0 128 19 171 75z" />
    <glyph glyph-name="dollar.numr" horiz-adv-x="279" 
d="M148 817h39l-6 -78c28 -2 53 -8 75 -18l-7 -39c-28 11 -53 17 -84 17c-53 0 -71 -26 -71 -56c0 -83 174 -43 174 -169c0 -63 -35 -100 -98 -107l-2 -80h-38l4 79c-35 2 -65 11 -89 27l7 41c29 -20 59 -28 95 -28c50 0 75 23 75 64c0 88 -174 49 -174 171
c0 52 31 92 96 98z" />
    <glyph glyph-name="parenleft.numr" horiz-adv-x="185" 
d="M135 782l35 -2c-42 -72 -66 -150 -66 -242c0 -93 25 -171 66 -241l-35 -2c-47 62 -76 149 -76 243c0 100 27 176 76 244z" />
    <glyph glyph-name="parenright.numr" horiz-adv-x="185" 
d="M15 780l36 2c49 -68 75 -144 75 -244c0 -94 -29 -181 -75 -243l-36 2c40 70 66 148 66 241c0 92 -24 170 -66 242z" />
    <glyph glyph-name="plus.numr" horiz-adv-x="328" 
d="M288 538h-107v-108h-36v108h-106v40h106v110h36v-110h107v-40z" />
    <glyph glyph-name="comma.numr" horiz-adv-x="138" 
d="M68 407c23 0 33 -13 33 -34s-22 -73 -40 -101l-17 4l16 70c-12 3 -24 14 -24 29c0 19 10 32 32 32z" />
    <glyph glyph-name="period.numr" horiz-adv-x="138" 
d="M101 377c0 -19 -9 -30 -32 -30c-22 0 -33 8 -33 30c0 21 11 32 33 32c23 0 32 -11 32 -32z" />
    <glyph glyph-name="zero.numr" horiz-adv-x="325" 
d="M293 553c0 -149 -38 -203 -130 -203c-93 0 -130 54 -130 203c0 152 37 202 131 202c91 0 129 -50 129 -202zM245 554c0 131 -25 159 -81 159c-59 0 -84 -28 -84 -159c0 -133 25 -162 84 -162c56 0 81 30 81 162z" />
    <glyph glyph-name="one.numr" horiz-adv-x="237" 
d="M174 752v-396h-49v250l3 79l-3 1l-77 -54l-5 41l101 79h30z" />
    <glyph glyph-name="two.numr" horiz-adv-x="310" 
d="M275 649c0 -82 -75 -159 -174 -248v-3h178l-1 -42h-237v32c94 96 185 183 185 257c0 38 -22 67 -77 67c-37 0 -68 -16 -94 -37l-13 39c27 23 67 41 115 41c78 0 118 -40 118 -106z" />
    <glyph glyph-name="three.numr" horiz-adv-x="310" 
d="M277 474c0 -76 -41 -123 -134 -123c-49 0 -84 13 -110 29l11 39c28 -18 60 -27 99 -27c61 0 87 34 87 84c0 51 -30 72 -117 72v35c80 0 109 25 109 71c0 42 -28 59 -76 59c-40 0 -71 -12 -98 -35l-12 36c25 23 66 41 112 41c74 0 120 -32 120 -98c0 -50 -27 -77 -66 -89
v-2c49 -12 75 -40 75 -92z" />
    <glyph glyph-name="four.numr" horiz-adv-x="325" 
d="M306 444h-44v-88h-45v88h-182l-4 29l172 277h59v-266h46zM218 484l1 139l2 81l-2 1l-41 -71l-50 -82l-43 -65l1 -3h132z" />
    <glyph glyph-name="five.numr" horiz-adv-x="325" 
d="M288 491c0 -93 -39 -140 -127 -140c-43 0 -78 10 -106 28l9 40c28 -18 55 -27 93 -27c59 0 84 28 84 96c0 54 -27 76 -80 76c-33 0 -64 -8 -85 -19l-20 17l15 188h199l2 -42h-164l-8 -116c22 7 47 12 71 12c77 0 117 -36 117 -113z" />
    <glyph glyph-name="six.numr" horiz-adv-x="325" 
d="M291 491c0 -95 -43 -140 -124 -140c-83 0 -129 46 -129 188c0 152 53 216 153 216c30 0 55 -6 80 -15l-4 -41c-23 10 -43 13 -71 13c-71 0 -106 -40 -113 -138l3 -2c24 22 57 34 91 34c77 0 114 -36 114 -115zM243 491c0 55 -23 77 -74 77c-29 0 -65 -14 -82 -39
c1 -104 24 -137 81 -137c51 0 75 31 75 99z" />
    <glyph glyph-name="seven.numr" horiz-adv-x="325" 
d="M291 750v-41l-153 -353h-56l157 349h-200l2 45h250z" />
    <glyph glyph-name="eight.numr" horiz-adv-x="325" 
d="M34 463c0 46 28 79 71 100v3c-33 15 -57 40 -57 89c0 63 34 100 116 100c78 0 113 -34 113 -100c0 -40 -21 -71 -58 -91v-2c40 -16 72 -42 72 -99c0 -76 -43 -112 -127 -112c-90 0 -130 36 -130 112zM243 460c0 55 -51 68 -100 87c-36 -20 -62 -44 -62 -85
c0 -51 22 -72 83 -72c49 0 79 20 79 70zM93 654c0 -47 42 -61 88 -77c35 20 52 43 52 75c0 44 -21 64 -69 64c-49 0 -71 -20 -71 -62z" />
    <glyph glyph-name="nine.numr" horiz-adv-x="325" 
d="M286 572c0 -161 -49 -221 -143 -221c-37 0 -59 6 -83 17l7 39c24 -11 44 -15 73 -15c66 0 101 41 105 162l-2 1c-21 -24 -51 -36 -86 -36c-85 0 -120 46 -120 116c0 74 39 120 120 120c89 0 129 -57 129 -183zM240 590c-1 97 -28 125 -84 125c-46 0 -75 -26 -75 -78
s25 -82 80 -82c31 0 63 12 79 35z" />
    <glyph glyph-name="equal.numr" horiz-adv-x="328" 
d="M286 594h-244v35h244v-35zM286 490h-244v36h244v-36z" />
    <glyph glyph-name="cent.numr" horiz-adv-x="279" 
d="M253 722l-3 -40c-19 9 -44 14 -68 14c-73 0 -100 -35 -100 -137c0 -112 33 -148 99 -148c26 0 51 6 71 19l5 -36c-19 -13 -44 -23 -74 -25l-2 -82h-39l4 83c-76 9 -114 65 -114 190c0 116 37 173 125 179l4 78h39l-6 -78c22 -3 43 -10 59 -17z" />
    <glyph glyph-name="minus.numr" horiz-adv-x="328" 
d="M287 541h-243v40h243v-40z" />
    <glyph glyph-name="numbersign.osf" horiz-adv-x="537" 
d="M45 251h99l24 155h-122v45h127l25 198h44l-25 -198h136l24 198h44l-25 -198h96v-45h-102l-21 -155h123v-45h-129l-25 -206h-44l26 206h-136l-25 -206h-45l25 206h-94v45zM212 406l-23 -155h135l23 155h-135z" />
    <glyph glyph-name="dollar.osf" horiz-adv-x="437" 
d="M393 164c0 -101 -47 -164 -150 -174l-6 -141h-47l6 140c-55 3 -107 19 -142 49l8 52c39 -33 97 -51 150 -51c90 0 129 49 129 120c0 162 -285 96 -285 289c0 93 58 149 164 153l8 130h45l-8 -131c39 -3 74 -14 107 -30l-6 -51c-43 21 -89 32 -133 32
c-76 0 -123 -39 -123 -100c0 -150 283 -78 283 -287z" />
    <glyph glyph-name="zero.osf" horiz-adv-x="568" 
d="M510 311c0 -232 -67 -320 -226 -320c-160 0 -226 88 -226 320c0 236 66 321 227 321c158 0 225 -85 225 -321zM454 312c0 210 -54 266 -169 266c-117 0 -172 -56 -172 -266c0 -212 55 -268 172 -268c116 0 169 57 169 268z" />
    <glyph glyph-name="one.osf" horiz-adv-x="421" 
d="M296 626v-626h-57v464l2 81l-2 1l-65 -48l-76 -53l-7 52l173 129h32z" />
    <glyph glyph-name="two.osf" horiz-adv-x="529" 
d="M461 464c0 -135 -134 -256 -320 -408v-3h327l-3 -53h-402v41c169 154 340 292 340 419c0 67 -43 117 -152 117c-63 0 -123 -26 -168 -63l-17 48c46 38 115 70 192 70c131 0 203 -63 203 -168z" />
    <glyph glyph-name="three.osf" horiz-adv-x="524" 
d="M462 157c0 -162 -131 -263 -346 -269l-5 50c204 6 298 98 298 218c0 89 -55 135 -159 135c-18 0 -44 -2 -62 -5l-3 43c154 18 199 63 199 140c0 69 -40 110 -144 110c-68 0 -123 -21 -169 -60l-16 47c40 39 113 67 189 67c129 0 191 -62 191 -157
c0 -76 -36 -128 -106 -152v-2c92 -18 133 -76 133 -165z" />
    <glyph glyph-name="four.osf" horiz-adv-x="553" 
d="M524 74h-86v-178l-51 -3v181h-343l-5 40l339 518l60 -6v-502h88zM389 124l2 369l3 81l-2 1l-43 -69l-203 -315l-44 -64l1 -3h286z" />
    <glyph glyph-name="five.osf" horiz-adv-x="513" 
d="M461 173c0 -167 -121 -277 -348 -285l-6 53c197 8 298 95 298 226c0 94 -53 141 -162 141c-64 0 -117 -17 -156 -43l-24 24l27 334h341l3 -58h-300l-12 -157l-8 -80l2 -2c42 23 94 36 143 36c133 0 202 -67 202 -189z" />
    <glyph glyph-name="six.osf" horiz-adv-x="531" 
d="M479 249c0 -175 -70 -257 -210 -257c-135 0 -217 79 -217 334c0 284 147 406 346 416l8 -52c-185 -9 -290 -112 -302 -309l3 -2c45 48 109 76 175 76c135 0 197 -63 197 -206zM425 249c0 111 -50 157 -152 157c-58 0 -128 -31 -164 -82c2 -214 58 -277 161 -277
c101 0 155 62 155 202z" />
    <glyph glyph-name="seven.osf" horiz-adv-x="524" 
d="M473 623v-49l-286 -676h-62l286 666h-363l4 59h421z" />
    <glyph glyph-name="eight.osf" horiz-adv-x="539" 
d="M52 167c0 78 51 134 126 165v3c-59 23 -102 62 -102 141c0 96 57 156 194 156c132 0 192 -55 192 -156c0 -67 -37 -119 -105 -150v-2c71 -24 130 -63 130 -156c0 -119 -75 -176 -217 -176c-152 0 -218 59 -218 175zM431 164c0 101 -105 118 -200 149
c-70 -30 -125 -74 -125 -145c0 -88 45 -127 165 -127c98 0 160 36 160 123zM129 474c0 -86 86 -106 173 -131c76 31 110 71 110 128c0 75 -40 113 -143 113s-140 -39 -140 -110z" />
    <glyph glyph-name="nine.osf" horiz-adv-x="523" 
d="M470 323c0 -296 -144 -425 -342 -433l-5 51c167 11 279 120 292 335l-2 1c-38 -51 -94 -74 -164 -74c-122 0 -197 71 -197 213c0 137 68 216 202 216c138 0 216 -86 216 -309zM414 341c-2 168 -48 236 -161 236c-95 0 -145 -54 -145 -160c0 -103 50 -161 152 -161
c67 0 124 25 154 85z" />
    <glyph glyph-name="cent.osf" horiz-adv-x="451" 
d="M402 571l-5 -53c-32 17 -73 29 -115 29c-123 0 -172 -66 -172 -242c0 -199 57 -265 170 -265c45 0 87 13 121 38l5 -50c-29 -22 -73 -38 -123 -40l-5 -139h-47l6 140c-124 12 -185 103 -185 315c0 197 62 288 199 296l8 131h46l-8 -131c39 -4 77 -15 105 -29z" />
    <glyph glyph-name="sterling.osf" horiz-adv-x="487" 
d="M55 303l-2 45h45c-11 45 -23 83 -23 133c0 96 52 175 204 175c58 0 109 -13 148 -33l-9 -49c-33 18 -83 31 -135 31c-110 0 -154 -54 -154 -127c0 -43 11 -84 21 -130h214v-45h-204c6 -30 10 -63 10 -100c0 -74 -25 -127 -67 -157l2 -3c55 10 107 14 180 14
c60 0 121 -4 177 -11l-3 -51c-71 7 -130 12 -198 12c-76 0 -139 -3 -224 -11l-2 49c55 22 83 84 83 156c0 40 -4 73 -10 102h-53z" />
    <glyph glyph-name="currency.osf" horiz-adv-x="537" 
d="M117 328c0 34 11 66 30 91l-59 60l30 34l60 -62c25 19 56 30 90 30c33 0 64 -12 89 -31l62 62l31 -33l-61 -62c18 -25 29 -56 29 -89s-10 -63 -27 -87l58 -59l-31 -34l-58 60c-26 -20 -57 -32 -92 -32s-67 11 -92 31l-59 -59l-30 33l58 58c-18 25 -28 56 -28 89zM159 329
c0 -60 48 -107 109 -107s108 47 108 107c0 58 -47 106 -108 106s-109 -48 -109 -106z" />
    <glyph glyph-name="yen.osf" horiz-adv-x="537" 
d="M123 282h102l-191 367h62l137 -283l34 -73h3l33 73l136 283h60l-186 -367h100v-36h-115v-59h115v-36h-115v-151h-57v151h-118v36h118v59h-118v36z" />
    <glyph glyph-name="franc.osf" horiz-adv-x="537" 
d="M34 145h81v504h374l1 -54h-320v-233h251v-52h-251v-165h84v-42h-84v-103h-55v103h-81v42z" />
    <glyph glyph-name="lira.osf" horiz-adv-x="537" 
d="M65 353l-2 37h33c-7 27 -12 55 -12 88c0 97 54 178 214 178c61 0 116 -13 157 -34l-9 -50c-35 19 -89 32 -144 32c-117 0 -164 -55 -164 -130c0 -29 5 -56 11 -84h253v-37h-243c5 -20 9 -40 13 -61h230v-36h-224c2 -17 3 -35 3 -53c0 -73 -25 -126 -68 -156l2 -3
c58 11 112 14 189 14c63 0 128 -4 187 -11l-3 -52c-76 7 -136 12 -208 12c-80 0 -147 -3 -236 -11l-2 49c57 23 86 85 86 155c0 20 -1 39 -3 56h-59l-1 36h55c-4 22 -9 42 -14 61h-41z" />
    <glyph glyph-name="peseta.osf" horiz-adv-x="537" 
d="M239 468c0 -148 -28 -185 -109 -185h-50v-283h-37v649h87c80 0 109 -34 109 -181zM202 468c0 117 -18 138 -72 138h-50v-283h50c50 0 72 20 72 145zM364 359h-48v-285c0 -35 12 -45 28 -45c5 0 11 3 15 6l2 -35c-6 -3 -17 -7 -26 -7c-34 0 -53 23 -53 80v286h-24v35h25
l6 92l26 5v-97h49v-35zM505 105c0 -81 -25 -113 -71 -113c-18 0 -36 7 -48 18l2 38c13 -14 27 -18 43 -18c29 0 41 23 41 75c0 103 -88 72 -88 193c0 61 26 101 71 101c17 0 31 -6 43 -15l-3 -37c-12 8 -25 13 -38 13c-27 0 -40 -23 -40 -62c0 -95 88 -59 88 -193z" />
    <glyph glyph-name="Euro.osf" horiz-adv-x="537" 
d="M497 623l-16 -49c-37 20 -84 31 -135 31c-126 0 -188 -57 -203 -192h297l-13 -39h-287c-1 -13 -1 -26 -1 -40c0 -15 0 -30 1 -43h263l-14 -37h-246c16 -155 84 -213 202 -213c53 0 105 15 146 46l5 -51c-38 -29 -98 -49 -163 -49c-150 0 -233 79 -251 267h-47v37h45
c-1 14 -1 28 -1 43c0 13 0 27 1 40h-45v39h47c18 167 97 247 253 247c61 0 121 -15 162 -37z" />
    <glyph glyph-name="exclam.sc" horiz-adv-x="266" 
d="M152 164h-41l-9 485h59zM174 28c0 -23 -13 -37 -40 -37s-40 11 -40 37c0 25 13 39 40 39s40 -14 40 -39z" />
    <glyph glyph-name="ampersand.sc" horiz-adv-x="594" 
d="M583 42l-20 -50c-44 27 -90 62 -135 100c-47 -58 -111 -102 -194 -102c-118 0 -164 76 -164 165c0 92 57 155 120 207c-34 56 -54 111 -54 157c0 83 43 140 138 140c85 0 136 -44 136 -108c0 -84 -80 -139 -155 -199c43 -61 102 -126 167 -184c30 50 51 106 59 155h46
c-5 -49 -28 -122 -68 -188c41 -35 83 -67 124 -93zM242 43c59 0 109 34 149 82c-66 61 -128 129 -174 196c-51 -45 -91 -95 -91 -162c0 -73 45 -116 116 -116zM186 519c0 -37 16 -80 43 -127c66 51 127 95 127 154c0 46 -30 68 -84 68c-51 0 -86 -33 -86 -95z" />
    <glyph glyph-name="question.sc" horiz-adv-x="447" 
d="M395 512c0 -98 -59 -162 -156 -221l-4 -126h-41l-5 148c95 64 149 112 149 192c0 73 -45 102 -119 102c-64 0 -110 -23 -153 -64l-22 44c40 42 105 73 183 73c112 0 168 -52 168 -148zM256 28c0 -23 -13 -37 -40 -37c-26 0 -40 11 -40 37c0 25 14 39 40 39
c27 0 40 -14 40 -39z" />
    <glyph glyph-name="grave.sc" 
d="M236 700h-44l-102 131h70z" />
    <glyph glyph-name="a.sc" horiz-adv-x="586" 
d="M496 0l-58 171h-293l-59 -171h-62l234 649h69l235 -649h-66zM292 602l-25 -78l-104 -301h257l-101 301l-24 78h-3z" />
    <glyph glyph-name="b.sc" horiz-adv-x="559" 
d="M508 182c0 -115 -52 -182 -190 -182h-227v649h215c117 0 176 -50 176 -159c0 -85 -38 -130 -92 -145v-2c73 -15 118 -64 118 -161zM452 186c0 89 -45 130 -137 130h-169v-265h173c85 0 133 34 133 135zM427 480c0 85 -39 116 -123 116h-158v-234h165c78 0 116 39 116 118
z" />
    <glyph glyph-name="c.sc" horiz-adv-x="506" 
d="M458 628l-9 -53c-33 17 -83 29 -134 29c-141 0 -207 -66 -207 -273c0 -220 67 -288 209 -288c53 0 97 14 134 33l9 -50c-37 -21 -94 -37 -149 -37c-181 0 -262 103 -262 342c0 230 82 328 263 328c53 0 112 -14 146 -31z" />
    <glyph glyph-name="d.sc" horiz-adv-x="605" 
d="M556 327c0 -237 -83 -327 -262 -327h-203v649h202c185 0 263 -90 263 -322zM497 327c0 207 -62 267 -204 267h-145v-539h145c137 0 204 56 204 272z" />
    <glyph glyph-name="e.sc" horiz-adv-x="519" 
d="M148 54h328l-3 -54h-382v649h368l2 -55h-313v-229h271v-50h-271v-261z" />
    <glyph glyph-name="f.sc" horiz-adv-x="497" 
d="M460 593h-311v-233h276v-54h-276v-306h-57l-1 649h367z" />
    <glyph glyph-name="g.sc" horiz-adv-x="563" 
d="M499 342v-317c-44 -22 -109 -36 -177 -36c-189 0 -273 94 -273 333c0 243 85 338 274 338c58 0 121 -13 161 -33l-8 -52c-42 18 -92 31 -151 31c-147 0 -216 -64 -216 -283c0 -209 61 -280 212 -280c49 0 91 9 125 23v276h53z" />
    <glyph glyph-name="h.sc" horiz-adv-x="628" 
d="M537 0h-58v311h-331v-311h-57v649h57v-282h331v282h58v-649z" />
    <glyph glyph-name="i.sc" horiz-adv-x="269" 
d="M105 0v649h59v-649h-59z" />
    <glyph glyph-name="j.sc" horiz-adv-x="416" 
d="M334 649v-461c0 -143 -69 -199 -172 -199c-48 0 -95 14 -124 38l7 53c29 -23 71 -38 108 -38c80 0 123 47 123 145v462h58z" />
    <glyph glyph-name="k.sc" horiz-adv-x="576" 
d="M548 0h-76l-225 314h-99v-314h-57v649h57v-284h103l214 284h70l-231 -307z" />
    <glyph glyph-name="l.sc" horiz-adv-x="480" 
d="M148 55h307l-3 -55h-361v649h57v-594z" />
    <glyph glyph-name="m.sc" horiz-adv-x="755" 
d="M91 649h67l190 -493l28 -76h3l27 76l193 493h65v-649h-52v476l2 81l-3 1l-28 -77l-186 -481h-40l-186 474l-28 76l-2 -1l1 -81v-468h-51v649z" />
    <glyph glyph-name="n.sc" horiz-adv-x="633" 
d="M542 0h-46l-311 495l-41 70l-2 -1l1 -81v-483h-52v649h56l302 -483l42 -69l2 1l-2 80l-1 471h52v-649z" />
    <glyph glyph-name="o.sc" horiz-adv-x="596" 
d="M546 324c0 -243 -67 -335 -248 -335c-179 0 -249 93 -249 335c0 243 69 335 249 335c181 0 248 -92 248 -335zM487 324c0 220 -53 281 -189 281s-190 -60 -190 -281c0 -219 54 -281 191 -281c135 0 188 62 188 281z" />
    <glyph glyph-name="p.sc" horiz-adv-x="541" 
d="M494 457c0 -134 -59 -194 -205 -194h-141v-263h-57v649h198c143 0 205 -56 205 -192zM435 457c0 103 -45 140 -146 140h-141v-284h141c100 0 146 32 146 144z" />
    <glyph glyph-name="q.sc" horiz-adv-x="612" 
d="M554 324c0 -217 -54 -313 -193 -329l-1 -2l147 -110l-66 -15l-150 121c-168 5 -234 99 -234 335c0 243 69 335 249 335c181 0 248 -92 248 -335zM495 324c0 220 -53 281 -189 281s-190 -60 -190 -281c0 -219 54 -281 191 -281c135 0 188 62 188 281z" />
    <glyph glyph-name="r.sc" horiz-adv-x="555" 
d="M476 473c0 -104 -46 -159 -131 -171l173 -302h-71l-158 291h-141v-291h-57v649h200c128 0 185 -57 185 -176zM417 471c0 91 -36 126 -126 126h-143v-258h140c91 0 129 37 129 132z" />
    <glyph glyph-name="s.sc" horiz-adv-x="478" 
d="M433 179c0 -120 -71 -190 -204 -190c-72 0 -131 18 -178 49l11 53c49 -33 101 -50 167 -50c98 0 149 50 149 134c0 173 -320 98 -320 313c0 97 62 171 195 171c60 0 116 -12 159 -35l-10 -51c-48 20 -92 32 -147 32c-102 0 -142 -52 -142 -114c0 -164 320 -87 320 -312z
" />
    <glyph glyph-name="t.sc" horiz-adv-x="480" 
d="M465 594h-196v-594h-58v594h-195l1 55h446z" />
    <glyph glyph-name="u.sc" horiz-adv-x="621" 
d="M540 649v-421c0 -170 -84 -239 -229 -239c-146 0 -230 69 -230 239v421h58v-420c0 -129 56 -185 172 -185c115 0 172 57 172 185v420h57z" />
    <glyph glyph-name="v.sc" horiz-adv-x="576" 
d="M485 649h62l-225 -649h-67l-226 649h65l170 -519l24 -77h3l23 77z" />
    <glyph glyph-name="w.sc" horiz-adv-x="836" 
d="M387 649h64l125 -513l18 -79h3l15 79l111 513h58l-151 -649h-72l-122 511l-16 80h-3l-17 -80l-122 -511h-72l-152 649h61l111 -516l16 -79h3l17 79z" />
    <glyph glyph-name="x.sc" horiz-adv-x="581" 
d="M523 649l-191 -312l206 -337h-70l-179 302l-175 -302h-71l201 337l-193 312h73l165 -276l165 276h69z" />
    <glyph glyph-name="y.sc" horiz-adv-x="554" 
d="M29 649h68l147 -296l34 -73h3l33 73l146 296h65l-216 -422v-227h-61v227z" />
    <glyph glyph-name="z.sc" horiz-adv-x="519" 
d="M464 0h-416v40l306 486l44 66l-1 2h-338l3 55h403v-46l-303 -480l-44 -65l1 -3h347z" />
    <glyph glyph-name="exclamdown.sc" horiz-adv-x="273" 
d="M115 467h44l8 -562h-61zM92 623c0 26 14 40 44 40c28 0 43 -12 43 -40s-15 -42 -43 -42c-30 0 -44 14 -44 42z" />
    <glyph glyph-name="dieresis.sc" 
d="M147 773c0 -24 -10 -34 -31 -34s-32 9 -32 34c0 22 11 33 32 33s31 -11 31 -33zM286 773c0 -24 -11 -34 -32 -34s-32 9 -32 34c0 22 11 33 32 33s32 -11 32 -33z" />
    <glyph glyph-name="macron.sc" 
d="M306 771v-37h-241v37h241z" />
    <glyph glyph-name="acute.sc" 
d="M231 831h75l-118 -131h-49z" />
    <glyph glyph-name="cedilla.sc" 
d="M127 -191l55 191h39l-36 -191h-58z" />
    <glyph glyph-name="questiondown.sc" horiz-adv-x="476" 
d="M53 66c0 113 62 186 167 257l3 143h45l4 -165c-102 -78 -162 -136 -162 -228c0 -84 50 -119 128 -119c70 0 124 30 168 73l22 -45c-43 -48 -112 -82 -195 -82c-121 0 -180 57 -180 166zM201 622c0 27 14 42 43 42s44 -12 44 -42c0 -27 -15 -42 -44 -42s-43 15 -43 42z
" />
    <glyph glyph-name="germandbls.sc" horiz-adv-x="700" 
d="M563 395l-216 -215l-215 215l215 216zM552 395l-205 205l-51 -51l51 -51l-102 -103l51 -51l103 103l51 -52l-103 -102l52 -51z" />
    <glyph glyph-name="agrave.sc" horiz-adv-x="586" 
d="M496 0l-58 171h-293l-59 -171h-62l234 649h69l235 -649h-66zM292 602l-25 -78l-104 -301h257l-101 301l-24 78h-3zM342 700h-44l-102 131h70z" />
    <glyph glyph-name="aacute.sc" horiz-adv-x="586" 
d="M496 0l-58 171h-293l-59 -171h-62l234 649h69l235 -649h-66zM292 602l-25 -78l-104 -301h257l-101 301l-24 78h-3zM338 831h75l-118 -131h-49z" />
    <glyph glyph-name="acircumflex.sc" horiz-adv-x="586" 
d="M496 0l-58 171h-293l-59 -171h-62l234 649h69l235 -649h-66zM292 602l-25 -78l-104 -301h257l-101 301l-24 78h-3zM267 831h51l97 -131h-49l-74 106l-73 -106h-48z" />
    <glyph glyph-name="atilde.sc" horiz-adv-x="586" 
d="M496 0l-58 171h-293l-59 -171h-62l234 649h69l235 -649h-66zM292 602l-25 -78l-104 -301h257l-101 301l-24 78h-3zM198 738h-29c6 47 31 84 70 84c51 0 73 -61 112 -61c18 0 33 16 41 47h29c-6 -46 -31 -83 -71 -83c-49 0 -74 60 -111 60c-18 0 -33 -17 -41 -47z" />
    <glyph glyph-name="adieresis.sc" horiz-adv-x="586" 
d="M496 0l-58 171h-293l-59 -171h-62l234 649h69l235 -649h-66zM292 602l-25 -78l-104 -301h257l-101 301l-24 78h-3zM255 773c0 -24 -10 -34 -31 -34s-32 9 -32 34c0 22 11 33 32 33s31 -11 31 -33zM394 773c0 -24 -11 -34 -32 -34s-32 9 -32 34c0 22 11 33 32 33
s32 -11 32 -33z" />
    <glyph glyph-name="aring.sc" horiz-adv-x="586" 
d="M210 711c0 42 30 72 83 72c52 0 84 -31 84 -72c0 -33 -18 -57 -48 -68l233 -643h-66l-58 171h-293l-59 -171h-62l232 644c-29 10 -46 33 -46 67zM292 602l-25 -78l-104 -301h257l-101 301l-24 78h-3zM243 711c0 -26 18 -44 51 -44c32 0 51 17 51 44c0 26 -19 44 -51 44
c-33 0 -51 -19 -51 -44z" />
    <glyph glyph-name="ae.sc" horiz-adv-x="845" 
d="M793 594h-331l26 -229h257v-50h-251l29 -261h277l-1 -54h-330l-19 171h-271l-88 -171h-70l349 649h421zM401 603l-36 -73l-159 -307h238l-33 298l-7 81z" />
    <glyph glyph-name="ccedilla.sc" horiz-adv-x="506" 
d="M236 -191l52 181c-165 8 -239 112 -239 341c0 230 82 328 263 328c53 0 112 -14 146 -31l-9 -53c-33 17 -83 29 -134 29c-141 0 -207 -66 -207 -273c0 -220 67 -288 209 -288c53 0 97 14 134 33l9 -50c-33 -19 -83 -33 -132 -36l-34 -181h-58z" />
    <glyph glyph-name="egrave.sc" horiz-adv-x="519" 
d="M148 54h328l-3 -54h-382v649h368l2 -55h-313v-229h271v-50h-271v-261zM334 700h-44l-102 131h70z" />
    <glyph glyph-name="eacute.sc" horiz-adv-x="519" 
d="M148 54h328l-3 -54h-382v649h368l2 -55h-313v-229h271v-50h-271v-261zM331 831h75l-118 -131h-49z" />
    <glyph glyph-name="ecircumflex.sc" horiz-adv-x="519" 
d="M148 54h328l-3 -54h-382v649h368l2 -55h-313v-229h271v-50h-271v-261zM259 831h51l97 -131h-49l-74 106l-73 -106h-48z" />
    <glyph glyph-name="edieresis.sc" horiz-adv-x="519" 
d="M148 54h328l-3 -54h-382v649h368l2 -55h-313v-229h271v-50h-271v-261zM248 773c0 -24 -10 -34 -31 -34s-32 9 -32 34c0 22 11 33 32 33s31 -11 31 -33zM387 773c0 -24 -11 -34 -32 -34s-32 9 -32 34c0 22 11 33 32 33s32 -11 32 -33z" />
    <glyph glyph-name="igrave.sc" horiz-adv-x="269" 
d="M105 0v649h59v-649h-59zM182 700h-44l-102 131h70z" />
    <glyph glyph-name="iacute.sc" horiz-adv-x="269" 
d="M105 0v649h59v-649h-59zM178 831h75l-118 -131h-49z" />
    <glyph glyph-name="icircumflex.sc" horiz-adv-x="269" 
d="M105 0v649h59v-649h-59zM107 831h51l97 -131h-49l-74 106l-73 -106h-48z" />
    <glyph glyph-name="idieresis.sc" horiz-adv-x="269" 
d="M105 0v649h59v-649h-59zM96 773c0 -24 -10 -34 -31 -34s-32 9 -32 34c0 22 11 33 32 33s31 -11 31 -33zM235 773c0 -24 -11 -34 -32 -34s-32 9 -32 34c0 22 11 33 32 33s32 -11 32 -33z" />
    <glyph glyph-name="eth.sc" horiz-adv-x="612" 
d="M563 327c0 -237 -83 -327 -262 -327h-203v320h-81v44h81v285h202c185 0 263 -90 263 -322zM504 327c0 207 -62 267 -204 267h-145v-230h132v-44h-132v-265h145c137 0 204 56 204 272z" />
    <glyph glyph-name="ntilde.sc" horiz-adv-x="633" 
d="M542 0h-46l-311 495l-41 70l-2 -1l1 -81v-483h-52v649h56l302 -483l42 -69l2 1l-2 80l-1 471h52v-649zM220 738h-29c6 47 31 84 70 84c51 0 73 -61 112 -61c18 0 33 16 41 47h29c-6 -46 -31 -83 -71 -83c-49 0 -74 60 -111 60c-18 0 -33 -17 -41 -47z" />
    <glyph glyph-name="ograve.sc" horiz-adv-x="596" 
d="M546 324c0 -243 -67 -335 -248 -335c-179 0 -249 93 -249 335c0 243 69 335 249 335c181 0 248 -92 248 -335zM487 324c0 220 -53 281 -189 281s-190 -60 -190 -281c0 -219 54 -281 191 -281c135 0 188 62 188 281zM348 700h-44l-102 131h70z" />
    <glyph glyph-name="oacute.sc" horiz-adv-x="596" 
d="M546 324c0 -243 -67 -335 -248 -335c-179 0 -249 93 -249 335c0 243 69 335 249 335c181 0 248 -92 248 -335zM487 324c0 220 -53 281 -189 281s-190 -60 -190 -281c0 -219 54 -281 191 -281c135 0 188 62 188 281zM344 831h75l-118 -131h-49z" />
    <glyph glyph-name="ocircumflex.sc" horiz-adv-x="596" 
d="M546 324c0 -243 -67 -335 -248 -335c-179 0 -249 93 -249 335c0 243 69 335 249 335c181 0 248 -92 248 -335zM487 324c0 220 -53 281 -189 281s-190 -60 -190 -281c0 -219 54 -281 191 -281c135 0 188 62 188 281zM273 831h51l97 -131h-49l-74 106l-73 -106h-48z" />
    <glyph glyph-name="otilde.sc" horiz-adv-x="596" 
d="M546 324c0 -243 -67 -335 -248 -335c-179 0 -249 93 -249 335c0 243 69 335 249 335c181 0 248 -92 248 -335zM487 324c0 220 -53 281 -189 281s-190 -60 -190 -281c0 -219 54 -281 191 -281c135 0 188 62 188 281zM204 738h-29c6 47 31 84 70 84c51 0 73 -61 112 -61
c18 0 33 16 41 47h29c-6 -46 -31 -83 -71 -83c-49 0 -74 60 -111 60c-18 0 -33 -17 -41 -47z" />
    <glyph glyph-name="odieresis.sc" horiz-adv-x="596" 
d="M546 324c0 -243 -67 -335 -248 -335c-179 0 -249 93 -249 335c0 243 69 335 249 335c181 0 248 -92 248 -335zM487 324c0 220 -53 281 -189 281s-190 -60 -190 -281c0 -219 54 -281 191 -281c135 0 188 62 188 281zM261 773c0 -24 -10 -34 -31 -34s-32 9 -32 34
c0 22 11 33 32 33s31 -11 31 -33zM400 773c0 -24 -11 -34 -32 -34s-32 9 -32 34c0 22 11 33 32 33s32 -11 32 -33z" />
    <glyph glyph-name="oslash.sc" horiz-adv-x="596" 
d="M70 -12l-28 27l51 73c-30 54 -44 131 -44 236c0 243 70 335 251 335c81 0 139 -19 179 -62l51 67l28 -27l-55 -73c31 -53 43 -132 43 -240c0 -243 -66 -335 -246 -335c-84 0 -144 20 -184 65zM487 324c0 88 -7 151 -26 194l-311 -413c30 -46 79 -62 150 -62
c135 0 187 62 187 281zM108 324c0 -84 9 -145 26 -189h2l47 65l261 348c-30 42 -77 57 -144 57c-137 0 -192 -60 -192 -281z" />
    <glyph glyph-name="ugrave.sc" horiz-adv-x="621" 
d="M540 649v-421c0 -170 -84 -239 -229 -239c-146 0 -230 69 -230 239v421h58v-420c0 -129 56 -185 172 -185c115 0 172 57 172 185v420h57zM360 700h-44l-102 131h70z" />
    <glyph glyph-name="uacute.sc" horiz-adv-x="621" 
d="M540 649v-421c0 -170 -84 -239 -229 -239c-146 0 -230 69 -230 239v421h58v-420c0 -129 56 -185 172 -185c115 0 172 57 172 185v420h57zM356 831h75l-118 -131h-49z" />
    <glyph glyph-name="ucircumflex.sc" horiz-adv-x="621" 
d="M540 649v-421c0 -170 -84 -239 -229 -239c-146 0 -230 69 -230 239v421h58v-420c0 -129 56 -185 172 -185c115 0 172 57 172 185v420h57zM285 831h51l97 -131h-49l-74 106l-73 -106h-48z" />
    <glyph glyph-name="udieresis.sc" horiz-adv-x="621" 
d="M540 649v-421c0 -170 -84 -239 -229 -239c-146 0 -230 69 -230 239v421h58v-420c0 -129 56 -185 172 -185c115 0 172 57 172 185v420h57zM273 773c0 -24 -10 -34 -31 -34s-32 9 -32 34c0 22 11 33 32 33s31 -11 31 -33zM412 773c0 -24 -11 -34 -32 -34s-32 9 -32 34
c0 22 11 33 32 33s32 -11 32 -33z" />
    <glyph glyph-name="yacute.sc" horiz-adv-x="554" 
d="M29 649h68l147 -296l34 -73h3l33 73l146 296h65l-216 -422v-227h-61v227zM323 831h75l-118 -131h-49z" />
    <glyph glyph-name="thorn.sc" horiz-adv-x="548" 
d="M494 336c0 -133 -61 -195 -225 -195h-121v-141h-57v649h57v-121h121c161 0 225 -56 225 -192zM435 336c0 103 -48 140 -166 140h-121v-285h121c116 0 166 35 166 145z" />
    <glyph glyph-name="ydieresis.sc" horiz-adv-x="554" 
d="M29 649h68l147 -296l34 -73h3l33 73l146 296h65l-216 -422v-227h-61v227zM241 773c0 -24 -10 -34 -31 -34s-32 9 -32 34c0 22 11 33 32 33s31 -11 31 -33zM380 773c0 -24 -11 -34 -32 -34s-32 9 -32 34c0 22 11 33 32 33s32 -11 32 -33z" />
    <glyph glyph-name="dotlessi.sc" horiz-adv-x="269" 
d="M105 0v649h59v-649h-59z" />
    <glyph glyph-name="ij.sc" horiz-adv-x="677" 
d="M595 649v-461c0 -143 -69 -199 -172 -199c-48 0 -95 14 -124 38l7 53c29 -23 71 -38 108 -38c80 0 123 47 123 145v462h58zM105 0v649h59v-649h-59z" />
    <glyph glyph-name="lslash.sc" horiz-adv-x="491" 
d="M159 55h307l-3 -55h-361v291l-65 -35l-4 52l69 36v305h57v-277l188 100l6 -53l-194 -102v-262z" />
    <glyph glyph-name="oe.sc" horiz-adv-x="906" 
d="M861 0h-374v101l-3 1c-32 -78 -100 -113 -196 -113c-170 0 -239 92 -239 335c0 244 69 335 239 335c96 0 165 -30 196 -104h3v94h360l2 -55h-309v-229h266v-50h-266v-261h323zM483 324c0 220 -50 280 -186 280s-189 -59 -189 -280c0 -219 53 -281 189 -281
c135 0 186 62 186 281z" />
    <glyph glyph-name="scaron.sc" horiz-adv-x="478" 
d="M433 179c0 -120 -71 -190 -204 -190c-72 0 -131 18 -178 49l11 53c49 -33 101 -50 167 -50c98 0 149 50 149 134c0 173 -320 98 -320 313c0 97 62 171 195 171c60 0 116 -12 159 -35l-10 -51c-48 20 -92 32 -147 32c-102 0 -142 -52 -142 -114c0 -164 320 -87 320 -312z
M276 700h-51l-97 131h50l72 -105l73 105h50z" />
    <glyph glyph-name="zcaron.sc" horiz-adv-x="519" 
d="M464 0h-416v40l306 486l44 66l-1 2h-338l3 55h403v-46l-303 -480l-44 -65l1 -3h347zM285 700h-51l-97 131h50l72 -105l73 105h50z" />
    <glyph glyph-name="circumflex.sc" 
d="M157 831h51l97 -131h-49l-74 106l-73 -106h-48z" />
    <glyph glyph-name="caron.sc" 
d="M209 700h-51l-97 131h50l72 -105l73 105h50z" />
    <glyph glyph-name="breve.sc" 
d="M259 831h42c0 -85 -39 -135 -118 -135c-80 0 -119 47 -119 135h41c0 -69 32 -101 78 -101c45 0 76 33 76 101z" />
    <glyph glyph-name="dotaccent.sc" 
d="M223 769c0 -26 -13 -38 -40 -38c-26 0 -41 9 -41 38c0 24 15 37 41 37c27 0 40 -13 40 -37z" />
    <glyph glyph-name="ring.sc" 
d="M100 753c0 42 30 72 83 72c52 0 84 -31 84 -72c0 -44 -32 -73 -84 -73c-51 0 -83 27 -83 73zM132 753c0 -26 19 -44 52 -44c32 0 51 17 51 44c0 26 -19 44 -51 44c-33 0 -52 -19 -52 -44z" />
    <glyph glyph-name="ogonek.sc" 
d="M219 16l21 -16c-40 0 -66 -42 -66 -79c0 -33 18 -54 59 -54c22 0 40 4 58 15l6 -34c-22 -14 -49 -22 -78 -22c-61 0 -91 31 -91 80c0 53 35 99 91 110z" />
    <glyph glyph-name="tilde.sc" 
d="M88 738h-29c6 47 31 84 70 84c51 0 73 -61 112 -61c18 0 33 16 41 47h29c-6 -46 -31 -83 -71 -83c-49 0 -74 60 -111 60c-18 0 -33 -17 -41 -47z" />
    <glyph glyph-name="hungarumlaut.sc" 
d="M183 831h63l-102 -131h-39zM312 831h63l-106 -131h-43z" />
    <glyph glyph-name="fi.sc" horiz-adv-x="700" 
d="M563 395l-216 -215l-215 215l215 216zM552 395l-205 205l-51 -51l51 -51l-102 -103l51 -51l103 103l51 -52l-103 -102l52 -51z" />
    <glyph glyph-name="fl.sc" horiz-adv-x="700" 
d="M563 395l-216 -215l-215 215l215 216zM552 395l-205 205l-51 -51l51 -51l-102 -103l51 -51l103 103l51 -52l-103 -102l52 -51z" />
    <glyph glyph-name="dollar.subs" horiz-adv-x="279" 
d="M148 320h39l-6 -78c28 -2 53 -9 75 -18l-7 -40c-28 11 -53 17 -84 17c-53 0 -71 -26 -71 -56c0 -83 174 -43 174 -169c0 -61 -35 -100 -98 -107l-2 -80h-38l4 80c-35 2 -65 11 -89 26l7 41c29 -20 59 -28 95 -28c50 0 75 23 75 64c0 88 -174 50 -174 171
c0 52 31 92 96 99z" />
    <glyph glyph-name="comma.subs" horiz-adv-x="138" 
d="M68 -90c23 0 33 -14 33 -35c0 -20 -22 -72 -40 -101l-17 4l16 70c-12 3 -24 15 -24 29c0 19 10 33 32 33z" />
    <glyph glyph-name="period.subs" horiz-adv-x="138" 
d="M101 -121c0 -19 -9 -30 -32 -30c-22 0 -33 8 -33 30s11 32 33 32c23 0 32 -10 32 -32z" />
    <glyph glyph-name="cent.subs" horiz-adv-x="279" 
d="M253 224l-3 -40c-19 9 -44 15 -69 15c-72 0 -99 -35 -99 -137c0 -112 33 -149 99 -149c26 0 51 7 71 20l5 -37c-19 -12 -44 -22 -75 -24l-1 -83h-39l4 84c-76 9 -114 65 -114 189c0 116 37 173 124 179l5 79h38l-5 -79c22 -3 43 -9 59 -17z" />
    <glyph glyph-name="dollar.sups" horiz-adv-x="279" 
d="M148 961h39l-6 -78c28 -2 53 -8 75 -18l-7 -39c-28 11 -53 17 -84 17c-53 0 -71 -26 -71 -56c0 -83 174 -43 174 -169c0 -63 -35 -100 -98 -107l-2 -80h-38l4 79c-35 2 -65 11 -89 27l7 41c29 -20 59 -28 95 -28c50 0 75 23 75 64c0 88 -174 49 -174 171
c0 52 31 92 96 98z" />
    <glyph glyph-name="comma.sups" horiz-adv-x="138" 
d="M68 551c23 0 33 -13 33 -34s-22 -73 -40 -101l-17 4l16 70c-12 3 -24 15 -24 29c0 19 10 32 32 32z" />
    <glyph glyph-name="period.sups" horiz-adv-x="138" 
d="M101 521c0 -19 -9 -30 -32 -30c-22 0 -33 8 -33 30c0 21 11 32 33 32c23 0 32 -11 32 -32z" />
    <glyph glyph-name="cent.sups" horiz-adv-x="279" 
d="M253 866l-3 -40c-19 9 -44 14 -69 14c-72 0 -99 -35 -99 -136c0 -113 33 -149 99 -149c26 0 51 6 71 20l5 -37c-19 -13 -44 -23 -75 -25l-1 -82h-39l4 83c-76 9 -114 65 -114 190c0 116 37 173 124 179l5 79h38l-5 -79c22 -3 43 -9 59 -17z" />
    <glyph glyph-name="numbersign.tf" horiz-adv-x="590" 
d="M63 288h116l26 183h-141v47h146l28 232h44l-27 -232h117l28 232h44l-29 -232h112v-47h-117l-25 -183h141v-48h-146l-29 -240h-44l30 240h-119l-28 -240h-45l29 240h-111v48zM249 471l-25 -183h117l26 183h-118z" />
    <glyph glyph-name="dollar.tf" horiz-adv-x="590" 
d="M279 -86l-35 3l5 71c-64 5 -127 23 -168 50c3 22 4 38 8 60c46 -30 103 -51 164 -56l25 325c-97 40 -196 82 -196 205c0 120 82 187 225 189l5 64l38 -2l-5 -63c57 -5 107 -20 134 -34l-6 -56c-41 18 -85 29 -133 33l-22 -284c96 -39 194 -87 194 -224
c0 -145 -75 -206 -228 -208zM465 188c0 91 -71 130 -152 164l-25 -311c118 1 177 47 177 147zM134 574c0 -79 69 -110 149 -142l20 273c-116 -1 -169 -55 -169 -131z" />
    <glyph glyph-name="cent.tf" horiz-adv-x="590" 
d="M456 571l-5 -53c-32 17 -73 29 -115 29c-123 0 -172 -66 -172 -242c0 -199 57 -265 170 -265c45 0 87 13 121 38l5 -50c-28 -22 -71 -37 -120 -40l-6 -139h-46l6 140c-126 11 -188 101 -188 315c0 199 63 289 202 296l8 131h46l-8 -132c38 -4 75 -15 102 -28z" />
    <glyph glyph-name="sterling.tf" horiz-adv-x="590" 
d="M84 351l-2 50h52c-14 53 -28 99 -28 158c0 111 60 200 229 200c65 0 124 -16 167 -39l-10 -54c-36 20 -93 36 -151 36c-125 0 -176 -63 -176 -148c0 -51 13 -99 25 -153h241v-50h-230c6 -35 11 -73 11 -116c0 -87 -29 -149 -79 -184l2 -3c63 13 121 17 206 17
c68 0 137 -5 202 -12c-1 -4 -2 -55 -4 -59c-80 9 -146 14 -222 14c-87 0 -158 -4 -254 -13l-3 55c63 26 96 99 96 183c0 46 -5 84 -11 118h-61z" />
    <glyph glyph-name="currency.tf" horiz-adv-x="590" 
d="M139 352c0 35 11 67 30 93l-61 63l31 34l63 -64c25 20 57 31 92 31c34 0 66 -11 92 -31l65 65l31 -35l-63 -64c19 -26 30 -58 30 -92s-10 -64 -28 -90l60 -61l-31 -35l-62 62c-26 -20 -59 -32 -94 -32c-36 0 -68 12 -94 32l-61 -62l-32 34l61 61c-18 26 -29 57 -29 91z
M179 354c0 -63 51 -112 114 -112c65 0 115 49 115 112c0 61 -50 112 -115 112c-63 0 -114 -51 -114 -112z" />
    <glyph glyph-name="yen.tf" horiz-adv-x="590" 
d="M141 323h108l-207 427h68l155 -350l31 -74h3l30 74l153 350h65l-201 -427h106v-43h-123v-57h124v-42h-124v-181h-62v181h-126v42h126v57h-126v43z" />
    <glyph glyph-name="franc.tf" horiz-adv-x="590" 
d="M27 164h86v586h402l2 -60h-344v-273h273v-57h-273v-196h89v-46h-89v-118h-60v118h-86v46z" />
    <glyph glyph-name="lira.tf" horiz-adv-x="590" 
d="M86 408l-2 42h37c-8 34 -15 68 -15 109c0 111 61 200 230 200c65 0 124 -16 166 -39l-9 -54c-37 20 -94 36 -152 36c-124 0 -176 -65 -176 -150c0 -35 6 -68 14 -102h266v-42h-256c5 -22 10 -45 14 -69h242v-42h-236c2 -20 4 -40 4 -62c0 -87 -30 -149 -79 -183l2 -3
c62 12 121 16 205 16c69 0 137 -5 202 -12c-1 -4 -2 -55 -4 -59c-80 9 -145 14 -222 14c-87 0 -157 -4 -254 -13l-3 55c64 26 96 99 96 183c0 23 -1 44 -3 64h-65l-2 42h61c-5 25 -9 47 -15 69h-46z" />
    <glyph glyph-name="peseta.tf" horiz-adv-x="581" 
d="M553 510h-60c-5 -141 -68 -201 -210 -201h-137v-309h-56v510h-62v38h62v202h193c141 0 206 -53 211 -202h59v-38zM283 361c97 0 148 33 153 149h-290v-149h137zM146 697v-149h290c-4 111 -52 149 -153 149h-137z" />
    <glyph glyph-name="Euro.tf" horiz-adv-x="590" 
d="M450 342l-10 -40h-262c16 -185 89 -256 226 -256c58 0 117 18 166 50l6 -50c-46 -33 -113 -53 -183 -53c-176 0 -257 94 -274 309h-84v40h82c-1 15 -1 31 -1 48v24h-81v41h83c17 201 113 302 280 302c62 0 125 -14 163 -37l-13 -50c-45 21 -84 31 -141 31
c-138 0 -214 -82 -229 -246h306l-9 -41h-300v-72h275z" />
    <glyph glyph-name="numbersign.tosf" horiz-adv-x="537" 
d="M45 251h99l24 155h-122v45h127l25 198h44l-25 -198h136l24 198h44l-25 -198h96v-45h-102l-21 -155h123v-45h-129l-25 -206h-44l26 206h-136l-25 -206h-45l25 206h-94v45zM212 406l-23 -155h135l23 155h-135z" />
    <glyph glyph-name="dollar.tosf" horiz-adv-x="537" 
d="M455 165c0 -99 -52 -167 -170 -176l-6 -143h-50l6 143c-60 4 -116 22 -155 53l9 54c44 -36 110 -56 170 -56c99 0 140 51 140 120c0 159 -316 89 -316 285c0 93 62 150 176 155l8 133h50l-9 -133c44 -4 87 -16 125 -34l-6 -53c-49 23 -99 34 -149 34
c-85 0 -136 -39 -136 -98c0 -149 313 -74 313 -284z" />
    <glyph glyph-name="zero.tosf" horiz-adv-x="537" 
d="M494 311c0 -232 -67 -320 -225 -320c-160 0 -227 88 -227 320c0 236 67 321 227 321c159 0 225 -85 225 -321zM438 312c0 210 -53 266 -169 266s-171 -56 -171 -266c0 -212 55 -268 171 -268s169 57 169 268z" />
    <glyph glyph-name="one.tosf" horiz-adv-x="537" 
d="M101 0v43h172v427l2 80l-2 2l-68 -44l-128 -80l-7 52l228 146h32v-583h155v-43h-384z" />
    <glyph glyph-name="two.tosf" horiz-adv-x="537" 
d="M466 464c0 -135 -134 -256 -320 -408v-3h327l-3 -53h-402v41c169 154 341 292 341 419c0 67 -44 117 -153 117c-62 0 -123 -26 -168 -63l-17 48c46 38 116 70 192 70c131 0 203 -63 203 -168z" />
    <glyph glyph-name="three.tosf" horiz-adv-x="537" 
d="M472 157c0 -162 -131 -263 -346 -269l-5 50c204 6 298 98 298 218c0 89 -54 135 -159 135c-18 0 -44 -2 -62 -5l-3 43c154 18 199 63 199 140c0 69 -40 110 -143 110c-69 0 -124 -21 -170 -60l-16 47c41 39 113 67 189 67c129 0 191 -62 191 -157
c0 -76 -36 -128 -105 -152v-2c92 -18 132 -76 132 -165z" />
    <glyph glyph-name="four.tosf" horiz-adv-x="537" 
d="M514 74h-85v-178l-51 -3v181h-344l-4 40l338 518l61 -6v-502h87zM379 124l2 369l3 81l-2 1l-43 -69l-202 -315l-44 -64l1 -3h285z" />
    <glyph glyph-name="five.tosf" horiz-adv-x="537" 
d="M474 173c0 -167 -120 -277 -347 -285l-6 53c197 8 298 95 298 226c0 94 -54 141 -162 141c-64 0 -117 -17 -157 -43l-23 24l27 334h341l3 -58h-300l-12 -157l-8 -80l2 -2c42 23 94 36 142 36c134 0 202 -67 202 -189z" />
    <glyph glyph-name="six.tosf" horiz-adv-x="537" 
d="M485 249c0 -175 -71 -257 -210 -257c-136 0 -217 79 -217 334c0 284 147 406 345 416l9 -52c-184 -9 -291 -112 -302 -308l3 -2c46 48 109 75 175 75c135 0 197 -63 197 -206zM430 249c0 111 -49 157 -151 157c-58 0 -128 -31 -165 -82c3 -214 58 -277 161 -277
c101 0 155 62 155 202z" />
    <glyph glyph-name="seven.tosf" horiz-adv-x="537" 
d="M483 623v-49l-286 -676h-62l286 666h-364l4 59h422z" />
    <glyph glyph-name="eight.tosf" horiz-adv-x="537" 
d="M54 167c0 78 50 134 125 165v3c-58 23 -101 63 -101 141c0 96 56 156 193 156c133 0 193 -55 193 -156c0 -67 -37 -119 -105 -150v-2c70 -24 129 -63 129 -156c0 -119 -75 -176 -217 -176c-151 0 -217 59 -217 175zM432 164c0 101 -104 118 -200 148
c-70 -30 -124 -73 -124 -144c0 -88 44 -127 164 -127c98 0 160 36 160 123zM131 474c0 -86 85 -106 172 -131c77 31 111 71 111 128c0 75 -40 113 -143 113s-140 -39 -140 -110z" />
    <glyph glyph-name="nine.tosf" horiz-adv-x="537" 
d="M478 323c0 -296 -144 -425 -342 -433l-6 51c168 11 279 120 293 335l-2 1c-38 -50 -94 -74 -165 -74c-122 0 -196 71 -196 213c0 137 67 216 202 216c137 0 216 -86 216 -309zM421 341c-2 168 -47 236 -160 236c-95 0 -145 -54 -145 -160c0 -103 50 -161 151 -161
c67 0 125 25 154 85z" />
    <glyph glyph-name="cent.tosf" horiz-adv-x="537" 
d="M469 567l-5 -56c-38 20 -86 33 -134 33c-140 0 -197 -71 -197 -241c0 -194 68 -262 196 -262c51 0 101 14 139 42l6 -51c-34 -24 -86 -42 -143 -45l-6 -142h-48l6 144c-140 12 -209 106 -209 313c0 193 69 289 225 296l8 135h48l-9 -135c46 -4 88 -16 123 -31z" />
    <glyph glyph-name="sterling.tosf" horiz-adv-x="537" 
d="M60 303l-2 46h46c-12 43 -23 81 -23 129c0 97 54 178 214 178c61 0 116 -13 158 -34l-10 -50c-34 19 -89 32 -144 32c-117 0 -163 -55 -163 -130c0 -42 11 -82 21 -125h228v-46h-218c6 -30 11 -63 11 -100c0 -73 -25 -126 -68 -156l2 -3c59 11 112 14 189 14
c64 0 128 -4 188 -11l-4 -52c-75 7 -136 12 -207 12c-81 0 -147 -3 -237 -11l-1 49c57 23 85 85 85 155c0 40 -5 73 -11 103h-54z" />
    <glyph glyph-name="currency.tosf" horiz-adv-x="537" 
d="M117 328c0 34 11 66 30 91l-59 60l30 34l60 -62c25 19 56 30 90 30c33 0 64 -12 89 -31l62 62l31 -33l-61 -62c18 -25 29 -56 29 -89s-10 -63 -27 -87l58 -59l-31 -34l-58 60c-26 -20 -57 -32 -92 -32s-67 11 -92 31l-59 -59l-30 33l58 58c-18 25 -28 56 -28 89zM159 329
c0 -60 48 -107 109 -107s108 47 108 107c0 58 -47 106 -108 106s-109 -48 -109 -106z" />
    <glyph glyph-name="yen.tosf" horiz-adv-x="537" 
d="M123 282h102l-191 367h62l137 -283l34 -73h3l33 73l136 283h60l-186 -367h100v-36h-115v-59h115v-36h-115v-151h-57v151h-118v36h118v59h-118v36z" />
    <glyph glyph-name="franc.tosf" horiz-adv-x="537" 
d="M34 145h81v504h374l1 -54h-320v-233h251v-52h-251v-165h84v-42h-84v-103h-55v103h-81v42z" />
    <glyph glyph-name="lira.tosf" horiz-adv-x="537" 
d="M65 353l-2 37h33c-7 27 -12 55 -12 88c0 97 54 178 214 178c61 0 116 -13 157 -34l-9 -50c-35 19 -89 32 -144 32c-117 0 -164 -55 -164 -130c0 -29 5 -56 11 -84h253v-37h-243c5 -20 9 -40 13 -61h230v-36h-224c2 -17 3 -35 3 -53c0 -73 -25 -126 -68 -156l2 -3
c58 11 112 14 189 14c63 0 128 -4 187 -11l-3 -52c-76 7 -136 12 -208 12c-80 0 -147 -3 -236 -11l-2 49c57 23 86 85 86 155c0 20 -1 39 -3 56h-59l-1 36h55c-4 22 -9 42 -14 61h-41z" />
    <glyph glyph-name="peseta.tosf" horiz-adv-x="537" 
d="M522 439h-61c-5 -121 -62 -173 -194 -173h-129v-266h-54v439h-60v33h60v177h183c130 0 191 -50 195 -177h60v-33zM137 599v-127h270c-4 93 -48 127 -140 127h-130zM267 314c89 0 134 27 139 125h-269v-125h130z" />
    <glyph glyph-name="Euro.tosf" horiz-adv-x="537" 
d="M497 623l-16 -49c-37 20 -84 31 -135 31c-126 0 -188 -57 -203 -192h297l-13 -39h-287c-1 -13 -1 -26 -1 -40c0 -15 0 -30 1 -43h263l-14 -37h-246c16 -155 84 -213 202 -213c53 0 105 15 146 46l5 -51c-38 -29 -98 -49 -163 -49c-150 0 -233 79 -251 267h-47v37h45
c-1 14 -1 28 -1 43c0 13 0 27 1 40h-45v39h47c18 167 97 247 253 247c61 0 121 -15 162 -37z" />
    <glyph glyph-name="zero.zero" horiz-adv-x="568" 
d="M510 311c0 -232 -67 -320 -226 -320c-160 0 -226 88 -226 320c0 236 66 321 227 321c158 0 225 -85 225 -321zM454 312c0 209 -52 263 -170 263c-117 0 -171 -55 -171 -263c0 -209 54 -266 171 -266c118 0 170 57 170 266zM317 313c0 -29 -13 -41 -33 -41
c-21 0 -34 10 -34 41c0 28 13 41 34 41c20 0 33 -13 33 -41z" />
    <glyph glyph-name="commaaccent" 
d="M186 777c28 0 39 -15 39 -36c0 -23 -31 -76 -60 -117l-15 7l27 81c-20 3 -30 15 -30 33s12 32 39 32z" />
    <glyph glyph-name="commaccentturn" 
d="M184 670c-28 0 -39 15 -39 37s31 76 60 117l15 -7l-27 -82c20 -4 30 -15 30 -32c0 -18 -12 -33 -39 -33z" />
    <glyph glyph-name="f_j" horiz-adv-x="621" 
d="M175 0h-55v546h-86v46h86v32c0 104 51 171 171 171c25 0 52 -4 67 -9l-2 -42c-14 4 -34 8 -55 8c-88 0 -126 -47 -126 -129v-31h333v-611c0 -100 -48 -133 -116 -133c-19 0 -42 5 -58 12l4 44c13 -5 28 -9 42 -9c43 0 73 25 73 87v564h-278v-546zM524 754
c0 -28 -15 -40 -44 -40c-27 0 -43 10 -43 40c0 26 16 41 43 41c29 0 44 -15 44 -41z" />
    <glyph glyph-name="orn001" horiz-adv-x="658" 
d="M329 -12c-67 0 -120 128 -151 167c-52 65 -123 198 -123 345c0 142 70 264 274 264s274 -122 274 -264c0 -147 -71 -280 -123 -345c-32 -39 -84 -167 -151 -167zM330 24c49 0 97 115 125 149c44 53 113 174 113 302c0 69 -59 92 -239 92c-181 0 -238 -23 -238 -92
c0 -128 68 -249 113 -303c28 -33 76 -148 126 -148zM416 218c-26 7 -56 11 -86 11s-60 -4 -86 -11c-18 20 -34 50 -42 80c39 -14 83 -21 127 -21c45 0 89 7 129 21c-8 -30 -23 -59 -42 -80zM313 380l-18 -25c-40 7 -94 20 -129 37c0 27 9 54 22 68c33 -39 86 -64 125 -80z
M365 355l-18 25c38 16 91 41 124 80c13 -14 22 -41 22 -68c-35 -17 -89 -30 -128 -37z" />
    <glyph glyph-name="undercommaaccent" 
d="M186 -43c30 0 43 -15 43 -36c0 -22 -33 -75 -65 -116l-18 6l29 82c-22 3 -32 15 -32 32s12 32 43 32z" />
    </font>
</defs>
</svg>
