<svg width="24" height="24" fill="none" xmlns="http://www.w3.org/2000/svg"><g clip-path="url(#clip0_1852_12)"><g clip-path="url(#clip1_1852_12)"><path d="M4.112 19.951a11.143 11.143 0 007.902 3.272 11.152 11.152 0 007.903-3.272 11.075 11.075 0 002.394-3.555c.583-1.379.88-2.84.88-4.35 0-1.51-.294-2.975-.88-4.351a11.123 11.123 0 00-2.394-3.555 11.126 11.126 0 00-3.552-2.394 11.113 11.113 0 00-4.35-.88c-1.508 0-2.972.297-4.352.88A11.191 11.191 0 004.112 4.14a11.148 11.148 0 00-3.275 7.906c0 1.51.294 2.974.878 4.35a11.084 11.084 0 002.397 3.555zm.982-.983a9.861 9.861 0 01-1.563-2.032l.89-.472c.772.635 1.703 1.18 2.854 1.717l1.89 3.234a9.763 9.763 0 01-4.074-2.447M4.998 5.64l.009.088 3.51-.394.92 2.557-2.41 4.185-2.367.134-1.5-3.266A22.038 22.038 0 014.995 5.64m8.67 2.625l2.45 4.426c-.567 1.138-1.158 1.849-1.893 2.896H9.538c-.854-1.639-.962-1.829-1.834-3.234l2.333-4.056c1.155-.09 2.377-.175 3.628-.032zm1.674-2.768l3.747.484a31.088 31.088 0 011.834 3.138l-1.525 3.496-2.674-.332-2.403-4.336 1.02-2.453v.003zm-1.811 15.832c-1.33.154-2.249.078-3.584-.015l-1.942-3.321 1.396-1.683h4.827l1.755 2.041-2.543 2.896.088.079.003.003zm5.406-2.36a9.72 9.72 0 01-4.602 2.59l-.137-.073 2.622-2.986c1.155-.621 1.79-1.05 2.671-1.758l.773.58a9.952 9.952 0 01-1.327 1.645m1.697-2.27l-.808-.609c.175-1.233.167-2 .114-2.91l1.557-3.575c.204.79.306 1.607.306 2.444a9.75 9.75 0 01-1.169 4.65zm-1.697-11.57s.015.017.023.023l-.017.082-3.873-.499a8.868 8.868 0 00-2.677-1.627v-.837a9.7 9.7 0 016.541 2.858M11.67 2.268v.843c-1.129.437-1.887.758-2.94 1.47l-3.475.39a9.729 9.729 0 016.415-2.703zM2.584 9.413l1.504 3.274.047-.02c-.088.988-.11 1.933-.006 3.132l-.936.501a9.728 9.728 0 01-.965-4.251c0-.904.12-1.788.356-2.636z" fill="#2F1A45"/></g></g><defs><clipPath id="clip0_1852_12"><path fill="#fff" d="M0 0h24v24H0z"/></clipPath><clipPath id="clip1_1852_12"><path fill="#fff" transform="translate(.836 .868)" d="M0 0h22.355v22.358H0z"/></clipPath></defs></svg>