<svg width="24" height="24" fill="none" xmlns="http://www.w3.org/2000/svg"><g clip-path="url(#clip0_1852_5)" fill="#2F1A45"><path d="M21.013 1.079H3.725c-.49 0-.89.399-.89.892v13.7c-.55.19-.946.711-.946 1.326v4.616c0 .774.63 1.403 1.402 1.403h2.006c.774 0 1.402-.631 1.402-1.403v-4.616c0-.612-.393-1.136-.943-1.327v-2.052h15.257c.493 0 .893-.4.893-.89V1.971c0-.493-.4-.892-.893-.892zm-.32 5.948H13.17v-4.74h7.521v4.74zm-15.512.64h7.354v4.74H5.18v-4.74zm7.99 0h7.521v4.74h-7.52v-4.74zm-.636-.64H5.18v-4.74h7.354v4.74zm-7.99 9.14h-.502V2.288h.502v13.877zm.752.636c.105 0 .192.086.192.191v4.617a.19.19 0 01-.192.191H3.293a.191.191 0 01-.194-.191v-4.617c0-.105.087-.191.194-.191h2.004z"/><path d="M12.532 2.292H5.176V7.03h7.356V2.292zm8.185 5.38h-7.554v4.738h7.554V7.672z"/></g><defs><clipPath id="clip0_1852_5"><path fill="#fff" transform="translate(1.888 1.079)" d="M0 0h20.014v21.937H0z"/></clipPath></defs></svg>