<svg width="24" height="24" fill="none" xmlns="http://www.w3.org/2000/svg"><g clip-path="url(#clip0_1852_23)"><path d="M23.015 13.975l-11.99-5.457-.455-.207-.772-.352a6.708 6.708 0 00-3.96-.503 2.83 2.83 0 00-1.076-.858 2.842 2.842 0 00-3.757 1.407 2.838 2.838 0 00.186 2.692 6.11 6.11 0 00-.31.603 6.674 6.674 0 00-.184 5.152 6.698 6.698 0 003.517 3.769 6.699 6.699 0 005.152.175 6.743 6.743 0 002.2-1.35 6.61 6.61 0 001.495-2.015l8.352 1.057.617.076.26-.567 1.138-2.504.351-.771-.771-.35.007.003zM2.053 8.484a1.684 1.684 0 012.923-.25c-.058.02-.122.045-.19.072a1.491 1.491 0 00-2.557.261 1.494 1.494 0 00.114 1.439l-.131.156a1.679 1.679 0 01-.162-1.678m2.16.073c-.443.223-.943.54-1.427.992a.882.882 0 011.429-.99m17.127 8.362l-9.003-1.139-.083.227a5.594 5.594 0 01-7.557 3.168 5.597 5.597 0 01-2.397-8.092l.03-.046c.049-.076.1-.152.154-.222l.12-.167c.063-.08.129-.16.195-.236l.083-.088-.017.012a5.582 5.582 0 011.902-1.37l-.026.02a.264.264 0 01.046-.02l.25-.11c.075-.03.143-.054.21-.074l.258-.073a5.569 5.569 0 013.537.178l-.22.501a5.11 5.11 0 011.664 1.048l.339-.747 11.438 5.205-.92 2.022-.003.003zM8.782 10.194a4.292 4.292 0 00-5.674 2.125 4.288 4.288 0 002.125 5.671 4.288 4.288 0 005.672-2.125 4.288 4.288 0 00-2.123-5.674m1.57 5.423a3.678 3.678 0 01-4.867 1.824 3.68 3.68 0 01-1.825-4.87 3.678 3.678 0 016.695 3.043M8.03 11.84a2.474 2.474 0 00-3.273 1.226 2.474 2.474 0 001.226 3.273 2.477 2.477 0 003.275-1.226 2.477 2.477 0 00-1.226-3.275m.674 3.026a1.868 1.868 0 01-2.47.926 1.868 1.868 0 01-.925-2.47 1.871 1.871 0 012.472-.925 1.871 1.871 0 01.926 2.471m1.89-8.028l1.632-3a.471.471 0 01.642-.188.473.473 0 01.19.643l-1.63 2.997a.47.47 0 01-.643.19.474.474 0 01-.19-.642zM8.462 3.513a.473.473 0 11.936-.149l.478 3.02a.473.473 0 01-.469.549.478.478 0 01-.469-.4l-.478-3.02h.002zm3.62 4.128l3.195-1.578a.474.474 0 11.422.85l-3.194 1.578a.472.472 0 01-.635-.215.476.476 0 01.214-.635" fill="#2F1A45"/></g><defs><clipPath id="clip0_1852_23"><path fill="#fff" transform="translate(.27 2.966)" d="M0 0h23.515v17.862H0z"/></clipPath></defs></svg>