<svg width="24" height="24" fill="none" xmlns="http://www.w3.org/2000/svg"><g clip-path="url(#clip0_1852_17)"><g clip-path="url(#clip1_1852_17)"><path d="M23.556 7.27l-.015-.026-.016-.022c-1.892-2.763-6.55-2.89-11.049-3.013l-.227-.007-.226.007c-4.5.124-9.157.25-11.049 3.013l-.016.022-.015.026c-.93 1.577-.372 3.683 1.413 5.463 1.448 3.29 4.57 6.635 9.891 6.635 5.32 0 8.446-3.342 9.894-6.635 1.785-1.784 2.343-3.886 1.412-5.463m-.746.112c.033.062.062.124.088.184a22.08 22.08 0 01-3.82 1.57 1.725 1.725 0 00-.033-.13c-.014-.042-.031-.083-.048-.126a21.802 21.802 0 003.696-1.684c.04.06.08.122.117.188m-.449-.603a21.314 21.314 0 01-3.521 1.803 2.105 2.105 0 00-.167-.224 21.09 21.09 0 003.361-1.88c.117.093.225.193.327.298m-.794-.625a20.426 20.426 0 01-3.147 1.95 2.41 2.41 0 00-.241-.19 20.27 20.27 0 002.96-1.991c.149.071.292.15.428.231zM8.478 12.27c.489-1.2.98-2.397 1.472-3.597h4.568l1.453 3.604-.217.091-.214-.57h-2.062c-.005.353-.55.625-1.255.625-.704 0-1.25-.272-1.252-.625H8.909l-.214.563-.217-.09zm8.164-.317c-.609-1.231-1.215-2.462-1.823-3.69H9.678c-.609 1.235-1.22 2.466-1.828 3.702.098.055.198.107.303.158-1.863-.921-2.736-2.35-2.025-3.3 1.119-1.5 4.514-1.646 6.12-1.646 1.605 0 5 .148 6.119 1.646.668.892-.079 2.212-1.728 3.13m3.923-6.277a19.59 19.59 0 01-2.725 2.026 3.611 3.611 0 00-.303-.155c.916-.62 1.76-1.305 2.527-2.043.171.053.338.11.5.172zm-1.158-.355a18.669 18.669 0 01-2.278 2.051 7.576 7.576 0 00-.35-.126 17.982 17.982 0 002.075-2.054c.189.04.37.083.553.129zm-1.266-.263a17.775 17.775 0 01-1.823 2.05c-.129-.034-.26-.067-.391-.096a17.17 17.17 0 001.622-2.044c.2.028.398.054.592.09zm-1.344-.184A17.411 17.411 0 0115.42 6.91c-.136-.027-.277-.048-.42-.072.447-.66.84-1.34 1.179-2.028.208.017.413.038.616.062m-2.017-.162c.213.012.42.026.63.04-.267.68-.58 1.356-.937 2.019l-.437-.046a21.59 21.59 0 00.744-2.013zm-1.42-.053c.213.005.426.01.635.017-.143.673-.314 1.34-.51 2.009-.148-.01-.298-.017-.449-.022a44.21 44.21 0 00.325-2.004zm-1.109-.012c.108 0 .213 0 .32.003-.026.665-.057 1.333-.093 2.001l-.227-.002c-.076 0-.15 0-.226.002-.036-.668-.067-1.336-.093-2.001.107 0 .212-.003.32-.003zm-1.109.012c.09.668.198 1.339.322 2.004-.15.005-.3.012-.448.022a28.524 28.524 0 01-.51-2.009c.21-.007.421-.012.634-.017M9.72 4.71c.212.677.46 1.348.746 2.013l-.436.046a18.504 18.504 0 01-.938-2.019c.208-.014.418-.028.628-.04zm-1.403.102A18.23 18.23 0 009.496 6.84c-.143.024-.279.046-.417.072a17.12 17.12 0 01-1.374-2.035c.202-.024.408-.043.615-.062m-1.367.155a17.166 17.166 0 001.622 2.045c-.133.028-.262.062-.39.095a17.577 17.577 0 01-1.826-2.05c.196-.033.394-.061.594-.09zm-1.305.222a17.79 17.79 0 002.076 2.054c-.12.04-.237.081-.353.126a18.625 18.625 0 01-2.276-2.051c.18-.046.365-.089.553-.13zm-1.21.31a19.32 19.32 0 002.527 2.042c-.103.05-.205.1-.303.155a19.593 19.593 0 01-2.725-2.025c.163-.062.33-.12.501-.172zm-1.078.422c.919.742 1.909 1.41 2.963 1.992a2.81 2.81 0 00-.24.189 20.295 20.295 0 01-3.145-1.95c.136-.08.277-.157.424-.23m-.897.557A21.264 21.264 0 005.827 8.36a2.101 2.101 0 00-.167.224 21.41 21.41 0 01-3.521-1.803c.1-.108.21-.208.324-.299m-.77.9c.035-.064.076-.127.114-.189a21.618 21.618 0 003.696 1.685c-.017.043-.034.083-.048.126a1.18 1.18 0 00-.036.131 22.082 22.082 0 01-3.82-1.57c.029-.061.058-.123.091-.183m-.258.69a22.246 22.246 0 003.942 1.395c-.005.093 0 .189.01.282a22.408 22.408 0 01-4.016-1.236c.01-.153.031-.298.062-.442m-.033 1.031a22.5 22.5 0 004.065 1.007c.031.098.067.198.112.298a22.816 22.816 0 01-4.07-.802 3.335 3.335 0 01-.107-.503zm.639 1.694a5.205 5.205 0 01-.289-.542c1.36.301 2.71.473 4.035.525.064.103.138.203.22.303-1.294.02-2.62-.071-3.964-.288m.47.677c1.31.1 2.589.093 3.827-.017.1.098.205.196.32.291-1.181.184-2.41.28-3.672.273a7.031 7.031 0 01-.475-.545m1.84 1.706a11.423 11.423 0 01-.661-.505 22.945 22.945 0 003.428-.585c.134.09.275.177.42.262a23.165 23.165 0 01-3.187.828zm.918.587a23.217 23.217 0 002.842-1.119c.162.077.329.148.5.215-.794.484-1.633.93-2.521 1.334a11.99 11.99 0 01-.818-.43m2.87 1.205a12.995 12.995 0 01-.95-.312 24.464 24.464 0 002.083-1.566c.184.058.372.108.566.153a26.872 26.872 0 01-1.7 1.725zm2.274.458a16.22 16.22 0 01-1.036-.162c.422-.616.82-1.24 1.193-1.875.198.03.4.057.606.08-.239.655-.494 1.31-.764 1.96m1.837.112c-.178 0-.355-.005-.53-.012.08-.67.154-1.341.22-2.011.103.002.208.004.31.004.103 0 .208 0 .31-.005.07.67.141 1.341.22 2.012a13.36 13.36 0 01-.532.012m1.84-.115a43.726 43.726 0 01-.764-1.959 9.7 9.7 0 00.606-.08c.372.632.768 1.259 1.193 1.875a13.21 13.21 0 01-1.035.162m2.273-.456a25.704 25.704 0 01-1.698-1.725c.193-.045.381-.098.565-.152.654.548 1.35 1.07 2.083 1.565-.308.112-.625.217-.95.312zm2.052-.775a23.37 23.37 0 01-2.522-1.334c.172-.067.339-.138.501-.215.9.425 1.847.802 2.842 1.117-.263.15-.535.293-.821.432zm1.74-1.017a22.913 22.913 0 01-3.188-.83c.145-.086.286-.172.42-.26a23.02 23.02 0 003.428.585c-.207.171-.427.34-.66.505zm1.364-1.164a23.001 23.001 0 01-3.672-.272 5.38 5.38 0 00.32-.29 23.14 23.14 0 003.827.016 8.77 8.77 0 01-.475.544m.947-1.22a23 23 0 01-3.963.29c.081-.1.155-.201.22-.304a22.925 22.925 0 004.034-.525 5.08 5.08 0 01-.29.54zm.532-1.188a22.817 22.817 0 01-4.07.802c.045-.1.084-.2.112-.298a22.9 22.9 0 004.066-1.007 3.59 3.59 0 01-.108.503zm-3.882.144c.012-.093.015-.189.01-.282 1.334-.334 2.653-.8 3.944-1.396a3.2 3.2 0 01.062.442 22.578 22.578 0 01-4.013 1.236" fill="#2F1A45"/></g></g><defs><clipPath id="clip0_1852_17"><path fill="#fff" d="M0 0h24v24H0z"/></clipPath><clipPath id="clip1_1852_17"><path fill="#fff" transform="translate(.5 4.202)" d="M0 0h23.5v15.166H0z"/></clipPath></defs></svg>